<svg width="40.9mm" height="57.8mm" version="1.1" viewBox="0 0 40.9 57.8" xmlns="http://www.w3.org/2000/svg">
 <g transform="translate(-82 -123)">
  <path d="m110 180c-1.17-0.48-3.05-1.48-4.19-2.22-5.72-3.72-20.8-26.7-23-35.1-1.01-3.81-0.957-9.83 0.107-12.8 1.02-2.81 2.58-4.79 4.74-6.02 1.55-0.881 1.89-0.91 3.81-0.323 5.15 1.57 11.1 8.89 20.1 24.9 1.57 2.78 3.04 5.43 3.25 5.89s1.24 2.49 2.28 4.52c3.6 7 5.25 11.3 5.78 15.1 0.346 2.5-0.656 4.71-2.69 5.92-2.2 1.32-7.11 1.36-10.2 0.0908z" style="stroke-width:.435"/>
 </g>
</svg>
