<svg width="119mm" height="47mm" version="1.1" viewBox="0 0 119 47" xmlns="http://www.w3.org/2000/svg">
 <g transform="translate(-44.1 -74.8)">
  <path d="m115 122c-0.0204-0.0204-1.19-0.0543-2.59-0.0753-3.92-0.0585-7.75-0.472-12-1.3-0.825-0.16-1.9-0.366-2.38-0.458-0.485-0.0915-1.4-0.29-2.03-0.441-0.631-0.151-1.78-0.393-2.56-0.539-1.2-0.226-5.05-1.37-6.17-1.84-0.194-0.0807-0.869-0.305-1.5-0.498-8.67-2.65-16-6.74-24.2-13.5-2.18-1.81-7.93-7.61-9.98-10.1-3.79-4.56-7.19-9.43-7.42-10.6-0.166-0.886 0.289-1.62 1.42-2.31 2.09-1.26 4.23-1.67 8.74-1.67 2.66 2e-3 3.59 0.0723 5.03 0.38 0.97 0.208 2.24 0.459 2.82 0.558 0.582 0.0997 1.38 0.253 1.76 0.34 0.388 0.0876 1.1 0.244 1.59 0.347 0.485 0.103 1.44 0.312 2.12 0.464 4.42 0.99 6.63 1.43 9.26 1.85 4.83 0.767 4.91 0.777 11.7 1.38 8.6 0.767 20 0.553 26.7-0.502 0.631-0.0986 2.14-0.302 3.35-0.453 3.57-0.443 5.52-0.754 8.2-1.3 0.388-0.0798 1.34-0.272 2.12-0.427s1.73-0.354 2.12-0.442c0.388-0.0885 1.3-0.291 2.03-0.451 1.93-0.423 2.61-0.583 3.79-0.894 0.582-0.153 1.34-0.348 1.68-0.433 1.64-0.409 2.23-0.573 2.56-0.704 0.194-0.078 0.869-0.282 1.5-0.453 1.17-0.318 2.13-0.596 4.76-1.38 3.87-1.16 5.82-1.51 8.28-1.52 2.87-4e-3 4.58 0.474 6.29 1.76 1.33 1 1.31 3.53-0.0467 8.11-0.245 0.825-0.512 1.66-0.593 1.85-0.0813 0.194-0.278 0.789-0.438 1.32-0.159 0.534-0.355 1.13-0.435 1.32-0.0798 0.194-0.279 0.75-0.442 1.23-0.163 0.485-0.362 1.04-0.441 1.23-0.0792 0.194-0.281 0.75-0.447 1.23-0.167 0.485-0.493 1.29-0.724 1.8-0.231 0.503-0.421 1-0.421 1.1s-0.0755 0.328-0.168 0.496c-0.0923 0.168-0.291 0.604-0.441 0.968s-0.398 0.959-0.55 1.32c-0.152 0.364-0.342 0.82-0.422 1.01-0.649 1.58-2.33 4.73-2.84 5.34-0.141 0.167-0.409 0.543-0.597 0.834s-0.442 0.63-0.565 0.754-0.525 0.594-0.894 1.05c-0.8 0.98-3.98 4.19-4.76 4.82-0.305 0.243-1.26 0.996-2.11 1.67-0.857 0.678-1.58 1.29-1.62 1.37-0.0323 0.0738-0.123 0.134-0.2 0.134-0.0779 0-0.607 0.309-1.18 0.687-0.9 0.598-2.21 1.36-3.06 1.8-0.93 0.468-3.2 1.28-4.32 1.55-0.388 0.0927-1.14 0.284-1.68 0.424-2.51 0.661-4.39 0.988-8.82 1.53-1.26 0.154-8.76 0.36-8.88 0.243z" fill="#f7c555" stroke="#e8a40b" stroke-width=".376" style="fill:#383838"/>
 </g>
</svg>
