<svg width="118mm" height="60.8mm" version="1.1" viewBox="0 0 118 60.8" xmlns="http://www.w3.org/2000/svg">
 <g transform="translate(-54.2 -150)">
  <path d="m89.3 211c-3.6-0.391-7.28-1.59-11.7-3.79-5.37-2.69-9.69-6.81-14.7-14-1.45-2.07-1.68-2.45-3.2-5.2-3.28-5.95-5.48-13.4-5.49-18.5-0.0091-3.65 0.81-6.41 2.7-9.09 1.94-2.75 5.06-5.07 8.85-6.55 0.194-0.0763 0.551-0.225 0.794-0.331 0.792-0.346 3.4-1.06 5.47-1.5 7.2-1.52 10.7-1.72 30.3-1.71 24.4 0.0182 30.3 0.289 40.1 1.85 3.61 0.576 8.12 1.41 9 1.66 0.291 0.0837 1.08 0.285 1.76 0.448 6.01 1.44 11.5 3.7 14.6 5.96 1.39 1.04 2.87 2.56 3.57 3.68 0.541 0.862 1.04 2.52 1.11 3.68 0.092 1.61-0.338 5-0.794 6.26-0.211 0.582-0.471 1.3-0.578 1.59-0.107 0.291-0.56 1.16-1.01 1.94-2.62 4.56-8.71 10.8-15.5 15.8-1.38 1.02-5.07 3.54-5.38 3.66-0.097 0.0394-0.415 0.249-0.706 0.467-0.503 0.375-3.23 2.02-3.35 2.02-0.0312 0-0.521 0.262-1.09 0.582-1.5 0.848-6.02 2.94-7.47 3.46-0.34 0.122-0.776 0.287-0.97 0.366-3.16 1.29-11.1 3.68-14.8 4.42-0.521 0.106-1.26 0.265-1.65 0.352-0.742 0.167-2.89 0.588-4.45 0.872-0.509 0.0926-1.38 0.251-1.94 0.353-2.28 0.415-6.85 0.949-10.5 1.22-2.49 0.189-11.3 0.19-13.1 3.5e-4z" />
 </g>
</svg>
