<?xml version="1.0" encoding="UTF-8"?>
<svg width="224mm" height="165mm" version="1.1" viewBox="0 0 224 165" xmlns="http://www.w3.org/2000/svg" xmlns:cc="http://creativecommons.org/ns#" xmlns:dc="http://purl.org/dc/elements/1.1/" xmlns:rdf="http://www.w3.org/1999/02/22-rdf-syntax-ns#">
 <metadata>
  <rdf:RDF>
   <cc:Work rdf:about="">
    <dc:format>image/svg+xml</dc:format>
    <dc:type rdf:resource="http://purl.org/dc/dcmitype/StillImage"/>
    <dc:title/>
   </cc:Work>
  </rdf:RDF>
 </metadata>
 <g transform="translate(-7.57 -16.6)">
  <path class="cls-1" d="m29.6 16.6h78.3c10 0 16 11.1 10.4 19.4l-91.8 138c-5.64 8.47-18.8 4.47-18.9-5.72l-0.037-129a21.9 21.9 0 0 1 21.9-21.9z" fill="#37806a" stroke-width=".265"/>
  <circle class="cls-2" cx="82.2" cy="80.1" r="33.9" fill="#f7c554" stroke-width=".265"/>
  <g class="cls-3" transform="matrix(.265 0 0 .265 7.63 16.6)" fill="#37806a" shape-rendering="auto" aria-label="BACKA">
   <path d="m422 397c10.4 0 18.7 2.13 24.9 6.39 6.16 4.17 9.25 10.4 9.25 18.8 0 6.16-1.54 11.3-4.62 15.5-2.99 4.08-7.12 7.16-12.4 9.25-5.17 1.99-11.1 2.99-17.8 2.99l-3.13-10.6c8.25 0 15.5 1.13 21.9 3.4 6.44 2.27 11.5 5.53 15.2 9.79 3.72 4.17 5.57 9.2 5.57 15.1 0 5.44-0.997 10.1-2.99 13.9-1.9 3.72-4.53 6.75-7.89 9.11-3.26 2.27-6.98 3.94-11.1 5.03-4.17 0.997-8.47 1.5-12.9 1.5h-33.3v-100zm2.31 40.9c3.9 0 6.75-1.18 8.57-3.53 1.9-2.36 2.86-5.03 2.86-8.02 0-3.44-1.18-6.03-3.53-7.75-2.27-1.72-5.35-2.58-9.25-2.58h-10.6v21.9zm0.68 40.8c2.9 0 5.53-0.363 7.89-1.09 2.36-0.816 4.21-2.04 5.57-3.67 1.36-1.72 2.04-3.85 2.04-6.39 0-2.9-0.816-5.08-2.45-6.53-1.63-1.54-3.76-2.58-6.39-3.13-2.54-0.634-5.21-0.952-8.02-0.952h-11.3v21.8z" color="#000000" color-rendering="auto" dominant-baseline="auto" fill="#37806a" image-rendering="auto" solid-color="#000000" stop-color="#000000" style="font-feature-settings:normal;font-variant-alternates:normal;font-variant-caps:normal;font-variant-east-asian:normal;font-variant-ligatures:normal;font-variant-numeric:normal;font-variant-position:normal;font-variation-settings:normal;inline-size:0;isolation:auto;mix-blend-mode:normal;shape-margin:0;shape-padding:0;text-decoration-color:#000000;text-decoration-line:none;text-decoration-style:solid;text-indent:0;text-orientation:mixed;text-transform:none;white-space:normal"/>
   <path d="m392 397v101h33.8c4.48 0 8.82-0.501 13-1.51l4e-3 -2e-3 6e-3 -2e-3c4.22-1.1 7.99-2.8 11.3-5.1h2e-3v-2e-3c3.42-2.4 6.1-5.5 8.04-9.29v-2e-3c2.04-3.89 3.05-8.6 3.05-14.1 0-5.99-1.91-11.2-5.7-15.4l-4e-3 -4e-3c-2.77-3.18-6.3-5.79-10.5-7.87 2.65-1.76 4.94-3.83 6.76-6.32v-2e-3c3.15-4.26 4.72-9.55 4.72-15.8 0-8.46-3.17-14.9-9.46-19.2l-4e-3 -2e-3c-6.27-4.33-14.7-6.48-25.2-6.48zm1 1h28.9c10.4 0 18.5 2.12 24.6 6.3h2e-3l2e-3 2e-3c6.04 4.08 9.03 10.1 9.03 18.3 0 6.08-1.51 11.1-4.53 15.2l-2e-3 2e-3c-1.87 2.56-4.25 4.67-7.04 6.43-1.22-0.558-2.47-1.1-3.81-1.57-6.41-2.29-13.8-3.43-22.1-3.43h-0.668l3.42 11.6h0.373c6.76 0 12.8-1.01 18-3.03h6e-3c1.75-0.695 3.34-1.54 4.84-2.46 4.38 2.07 7.98 4.69 10.8 7.9l4e-3 4e-3c3.64 4.08 5.45 8.97 5.45 14.8 0 5.38-0.985 9.91-2.93 13.6l-2e-3 2e-3v2e-3c-1.87 3.65-4.44 6.62-7.73 8.93-3.21 2.23-6.87 3.88-11 4.96-6.2e-4 1.6e-4 -1e-3 -1.6e-4 -2e-3 0-4.13 0.986-8.39 1.48-12.8 1.48h-32.8zm18.7 18v22.9h12.5c3.99-1e-5 7.04-1.24 8.96-3.72 1.97-2.44 2.96-5.24 2.96-8.33 0-3.55-1.25-6.33-3.73-8.15l-4e-3 -2e-3c-2.38-1.8-5.58-2.68-9.54-2.68zm1 1h10.1c3.82 0 6.79 0.842 8.94 2.48l4e-3 4e-3 4e-3 2e-3c2.23 1.63 3.33 4.02 3.33 7.35 0 2.89-0.906 5.43-2.74 7.71l-8e-3 8e-3c-1.71 2.22-4.37 3.34-8.17 3.34h-11.5zm6.03 23.3c7.91 0.0645 14.9 1.14 21 3.32h2e-3c1.1 0.387 2.1 0.842 3.12 1.29-1.28 0.734-2.63 1.41-4.09 1.99-5 1.93-10.8 2.89-17.3 2.93zm-7.03 16.6v22.8h13.1c2.94 0 5.62-0.367 8.03-1.11l0.01-4e-3 8e-3 -2e-3c2.43-0.84 4.37-2.12 5.79-3.82l4e-3 -4e-3 4e-3 -6e-3c1.43-1.82 2.15-4.07 2.15-6.7 0-2.99-0.86-5.34-2.61-6.9-1.7-1.61-3.92-2.69-6.61-3.24-2.58-0.644-5.29-0.965-8.13-0.965zm1 1h10.8c2.77 0 5.4 0.314 7.9 0.938l0.02 4e-3c2.56 0.529 4.59 1.53 6.15 3l4e-3 6e-3 6e-3 6e-3c1.51 1.34 2.28 3.35 2.28 6.15 0 2.45-0.645 4.45-1.93 6.07-1.29 1.55-3.06 2.72-5.34 3.51-2.3 0.706-4.87 1.06-7.73 1.06h-12.1z" color="#000000" color-rendering="auto" dominant-baseline="auto" image-rendering="auto" solid-color="#000000" stop-color="#000000" style="font-feature-settings:normal;font-variant-alternates:normal;font-variant-caps:normal;font-variant-east-asian:normal;font-variant-ligatures:normal;font-variant-numeric:normal;font-variant-position:normal;font-variation-settings:normal;inline-size:0;isolation:auto;mix-blend-mode:normal;shape-margin:0;shape-padding:0;text-decoration-color:#000000;text-decoration-line:none;text-decoration-style:solid;text-indent:0;text-orientation:mixed;text-transform:none;white-space:normal"/>
   <path d="m466 497 45.1-104h1.09l45.1 104h-22.8l-28.8-73.1 14.3-9.79-34.5 82.9zm30.9-36.2h30l6.93 16.6h-43.1z" color="#000000" color-rendering="auto" dominant-baseline="auto" fill="#37806a" image-rendering="auto" solid-color="#000000" stop-color="#000000" style="font-feature-settings:normal;font-variant-alternates:normal;font-variant-caps:normal;font-variant-east-asian:normal;font-variant-ligatures:normal;font-variant-numeric:normal;font-variant-position:normal;font-variation-settings:normal;inline-size:0;isolation:auto;mix-blend-mode:normal;shape-margin:0;shape-padding:0;text-decoration-color:#000000;text-decoration-line:none;text-decoration-style:solid;text-indent:0;text-orientation:mixed;text-transform:none;white-space:normal"/>
   <path d="m511 393-45.6 105h20.5l8.15-19.6h32.5l7.71 19.6h23.9l-45.6-105zm0.656 1h0.432l8.53 19.7-15.3 10.5 5.03 12.8-9.95 23.9h-3.65l-0.119 0.326-6.37 17.3h2.82l-7.74 18.6h-18.3zm9.2 20.2 35.9 82.8h-21.7l-7.32-18.6h7.05l-7.35-17.6h-6.63l-9.42-23.9zm-1.8 1.73-8.19 19.7-4.36-11.1zm-8.22 22.3 8.89 22.6h-18.3zm-13.4 23.6h2.54l-6.49 15.6h-1.8zm3.62 0h19.1l6.14 15.6h-31.7zm20.2 0h5.57l6.52 15.6h-5.94z" color="#000000" color-rendering="auto" dominant-baseline="auto" image-rendering="auto" solid-color="#000000" stop-color="#000000" style="font-feature-settings:normal;font-variant-alternates:normal;font-variant-caps:normal;font-variant-east-asian:normal;font-variant-ligatures:normal;font-variant-numeric:normal;font-variant-position:normal;font-variation-settings:normal;inline-size:0;isolation:auto;mix-blend-mode:normal;shape-margin:0;shape-padding:0;text-decoration-color:#000000;text-decoration-line:none;text-decoration-style:solid;text-indent:0;text-orientation:mixed;text-transform:none;white-space:normal"/>
   <path d="m640 489c-1.09 0.906-3.13 2.13-6.12 3.67-2.9 1.54-6.48 2.9-10.7 4.08s-8.97 1.72-14.1 1.63c-7.89-0.181-15-1.59-21.2-4.21-6.16-2.72-11.4-6.39-15.8-11-4.26-4.62-7.52-9.93-9.79-15.9-2.27-5.98-3.4-12.4-3.4-19.2 0-7.61 1.13-14.6 3.4-20.9 2.36-6.34 5.66-11.8 9.93-16.5 4.35-4.62 9.52-8.2 15.5-10.7s12.6-3.81 19.9-3.81c6.71 0 12.6 0.906 17.8 2.72s9.38 3.76 12.6 5.85l-7.75 18.6c-2.27-1.72-5.3-3.49-9.11-5.3-3.72-1.9-8.02-2.86-12.9-2.86-3.81 0-7.48 0.816-11 2.45-3.44 1.54-6.53 3.76-9.25 6.66-2.63 2.9-4.71 6.3-6.25 10.2-1.54 3.81-2.31 7.98-2.31 12.5 0 4.8 0.68 9.2 2.04 13.2 1.45 3.99 3.49 7.43 6.12 10.3 2.63 2.81 5.76 4.99 9.38 6.53 3.72 1.54 7.89 2.31 12.5 2.31 5.35 0 9.93-0.861 13.7-2.58s6.71-3.53 8.7-5.44z" color="#000000" color-rendering="auto" dominant-baseline="auto" fill="#37806a" image-rendering="auto" solid-color="#000000" stop-color="#000000" style="font-feature-settings:normal;font-variant-alternates:normal;font-variant-caps:normal;font-variant-east-asian:normal;font-variant-ligatures:normal;font-variant-numeric:normal;font-variant-position:normal;font-variation-settings:normal;inline-size:0;isolation:auto;mix-blend-mode:normal;shape-margin:0;shape-padding:0;text-decoration-color:#000000;text-decoration-line:none;text-decoration-style:solid;text-indent:0;text-orientation:mixed;text-transform:none;white-space:normal"/>
   <path d="m608 396c-7.31 0-14 1.28-20 3.85-6.04 2.56-11.3 6.18-15.7 10.9l-4e-3 4e-3c-4.31 4.67-7.65 10.2-10 16.6l-2e-3 2e-3 -2e-3 4e-3c-2.29 6.4-3.43 13.4-3.43 21.1 0 6.85 1.14 13.3 3.43 19.3 2.29 6.04 5.59 11.4 9.89 16.1l4e-3 4e-3c4.4 4.67 9.71 8.38 15.9 11.1l8e-3 4e-3c6.32 2.66 13.5 4.07 21.4 4.25h2e-3c5.21 0.0914 9.97-0.455 14.3-1.65 4.28-1.18 7.89-2.55 10.8-4.12 3-1.55 5.06-2.77 6.21-3.73l0.295-0.246-8.61-18.7-0.506 0.482c-1.93 1.85-4.79 3.64-8.56 5.35-3.73 1.69-8.23 2.54-13.5 2.54-4.57 0-8.66-0.76-12.3-2.27l-4e-3 -2e-3c-3.56-1.51-6.62-3.65-9.2-6.4l-6e-3 -6e-3c-2.58-2.85-4.58-6.23-6.01-10.2-4e-4 -1e-3 4e-4 -3e-3 0-4e-3 -1.34-3.93-2.01-8.27-2.01-13 0-4.48 0.758-8.58 2.27-12.3l2e-3 -2e-3v-2e-3c1.52-3.84 3.57-7.19 6.15-10l4e-3 -4e-3c6.1e-4 -6.7e-4 1e-3 -1e-3 2e-3 -2e-3 2.68-2.85 5.7-5.03 9.08-6.54l4e-3 -2e-3 2e-3 -2e-3c3.47-1.6 7.07-2.4 10.8-2.4 4.83 0 9.05 0.938 12.7 2.8l6e-3 2e-3 6e-3 4e-3c3.79 1.8 6.8 3.56 9.02 5.25l0.516 0.393 8.16-19.6-0.354-0.227c-3.31-2.11-7.56-4.07-12.7-5.9-5.23-1.84-11.2-2.75-18-2.75zm0 1c6.66 0 12.5 0.901 17.6 2.69 4.97 1.74 9 3.62 12.2 5.6l-7.35 17.7c-2.24-1.64-5.08-3.3-8.65-5l-8e-3 -2e-3c-3.79-1.94-8.18-2.91-13.1-2.91-3.88 0-7.63 0.832-11.2 2.49-3.5 1.57-6.64 3.83-9.4 6.78l-6e-3 6e-3c-2.67 2.95-4.79 6.4-6.35 10.3-1.57 3.87-2.35 8.1-2.35 12.7 0 4.85 0.685 9.3 2.06 13.3l2e-3 4e-3 2e-3 6e-3c1.47 4.04 3.54 7.55 6.22 10.5l2e-3 2e-3 2e-3 4e-3c2.68 2.86 5.86 5.08 9.55 6.64h2e-3l2e-3 2e-3c3.78 1.57 8.02 2.35 12.7 2.35 5.4 0 10.1-0.871 13.9-2.63 3.56-1.61 6.27-3.32 8.3-5.12l7.71 16.7c-1.07 0.844-2.89 1.97-5.71 3.42l-4e-3 2e-3h-2e-3c-2.86 1.52-6.41 2.87-10.6 4.04-4.21 1.16-8.87 1.7-14 1.61-7.83-0.18-14.8-1.57-21-4.17l-8e-3 -4e-3c-6.1-2.69-11.3-6.32-15.6-10.9l-2e-3 -2e-3c-6.3e-4 -6.6e-4 -1e-3 -1e-3 -2e-3 -2e-3 -4.22-4.58-7.44-9.82-9.69-15.7-2.24-5.92-3.37-12.2-3.37-19 0-7.56 1.13-14.5 3.37-20.8l2e-3 -2e-3c4.2e-4 -1e-3 -4.1e-4 -3e-3 0-4e-3 2.34-6.29 5.61-11.7 9.82-16.3 4.3-4.57 9.41-8.11 15.3-10.6 5.92-2.51 12.5-3.77 19.7-3.77z" color="#000000" color-rendering="auto" dominant-baseline="auto" image-rendering="auto" solid-color="#000000" stop-color="#000000" style="font-feature-settings:normal;font-variant-alternates:normal;font-variant-caps:normal;font-variant-east-asian:normal;font-variant-ligatures:normal;font-variant-numeric:normal;font-variant-position:normal;font-variation-settings:normal;inline-size:0;isolation:auto;mix-blend-mode:normal;shape-margin:0;shape-padding:0;text-decoration-color:#000000;text-decoration-line:none;text-decoration-style:solid;text-indent:0;text-orientation:mixed;text-transform:none;white-space:normal"/>
   <path d="m680 433-0.544 5.03 2.99-3.81 32.6-36.8h25.6l-41.3 44.9 41.5 55.2h-25l-30.9-42.7-4.89 4.89v37.8h-20v-100h20z" color="#000000" color-rendering="auto" dominant-baseline="auto" fill="#37806a" image-rendering="auto" solid-color="#000000" stop-color="#000000" style="font-feature-settings:normal;font-variant-alternates:normal;font-variant-caps:normal;font-variant-east-asian:normal;font-variant-ligatures:normal;font-variant-numeric:normal;font-variant-position:normal;font-variation-settings:normal;inline-size:0;isolation:auto;mix-blend-mode:normal;shape-margin:0;shape-padding:0;text-decoration-color:#000000;text-decoration-line:none;text-decoration-style:solid;text-indent:0;text-orientation:mixed;text-transform:none;white-space:normal"/>
   <path d="m659 397v101h21v-38.1l4.33-4.33 30.7 42.4h26.3l-41.8-55.7 41.8-45.4h-26.9l-32.8 37-1.92 2.45 0.359-3.33v-36.1zm1 1h19v35.1l-0.729 6.73 4.06-5.17 32.5-36.7h24.2l-40.8 44.3 41.1 54.7h-23.8l-31.1-43-5.46 5.46v37.5h-19z" color="#000000" color-rendering="auto" dominant-baseline="auto" image-rendering="auto" solid-color="#000000" stop-color="#000000" style="font-feature-settings:normal;font-variant-alternates:normal;font-variant-caps:normal;font-variant-east-asian:normal;font-variant-ligatures:normal;font-variant-numeric:normal;font-variant-position:normal;font-variation-settings:normal;inline-size:0;isolation:auto;mix-blend-mode:normal;shape-margin:0;shape-padding:0;text-decoration-color:#000000;text-decoration-line:none;text-decoration-style:solid;text-indent:0;text-orientation:mixed;text-transform:none;white-space:normal"/>
   <path d="m744 497 45.1-104h1.09l45.1 104h-22.8l-28.8-73.1 14.3-9.79-34.5 82.9zm30.9-36.2h30l6.93 16.6h-43.1z" color="#000000" color-rendering="auto" dominant-baseline="auto" fill="#37806a" image-rendering="auto" solid-color="#000000" stop-color="#000000" style="font-feature-settings:normal;font-variant-alternates:normal;font-variant-caps:normal;font-variant-east-asian:normal;font-variant-ligatures:normal;font-variant-numeric:normal;font-variant-position:normal;font-variation-settings:normal;inline-size:0;isolation:auto;mix-blend-mode:normal;shape-margin:0;shape-padding:0;text-decoration-color:#000000;text-decoration-line:none;text-decoration-style:solid;text-indent:0;text-orientation:mixed;text-transform:none;white-space:normal"/>
   <path d="m789 393-45.6 105h20.5l8.15-19.6h32.5l7.71 19.6h23.9l-45.6-105zm0.656 1h0.432l8.53 19.7-15.3 10.5 5.03 12.8-9.95 23.9h-3.65l-0.121 0.326-6.37 17.3h2.82l-7.74 18.6h-18.3zm9.2 20.2 35.9 82.8h-21.7l-7.32-18.6h7.05l-7.35-17.6h-6.63l-9.42-23.9zm-1.8 1.73-8.19 19.7-4.36-11.1zm-8.22 22.3 8.89 22.6h-18.3zm-13.4 23.6h2.54l-6.49 15.6h-1.8zm3.62 0h19.1l6.14 15.6h-31.7zm20.2 0h5.57l6.52 15.6h-5.94z" color="#000000" color-rendering="auto" dominant-baseline="auto" image-rendering="auto" solid-color="#000000" stop-color="#000000" style="font-feature-settings:normal;font-variant-alternates:normal;font-variant-caps:normal;font-variant-east-asian:normal;font-variant-ligatures:normal;font-variant-numeric:normal;font-variant-position:normal;font-variation-settings:normal;inline-size:0;isolation:auto;mix-blend-mode:normal;shape-margin:0;shape-padding:0;text-decoration-color:#000000;text-decoration-line:none;text-decoration-style:solid;text-indent:0;text-orientation:mixed;text-transform:none;white-space:normal"/>
  </g>
  <g class="cls-3" transform="matrix(.265 0 0 .265 7.63 16.6)" fill="#37806a" shape-rendering="auto" aria-label="BOULDER">
   <path d="m208 522c10.4 0 18.7 2.13 24.9 6.39 6.16 4.17 9.25 10.4 9.25 18.8 0 6.16-1.54 11.3-4.62 15.5-2.99 4.08-7.12 7.16-12.4 9.25-5.17 1.99-11.1 2.99-17.8 2.99l-3.13-10.6c8.25 0 15.5 1.13 21.9 3.4 6.44 2.27 11.5 5.53 15.2 9.79 3.72 4.17 5.57 9.2 5.57 15.1 0 5.44-0.997 10.1-2.99 13.9-1.9 3.72-4.53 6.75-7.89 9.11-3.26 2.27-6.98 3.94-11.1 5.03-4.17 0.997-8.47 1.5-12.9 1.5h-33.3v-100zm2.31 40.9c3.9 0 6.75-1.18 8.57-3.53 1.9-2.36 2.86-5.03 2.86-8.02 0-3.44-1.18-6.03-3.53-7.75-2.27-1.72-5.35-2.58-9.25-2.58h-10.6v21.9zm0.68 40.8c2.9 0 5.53-0.363 7.89-1.09 2.36-0.816 4.21-2.04 5.57-3.67 1.36-1.72 2.04-3.85 2.04-6.39 0-2.9-0.816-5.08-2.45-6.53-1.63-1.54-3.76-2.58-6.39-3.13-2.54-0.634-5.21-0.952-8.02-0.952h-11.3v21.8z" color="#000000" color-rendering="auto" dominant-baseline="auto" fill="#37806a" image-rendering="auto" solid-color="#000000" stop-color="#000000" style="font-feature-settings:normal;font-variant-alternates:normal;font-variant-caps:normal;font-variant-east-asian:normal;font-variant-ligatures:normal;font-variant-numeric:normal;font-variant-position:normal;font-variation-settings:normal;inline-size:0;isolation:auto;mix-blend-mode:normal;shape-margin:0;shape-padding:0;text-decoration-color:#000000;text-decoration-line:none;text-decoration-style:solid;text-indent:0;text-orientation:mixed;text-transform:none;white-space:normal"/>
   <path d="m178 521v101h33.8c4.48 0 8.82-0.503 13-1.51h6e-3l4e-3 -2e-3c4.22-1.1 7.99-2.8 11.3-5.1v-2e-3h2e-3c3.42-2.4 6.1-5.5 8.04-9.29v-2e-3c2.04-3.89 3.05-8.6 3.05-14.1 0-5.99-1.91-11.2-5.7-15.4l-4e-3 -4e-3c-2.77-3.18-6.3-5.79-10.5-7.87 2.65-1.76 4.94-3.84 6.76-6.32l2e-3 -2e-3c3.15-4.26 4.72-9.55 4.72-15.8 0-8.46-3.17-14.9-9.46-19.2l-4e-3 -2e-3c-6.27-4.33-14.7-6.48-25.2-6.48zm1 1h28.9c10.4 0 18.5 2.12 24.6 6.3l4e-3 4e-3c6.04 4.08 9.03 10.1 9.03 18.3 0 6.08-1.51 11.1-4.52 15.2h-2e-3c-1.87 2.56-4.25 4.67-7.04 6.43-1.22-0.558-2.47-1.1-3.81-1.57h-2e-3c-6.41-2.29-13.8-3.43-22.1-3.43h-0.67l3.42 11.6h0.375c6.76 0 12.8-1.01 18-3.03h2e-3l2e-3 -2e-3c1.75-0.694 3.34-1.54 4.84-2.46 4.38 2.07 7.98 4.69 10.8 7.9l4e-3 4e-3c3.64 4.08 5.45 8.97 5.45 14.8 0 5.38-0.987 9.92-2.94 13.6v2e-3l-2e-3 2e-3c-1.87 3.65-4.44 6.62-7.73 8.93-3.21 2.23-6.87 3.88-11 4.96-6.1e-4 1.6e-4 -1e-3 -1.6e-4 -2e-3 0-4.13 0.986-8.39 1.48-12.8 1.48h-32.8zm18.7 18v22.9h12.5c3.99 0 7.04-1.24 8.96-3.72 1.97-2.44 2.96-5.24 2.96-8.33 0-3.55-1.25-6.33-3.73-8.15l-4e-3 -2e-3c-2.38-1.8-5.58-2.68-9.54-2.68zm1 1h10.1c3.82 0 6.79 0.844 8.94 2.48l4e-3 2e-3 4e-3 4e-3c2.23 1.63 3.33 4.02 3.33 7.35 0 2.89-0.906 5.43-2.74 7.71l-4e-3 6e-3 -4e-3 4e-3c-1.71 2.22-4.37 3.34-8.17 3.34h-11.5zm6.03 23.3c7.91 0.0644 14.9 1.14 21 3.32l2e-3 2e-3c1.1 0.387 2.1 0.842 3.12 1.29-1.28 0.734-2.63 1.41-4.09 1.99-5 1.93-10.8 2.89-17.3 2.93zm-7.03 16.6v22.8h13.1c2.94 0 5.62-0.367 8.03-1.11l8e-3 -2e-3 8e-3 -4e-3c2.43-0.84 4.37-2.11 5.79-3.82l0.01-0.01c1.43-1.82 2.15-4.07 2.15-6.7 0-2.99-0.86-5.33-2.61-6.89-1.71-1.61-3.93-2.69-6.62-3.25h-2e-3c-2.57-0.642-5.28-0.961-8.12-0.961zm1 1h10.8c2.77 0 5.4 0.312 7.9 0.936l0.02 4e-3c2.56 0.529 4.59 1.53 6.15 3l6e-3 6e-3 6e-3 4e-3c1.51 1.34 2.28 3.35 2.28 6.15 0 2.45-0.647 4.45-1.93 6.07-1.29 1.55-3.06 2.72-5.34 3.51-2.3 0.707-4.88 1.06-7.73 1.06h-12.1z" color="#000000" color-rendering="auto" dominant-baseline="auto" image-rendering="auto" solid-color="#000000" stop-color="#000000" style="font-feature-settings:normal;font-variant-alternates:normal;font-variant-caps:normal;font-variant-east-asian:normal;font-variant-ligatures:normal;font-variant-numeric:normal;font-variant-position:normal;font-variation-settings:normal;inline-size:0;isolation:auto;mix-blend-mode:normal;shape-margin:0;shape-padding:0;text-decoration-color:#000000;text-decoration-line:none;text-decoration-style:solid;text-indent:0;text-orientation:mixed;text-transform:none;white-space:normal"/>
   <path d="m260 572c0-6.89 1.31-13.4 3.94-19.6s6.25-11.6 10.9-16.3c4.71-4.8 10.2-8.57 16.3-11.3s12.8-4.08 19.9-4.08c6.98 0 13.6 1.36 19.7 4.08s11.6 6.48 16.3 11.3c4.8 4.71 8.52 10.2 11.1 16.3 2.72 6.16 4.08 12.7 4.08 19.6 0 7.07-1.36 13.7-4.08 19.9-2.63 6.16-6.34 11.6-11.1 16.3-4.71 4.62-10.2 8.25-16.3 10.9s-12.7 3.94-19.7 3.94c-7.07 0-13.7-1.31-19.9-3.94s-11.6-6.25-16.3-10.9c-4.62-4.71-8.25-10.2-10.9-16.3s-3.94-12.8-3.94-19.9zm20.4 0c0 4.44 0.77 8.61 2.31 12.5 1.63 3.81 3.85 7.21 6.66 10.2 2.9 2.9 6.21 5.17 9.93 6.8 3.81 1.63 7.93 2.45 12.4 2.45 4.26 0 8.2-0.816 11.8-2.45 3.72-1.63 6.93-3.9 9.65-6.8 2.72-2.99 4.85-6.39 6.39-10.2 1.54-3.9 2.31-8.07 2.31-12.5 0-4.53-0.816-8.75-2.45-12.6-1.54-3.9-3.72-7.3-6.53-10.2-2.72-2.99-5.94-5.3-9.65-6.93s-7.75-2.45-12.1-2.45-8.38 0.816-12.1 2.45-6.98 3.94-9.79 6.93c-2.81 2.9-4.99 6.3-6.53 10.2s-2.31 8.11-2.31 12.6z" color="#000000" color-rendering="auto" dominant-baseline="auto" fill="#37806a" image-rendering="auto" solid-color="#000000" stop-color="#000000" style="font-feature-settings:normal;font-variant-alternates:normal;font-variant-caps:normal;font-variant-east-asian:normal;font-variant-ligatures:normal;font-variant-numeric:normal;font-variant-position:normal;font-variation-settings:normal;inline-size:0;isolation:auto;mix-blend-mode:normal;shape-margin:0;shape-padding:0;text-decoration-color:#000000;text-decoration-line:none;text-decoration-style:solid;text-indent:0;text-orientation:mixed;text-transform:none;white-space:normal"/>
   <path d="m311 520c-7.13 0-13.8 1.37-20.1 4.12-6.22 2.74-11.7 6.54-16.5 11.4-4.67 4.76-8.33 10.3-11 16.5-2.65 6.23-3.98 12.8-3.98 19.8 0 7.13 1.33 13.8 3.98 20 2.65 6.22 6.31 11.7 11 16.5l4e-3 4e-3 2e-3 4e-3c4.76 4.67 10.3 8.33 16.5 11 6.23 2.66 12.9 3.98 20 3.98 7.04 0 13.7-1.33 19.9-3.98 6.22-2.65 11.7-6.31 16.5-11 4.85-4.76 8.6-10.3 11.3-16.5l2e-3 -6e-3c2.75-6.23 4.12-12.9 4.12-20 0-6.95-1.37-13.5-4.12-19.8l-2e-3 -6e-3c-2.65-6.22-6.41-11.7-11.2-16.5-4.76-4.85-10.3-8.65-16.5-11.4-6.23-2.75-12.9-4.12-19.9-4.12zm0 1c6.91 0 13.4 1.34 19.5 4.04 6.11 2.69 11.5 6.42 16.2 11.2l2e-3 4e-3 4e-3 4e-3c4.76 4.67 8.44 10 11 16.2l2e-3 2e-3v4e-3c2.69 6.1 4.04 12.6 4.04 19.4 0 7.01-1.35 13.5-4.04 19.6v4e-3l-2e-3 2e-3c-2.6 6.1-6.28 11.5-11 16.2-4.67 4.58-10.1 8.17-16.2 10.8-6.1 2.6-12.6 3.9-19.5 3.9-7.01 0-13.6-1.3-19.7-3.9-6.11-2.61-11.5-6.2-16.2-10.8-4.58-4.67-8.16-10-10.8-16.2-2.6-6.1-3.9-12.6-3.9-19.7 0-6.83 1.3-13.3 3.9-19.4 2.61-6.11 6.19-11.5 10.8-16.2 4.67-4.76 10.1-8.48 16.2-11.2 6.1-2.69 12.6-4.04 19.6-4.04zm0.137 18c-4.41 0-8.52 0.828-12.3 2.49-3.77 1.66-7.09 4.01-9.95 7.04-2.86 2.95-5.07 6.4-6.63 10.4-1.57 3.96-2.35 8.24-2.35 12.8 0 4.5 0.781 8.74 2.35 12.7l2e-3 6e-3 4e-3 8e-3c1.65 3.86 3.91 7.31 6.76 10.3l0.012 0.012c2.94 2.94 6.31 5.25 10.1 6.9h4e-3c3.87 1.66 8.07 2.49 12.6 2.49 4.32 0 8.34-0.828 12-2.49 3.78-1.66 7.05-3.96 9.82-6.91l2e-3 -4e-3 2e-3 -2e-3c2.76-3.03 4.92-6.49 6.48-10.3v-2e-3l2e-3 -2e-3c1.56-3.96 2.35-8.19 2.35-12.7 0-4.59-0.828-8.87-2.49-12.8-1.56-3.95-3.77-7.4-6.62-10.3l-2e-3 -2e-3c-2.76-3.04-6.04-5.4-9.82-7.05-3.78-1.66-7.89-2.49-12.3-2.49zm0 1c4.29 0 8.25 0.802 11.9 2.4 3.65 1.6 6.81 3.87 9.48 6.81l0.012 0.012c2.76 2.85 4.9 6.19 6.42 10l4e-3 8e-3c1.6 3.83 2.41 7.98 2.41 12.5 0 4.38-0.759 8.49-2.28 12.3-1.52 3.75-3.62 7.1-6.29 10-2.67 2.85-5.83 5.07-9.48 6.68h-2e-3l-4e-3 2e-3c-3.56 1.6-7.43 2.4-11.6 2.4-4.38 0-8.43-0.802-12.2-2.4l-4e-3 -2e-3c-3.65-1.6-6.9-3.83-9.76-6.68-2.77-2.95-4.95-6.29-6.56-10l-2e-3 -6e-3c-1.52-3.84-2.27-7.94-2.27-12.3 0-4.48 0.759-8.62 2.28-12.5 1.52-3.84 3.66-7.18 6.42-10l6e-3 -6e-3c2.77-2.94 5.97-5.21 9.62-6.82 3.65-1.6 7.61-2.4 11.9-2.4z" color="#000000" color-rendering="auto" dominant-baseline="auto" image-rendering="auto" solid-color="#000000" stop-color="#000000" style="font-feature-settings:normal;font-variant-alternates:normal;font-variant-caps:normal;font-variant-east-asian:normal;font-variant-ligatures:normal;font-variant-numeric:normal;font-variant-position:normal;font-variation-settings:normal;inline-size:0;isolation:auto;mix-blend-mode:normal;shape-margin:0;shape-padding:0;text-decoration-color:#000000;text-decoration-line:none;text-decoration-style:solid;text-indent:0;text-orientation:mixed;text-transform:none;white-space:normal"/>
   <path d="m400 585c0 3.17 0.952 6.21 2.86 9.11s4.4 5.26 7.48 7.07c3.17 1.81 6.62 2.72 10.3 2.72 4.08 0 7.7-0.906 10.9-2.72 3.17-1.81 5.66-4.17 7.48-7.07 1.9-2.9 2.86-5.94 2.86-9.11v-63.1h19.4v63.5c0 7.34-1.81 13.9-5.44 19.6-3.63 5.62-8.52 10.1-14.7 13.3-6.16 3.17-13 4.76-20.5 4.76-7.43 0-14.2-1.59-20.4-4.76-6.07-3.26-10.9-7.7-14.5-13.3-3.63-5.71-5.44-12.2-5.44-19.6v-63.5h19.7z" color="#000000" color-rendering="auto" dominant-baseline="auto" fill="#37806a" image-rendering="auto" solid-color="#000000" stop-color="#000000" style="font-feature-settings:normal;font-variant-alternates:normal;font-variant-caps:normal;font-variant-east-asian:normal;font-variant-ligatures:normal;font-variant-numeric:normal;font-variant-position:normal;font-variation-settings:normal;inline-size:0;isolation:auto;mix-blend-mode:normal;shape-margin:0;shape-padding:0;text-decoration-color:#000000;text-decoration-line:none;text-decoration-style:solid;text-indent:0;text-orientation:mixed;text-transform:none;white-space:normal"/>
   <path d="m380 521v64c0 7.42 1.84 14.1 5.52 19.8h2e-3v2e-3c3.67 5.69 8.59 10.2 14.7 13.5l8e-3 4e-3c6.24 3.21 13.1 4.81 20.6 4.81 7.59 0 14.5-1.6 20.8-4.81l2e-3 -2e-3h4e-3c6.23-3.3 11.2-7.8 14.9-13.5v-2e-3h2e-3c3.68-5.79 5.52-12.4 5.52-19.8v-64h-20.4v63.6c0 3.07-0.916 6-2.77 8.83l-4e-3 4e-3 -2e-3 6e-3c-1.77 2.83-4.19 5.12-7.3 6.9-3.09 1.77-6.62 2.65-10.6 2.65-3.63 0-6.98-0.884-10.1-2.65h-2e-3c-3.02-1.78-5.45-4.08-7.31-6.91s-2.77-5.76-2.77-8.83v-63.6zm1 1h18.7v62.6c0 3.27 0.986 6.41 2.94 9.38 1.95 2.96 4.5 5.38 7.64 7.23l4e-3 2e-3 2e-3 2e-3c3.25 1.85 6.78 2.79 10.6 2.79 4.15 0 7.87-0.927 11.1-2.79 3.24-1.85 5.8-4.27 7.65-7.24 1.95-2.97 2.93-6.11 2.93-9.38v-62.6h18.4v63c0 7.26-1.79 13.7-5.36 19.3-3.58 5.55-8.4 9.92-14.5 13.2-6.09 3.13-12.8 4.7-20.3 4.7-7.36 0-14.1-1.57-20.2-4.7l-2e-3 -2e-3c-6-3.23-10.8-7.6-14.4-13.2l-2e-3 -2e-3c-3.57-5.63-5.36-12.1-5.36-19.3z" color="#000000" color-rendering="auto" dominant-baseline="auto" image-rendering="auto" solid-color="#000000" stop-color="#000000" style="font-feature-settings:normal;font-variant-alternates:normal;font-variant-caps:normal;font-variant-east-asian:normal;font-variant-ligatures:normal;font-variant-numeric:normal;font-variant-position:normal;font-variation-settings:normal;inline-size:0;isolation:auto;mix-blend-mode:normal;shape-margin:0;shape-padding:0;text-decoration-color:#000000;text-decoration-line:none;text-decoration-style:solid;text-indent:0;text-orientation:mixed;text-transform:none;white-space:normal"/>
   <path d="m485 522h19.7v81h47v19h-66.8z" color="#000000" color-rendering="auto" dominant-baseline="auto" fill="#37806a" image-rendering="auto" solid-color="#000000" stop-color="#000000" style="font-feature-settings:normal;font-variant-alternates:normal;font-variant-caps:normal;font-variant-east-asian:normal;font-variant-ligatures:normal;font-variant-numeric:normal;font-variant-position:normal;font-variation-settings:normal;inline-size:0;isolation:auto;mix-blend-mode:normal;shape-margin:0;shape-padding:0;text-decoration-color:#000000;text-decoration-line:none;text-decoration-style:solid;text-indent:0;text-orientation:mixed;text-transform:none;white-space:normal"/>
   <path d="m485 521v101h67.8v-20h-47v-81zm1 1h18.7v81h47v18h-65.8z" color="#000000" color-rendering="auto" dominant-baseline="auto" image-rendering="auto" solid-color="#000000" stop-color="#000000" style="font-feature-settings:normal;font-variant-alternates:normal;font-variant-caps:normal;font-variant-east-asian:normal;font-variant-ligatures:normal;font-variant-numeric:normal;font-variant-position:normal;font-variation-settings:normal;inline-size:0;isolation:auto;mix-blend-mode:normal;shape-margin:0;shape-padding:0;text-decoration-color:#000000;text-decoration-line:none;text-decoration-style:solid;text-indent:0;text-orientation:mixed;text-transform:none;white-space:normal"/>
   <path d="m572 622v-100h29.9c10.1 0 18.6 1.5 25.7 4.49s12.7 6.98 17 12c4.35 4.99 7.52 10.6 9.52 16.7s2.99 12.4 2.99 18.6c0 7.43-1.36 14.1-4.08 20.1-2.63 5.89-6.25 11-10.9 15.2-4.62 4.17-9.97 7.39-16 9.65-6.07 2.18-12.5 3.26-19.3 3.26zm19.7-19h11.7c4.99 0 9.52-0.634 13.6-1.9 4.08-1.36 7.57-3.31 10.5-5.85 2.99-2.54 5.26-5.71 6.8-9.52 1.63-3.9 2.45-8.34 2.45-13.3 0-6.53-1.09-11.8-3.26-15.9-2.08-4.17-4.71-7.39-7.89-9.65-3.08-2.27-6.25-3.81-9.52-4.62-3.26-0.906-6.03-1.36-8.29-1.36h-16z" color="#000000" color-rendering="auto" dominant-baseline="auto" fill="#37806a" image-rendering="auto" solid-color="#000000" stop-color="#000000" style="font-feature-settings:normal;font-variant-alternates:normal;font-variant-caps:normal;font-variant-east-asian:normal;font-variant-ligatures:normal;font-variant-numeric:normal;font-variant-position:normal;font-variation-settings:normal;inline-size:0;isolation:auto;mix-blend-mode:normal;shape-margin:0;shape-padding:0;text-decoration-color:#000000;text-decoration-line:none;text-decoration-style:solid;text-indent:0;text-orientation:mixed;text-transform:none;white-space:normal"/>
   <path d="m572 521v101h35.3c6.85 0 13.3-1.1 19.5-3.29h4e-3l2e-3 -2e-3c6.13-2.29 11.5-5.54 16.2-9.75l4e-3 -4e-3c4.67-4.31 8.34-9.44 11-15.4l2e-3 -2e-3c2.75-6.05 4.12-12.8 4.12-20.3 0-6.31-1.01-12.6-3.02-18.8-2.01-6.23-5.22-11.9-9.61-16.9l-4e-3 -6e-3c-4.32-5.05-10.1-9.08-17.2-12.1-7.15-3.02-15.8-4.53-25.9-4.53zm1 1h29.4c10 0 18.5 1.49 25.5 4.45 7.01 2.97 12.6 6.91 16.8 11.8l4e-3 4e-3c4.31 4.94 7.44 10.4 9.42 16.5 1.98 6.12 2.97 12.3 2.97 18.5 0 7.37-1.35 14-4.03 19.9l-2e-3 2e-3v2e-3c-2.6 5.83-6.19 10.9-10.8 15.1-4.57 4.12-9.86 7.31-15.9 9.55-6.02 2.15-12.4 3.23-19.1 3.23h-34.3zm18.7 17.9v63.1h12.2c5.03 0 9.61-0.64 13.7-1.93l4e-3 -2e-3h6e-3c4.13-1.38 7.68-3.36 10.6-5.95h2e-3c3.05-2.59 5.36-5.83 6.93-9.7 1.66-3.97 2.49-8.48 2.49-13.5 0-6.58-1.09-12-3.32-16.1l-2e-3 -4e-3c-2.11-4.22-4.79-7.51-8.04-9.83l-6e-3 -4e-3c-3.12-2.3-6.35-3.87-9.69-4.7-3.29-0.912-6.09-1.38-8.42-1.38zm1 1h15.5c2.2 0 4.93 0.443 8.16 1.34h6e-3l6e-3 2e-3c3.19 0.798 6.31 2.31 9.34 4.54l2e-3 2e-3 4e-3 2e-3c3.1 2.21 5.67 5.36 7.73 9.47l2e-3 6e-3 4e-3 6e-3c2.12 3.98 3.21 9.2 3.21 15.7 0 4.93-0.808 9.3-2.41 13.1v2e-3l-2e-3 4e-3c-1.51 3.74-3.73 6.84-6.66 9.32l-6e-3 6e-3c-2.84 2.49-6.27 4.4-10.3 5.74-5.9e-4 1.8e-4 -1e-3 -1.8e-4 -2e-3 0-4.02 1.25-8.5 1.88-13.4 1.88h-11.2z" color="#000000" color-rendering="auto" dominant-baseline="auto" image-rendering="auto" solid-color="#000000" stop-color="#000000" style="font-feature-settings:normal;font-variant-alternates:normal;font-variant-caps:normal;font-variant-east-asian:normal;font-variant-ligatures:normal;font-variant-numeric:normal;font-variant-position:normal;font-variation-settings:normal;inline-size:0;isolation:auto;mix-blend-mode:normal;shape-margin:0;shape-padding:0;text-decoration-color:#000000;text-decoration-line:none;text-decoration-style:solid;text-indent:0;text-orientation:mixed;text-transform:none;white-space:normal"/>
   <path d="m677 522h68.3v19h-48.5v21.3h43v19h-43v21.6h50.4v19h-70.2z" color="#000000" color-rendering="auto" dominant-baseline="auto" fill="#37806a" image-rendering="auto" solid-color="#000000" stop-color="#000000" style="font-feature-settings:normal;font-variant-alternates:normal;font-variant-caps:normal;font-variant-east-asian:normal;font-variant-ligatures:normal;font-variant-numeric:normal;font-variant-position:normal;font-variation-settings:normal;inline-size:0;isolation:auto;mix-blend-mode:normal;shape-margin:0;shape-padding:0;text-decoration-color:#000000;text-decoration-line:none;text-decoration-style:solid;text-indent:0;text-orientation:mixed;text-transform:none;white-space:normal"/>
   <path d="m677 521v101h71.2v-20h-50.4v-20.6h43v-20h-43v-20.3h48.5v-20zm1 1h67.3v18h-48.5v22.3h43v18h-43v22.6h50.4v18h-69.2z" color="#000000" color-rendering="auto" dominant-baseline="auto" image-rendering="auto" solid-color="#000000" stop-color="#000000" style="font-feature-settings:normal;font-variant-alternates:normal;font-variant-caps:normal;font-variant-east-asian:normal;font-variant-ligatures:normal;font-variant-numeric:normal;font-variant-position:normal;font-variation-settings:normal;inline-size:0;isolation:auto;mix-blend-mode:normal;shape-margin:0;shape-padding:0;text-decoration-color:#000000;text-decoration-line:none;text-decoration-style:solid;text-indent:0;text-orientation:mixed;text-transform:none;white-space:normal"/>
   <path d="m798 522c6.25 0 11.8 0.816 16.7 2.45 4.89 1.54 8.97 3.81 12.2 6.8 3.35 2.9 5.89 6.44 7.61 10.6 1.72 4.08 2.58 8.7 2.58 13.9 0 4.08-0.634 8.16-1.9 12.2-1.18 4.08-3.17 7.8-5.98 11.1-2.72 3.35-6.34 6.07-10.9 8.16-4.53 1.99-10.2 2.99-16.9 2.99h-14.1v31.8h-19.7v-100zm3.4 49.2c2.99 0 5.48-0.499 7.48-1.5s3.53-2.27 4.62-3.81c1.18-1.54 1.99-3.13 2.45-4.76 0.544-1.72 0.816-3.31 0.816-4.76 0-1.09-0.181-2.45-0.544-4.08-0.272-1.72-0.906-3.44-1.9-5.17s-2.54-3.17-4.62-4.35c-1.99-1.18-4.71-1.77-8.16-1.77h-14.1v30.2zm18.5 12.2 24.7 38.6h-23l-25.3-38.1z" color="#000000" color-rendering="auto" dominant-baseline="auto" fill="#37806a" image-rendering="auto" solid-color="#000000" stop-color="#000000" style="font-feature-settings:normal;font-variant-alternates:normal;font-variant-caps:normal;font-variant-east-asian:normal;font-variant-ligatures:normal;font-variant-numeric:normal;font-variant-position:normal;font-variation-settings:normal;inline-size:0;isolation:auto;mix-blend-mode:normal;shape-margin:0;shape-padding:0;text-decoration-color:#000000;text-decoration-line:none;text-decoration-style:solid;text-indent:0;text-orientation:mixed;text-transform:none;white-space:normal"/>
   <path d="m767 521v101h20.7v-31.8h12.4l21.1 31.8h24.2l-23.6-36.8c3-1.8 5.68-3.82 7.7-6.32 2.85-3.4 4.88-7.18 6.08-11.3 1.28-4.12 1.93-8.26 1.93-12.4 0-5.22-0.87-9.91-2.62-14.1v-2e-3c-1.75-4.24-4.34-7.84-7.74-10.8-3.32-3.04-7.47-5.34-12.4-6.9-4.95-1.65-10.6-2.47-16.9-2.47zm1 1h29.8c6.21 0 11.7 0.811 16.6 2.42h4e-3l4e-3 2e-3c4.84 1.52 8.85 3.75 12 6.69l4e-3 6e-3 6e-3 4e-3c3.3 2.85 5.78 6.32 7.48 10.4l2e-3 2e-3v2e-3c1.69 4.01 2.54 8.56 2.54 13.7 0 4.03-0.626 8.05-1.88 12.1v6e-3l-2e-3 4e-3c-1.16 4.01-3.12 7.66-5.88 11l-6e-3 6e-3c-1.95 2.41-4.55 4.37-7.47 6.12l-1.25-1.96-24.7 0.57 4.14 6.23h-12.7v31.8h-18.7zm18.7 18v31.2h14.5c3.05 0 5.62-0.507 7.7-1.55 2.05-1.03 3.66-2.35 4.8-3.96 1.2-1.58 2.05-3.21 2.52-4.9v-4e-3c0.555-1.76 0.84-3.39 0.84-4.9 0-1.14-0.189-2.53-0.555-4.17-0.284-1.78-0.941-3.56-1.96-5.32-1.05-1.81-2.66-3.32-4.81-4.53-2.1-1.24-4.91-1.84-8.41-1.84zm1 1h13.6c3.39 0 6.02 0.585 7.9 1.7l8e-3 4e-3c2.02 1.14 3.49 2.53 4.44 4.17 0.971 1.68 1.58 3.34 1.84 4.99l4e-3 0.0156 2e-3 0.0156c0.357 1.61 0.533 2.94 0.533 3.97 0 1.39-0.261 2.92-0.793 4.61l-2e-3 8e-3 -4e-3 8e-3c-0.434 1.56-1.22 3.09-2.36 4.59l-0.012 0.016c-1.03 1.46-2.5 2.68-4.44 3.65-1.9 0.952-4.32 1.44-7.25 1.44h-13.5zm31.7 42.4 0.932 1.46c-0.805 0.45-1.48 0.986-2.36 1.39-5.4e-4 2.4e-4 -1e-3 -2.3e-4 -2e-3 0-4.45 1.96-10 2.95-16.7 2.95h-0.744l-3.5-5.28zm1.47 2.29 22.6 35.3h-21.8l-20.5-30.8h0.0801c6.76 0 12.4-1 17.1-3.03l8e-3 -4e-3c0.918-0.422 1.64-0.99 2.48-1.46z" color="#000000" color-rendering="auto" dominant-baseline="auto" image-rendering="auto" solid-color="#000000" stop-color="#000000" style="font-feature-settings:normal;font-variant-alternates:normal;font-variant-caps:normal;font-variant-east-asian:normal;font-variant-ligatures:normal;font-variant-numeric:normal;font-variant-position:normal;font-variation-settings:normal;inline-size:0;isolation:auto;mix-blend-mode:normal;shape-margin:0;shape-padding:0;text-decoration-color:#000000;text-decoration-line:none;text-decoration-style:solid;text-indent:0;text-orientation:mixed;text-transform:none;white-space:normal"/>
  </g>
 </g>
</svg>
