<svg xmlns="http://www.w3.org/2000/svg" width="846.614" height="623.622" viewBox="0 0 224 165">
  <path d="M22.03 0h78.3c10 0 16 11.1 10.4 19.4l-91.8 138c-5.64 8.47-18.8 4.47-18.9-5.72l-.037-129C-.007 10.58 9.798 0 21.893 0z" fill="#fff"/>
  <circle cx="74.63" cy="63.5" r="33.9" fill="#f7c554"/>
  <g fill="#fefefe" dominant-baseline="auto">
    <path d="M111.89 105.205c2.756 0 4.955.564 6.598 1.693 1.632 1.105 2.451 2.756 2.451 4.982 0 1.632-.408 2.995-1.224 4.108-.792 1.081-1.887 1.897-3.286 2.451-1.37.527-2.942.792-4.717.792l-.829-2.809c2.186 0 4.108.299 5.803.901 1.707.602 3.047 1.465 4.028 2.594.986 1.105 1.476 2.438 1.476 4.002 0 1.442-.264 2.677-.792 3.683-.503.986-1.2 1.789-2.091 2.414-.864.602-1.85 1.044-2.942 1.333a14.65 14.65 0 0 1-3.418.398h-8.825v-26.5zm.612 10.838c1.033 0 1.789-.313 2.271-.935a3.3 3.3 0 0 0 .758-2.125c0-.912-.313-1.598-.935-2.054-.602-.456-1.418-.684-2.451-.684h-2.809v5.804zm.18 10.812c.768 0 1.465-.096 2.091-.289.625-.216 1.116-.541 1.476-.973.36-.456.541-1.02.541-1.693 0-.768-.216-1.346-.649-1.73-.432-.408-.996-.684-1.693-.829a8.74 8.74 0 0 0-2.125-.252h-2.995v5.777z"/>
    <path d="M103.94 105.205v26.765h8.957a14.64 14.64 0 0 0 3.445-.4l.001-.001h.002c1.118-.292 2.117-.742 2.995-1.352h.001a6.68 6.68 0 0 0 2.131-2.462v-.001c.541-1.031.808-2.279.808-3.737 0-1.587-.506-2.968-1.51-4.081l-.001-.001c-.734-.843-1.669-1.534-2.782-2.086.702-.466 1.309-1.015 1.791-1.675h0c.835-1.129 1.251-2.531 1.251-4.187 0-2.242-.84-3.948-2.507-5.088l-.001-.001c-1.662-1.147-3.895-1.717-6.678-1.717zm.265.265h7.658c2.756 0 4.903.562 6.519 1.67h.002c1.601 1.081 2.393 2.677 2.393 4.85 0 1.611-.4 2.942-1.2 4.028h-.001c-.496.678-1.126 1.238-1.866 1.704l-1.01-.416c-1.699-.607-3.657-.909-5.857-.909h-.177l.906 3.074h.099c1.791 0 3.392-.268 4.77-.803h.002a8.31 8.31 0 0 0 1.283-.652c1.161.549 2.115 1.243 2.862 2.094l.001.001c.965 1.081 1.444 2.377 1.444 3.922 0 1.426-.261 2.626-.776 3.604h-.001v.001c-.496.967-1.177 1.754-2.048 2.366-.851.591-1.821 1.028-2.915 1.314a14.57 14.57 0 0 1-3.393.392h-8.692zm4.955 4.77v6.068h3.313c1.057 0 1.866-.329 2.374-.986a3.43 3.43 0 0 0 .784-2.207c0-.941-.331-1.677-.988-2.16l-.001-.001c-.631-.477-1.479-.71-2.528-.71zm.265.265h2.677c1.012 0 1.799.223 2.369.657l.002.002c.591.432.882 1.065.882 1.948 0 .766-.24 1.439-.726 2.043l-.002.002c-.453.588-1.158.885-2.165.885h-3.047zm1.598 6.174c2.096.017 3.948.302 5.565.88h.001c.291.103.556.223.827.342a8.42 8.42 0 0 1-1.084.527c-1.325.511-2.862.766-4.585.776zm-1.863 4.399v6.042h3.472c.779 0 1.489-.097 2.128-.294l.003-.001h.002c.644-.223 1.158-.562 1.534-1.012l.001-.001.001-.002c.379-.482.57-1.079.57-1.775 0-.792-.228-1.415-.692-1.829-.451-.427-1.039-.713-1.752-.859a8.85 8.85 0 0 0-2.154-.256zm.265.265h2.862a8.61 8.61 0 0 1 2.093.249l.005.001c.678.14 1.216.405 1.63.795l.001.002.002.002c.4.355.604.888.604 1.63 0 .649-.171 1.179-.511 1.609-.342.411-.811.721-1.415.93-.609.187-1.291.281-2.048.281h-3.207zm14.125 10.362l11.952-27.56h.289l11.952 27.56H141.7l-7.632-19.372 3.79-2.594-9.143 21.969zm8.189-9.593h7.95l1.836 4.399h-11.422z"/>
    <path d="M135.475 104.145l-12.084 27.825h5.432l2.16-5.194h8.613l2.043 5.194h6.333l-12.084-27.825zm.174.265h.114l2.26 5.22-4.054 2.782 1.333 3.392-2.637 6.333h-.967l-.032.086-1.688 4.585h.747l-2.051 4.929h-4.849zm2.438 5.353l9.513 21.942h-5.75l-1.94-4.929h1.868l-1.948-4.664h-1.757l-2.496-6.334zm-.477.458l-2.17 5.221-1.155-2.942zm-2.178 5.91l2.356 5.989h-4.85zm-3.551 6.254h.673l-1.72 4.134h-.477zm.959 0h5.062l1.627 4.134h-8.4zm5.353 0h1.476l1.728 4.134h-1.574zm31.467 7.2c-.289.24-.829.564-1.622.973-.768.408-1.717.768-2.836 1.081s-2.377.456-3.737.432c-2.091-.048-3.975-.421-5.618-1.116-1.632-.721-3.021-1.693-4.187-2.915a12.94 12.94 0 0 1-2.594-4.213c-.602-1.585-.901-3.286-.901-5.088 0-2.017.299-3.869.901-5.538.625-1.68 1.5-3.127 2.631-4.372 1.153-1.224 2.523-2.173 4.107-2.835s3.339-1.01 5.274-1.01c1.778 0 3.339.24 4.717.721s2.486.996 3.339 1.55l-2.054 4.929c-.602-.456-1.404-.925-2.414-1.404-.986-.504-2.125-.758-3.418-.758a6.85 6.85 0 0 0-2.915.649 7.59 7.59 0 0 0-2.451 1.765c-.697.768-1.248 1.669-1.656 2.703-.408 1.01-.612 2.115-.612 3.313 0 1.272.18 2.438.541 3.498.384 1.057.925 1.969 1.622 2.73.697.745 1.526 1.322 2.486 1.73.986.408 2.091.612 3.313.612 1.418 0 2.631-.228 3.631-.684s1.778-.935 2.306-1.442z"/>
    <path d="M161.18 104.94c-1.937 0-3.71.339-5.3 1.02-1.601.678-2.994 1.638-4.161 2.888l-.001.001c-1.142 1.238-2.027 2.703-2.65 4.399h-.001l-.001.001c-.607 1.696-.909 3.551-.909 5.591 0 1.815.302 3.525.909 5.115a13.18 13.18 0 0 0 2.621 4.267l.001.001c1.166 1.238 2.573 2.221 4.213 2.942l.002.001c1.675.705 3.577 1.079 5.671 1.126h.001c1.381.024 2.642-.121 3.789-.437 1.134-.313 2.091-.676 2.862-1.092.795-.411 1.341-.734 1.646-.988l.078-.065-2.282-4.956-.134.128c-.511.49-1.269.965-2.268 1.418-.988.448-2.181.673-3.578.673-1.211 0-2.295-.201-3.259-.602l-.001-.001a7.11 7.11 0 0 1-2.438-1.696l-.002-.002c-.684-.755-1.214-1.651-1.593-2.703-.355-1.043-.533-2.193-.533-3.446 0-1.187.201-2.274.602-3.26l.001-.001c.403-1.018.946-1.905 1.63-2.65l.001-.001c.711-.756 1.511-1.333 2.407-1.734h.001l.001-.001a6.76 6.76 0 0 1 2.862-.636c1.28 0 2.398.249 3.365.742l.004.002c1.004.477 1.802.943 2.39 1.391l.137.104 2.162-5.194-.094-.06c-.877-.559-2.003-1.079-3.365-1.563-1.386-.488-2.968-.729-4.77-.729zm0 .265c1.765 0 3.313.239 4.664.713 1.317.461 2.385.959 3.233 1.484l-1.948 4.691c-.594-.435-1.346-.875-2.292-1.325h-.002c-1.004-.514-2.168-.771-3.472-.771a6.98 6.98 0 0 0-2.968.66 7.72 7.72 0 0 0-2.491 1.797l-.002.002a9.03 9.03 0 0 0-1.683 2.73c-.416 1.026-.623 2.147-.623 3.365 0 1.285.182 2.465.546 3.525l.001.001v.002c.39 1.071.938 2.001 1.648 2.783v.001l.001.001a7.35 7.35 0 0 0 2.531 1.76h.002c1.002.416 2.125.623 3.366.623 1.431 0 2.677-.231 3.683-.697.943-.427 1.662-.88 2.2-1.357l2.043 4.425c-.284.224-.766.522-1.513.906l-.001.001h-.001c-.758.403-1.699.761-2.809 1.071-1.116.307-2.351.45-3.71.427-2.075-.048-3.922-.416-5.565-1.105l-.002-.001c-1.617-.713-2.994-1.675-4.134-2.888h-.001c-1.119-1.214-1.972-2.603-2.568-4.161-.594-1.569-.893-3.233-.893-5.035 0-2.003.299-3.842.893-5.512l.001-.001c.62-1.668 1.487-3.102 2.602-4.321a11.83 11.83 0 0 1 4.054-2.809c1.569-.665 3.313-.999 5.221-.999zm19.08 9.54l-.144 1.333.792-1.01 8.639-9.752h6.784l-10.944 11.898 10.998 14.628h-6.625l-8.189-11.315-1.296 1.296v10.017h-5.3v-26.5h5.3z"/>
    <path d="M174.695 105.205v26.765h5.565v-10.096l1.147-1.147 8.136 11.236h6.969l-11.077-14.761 11.077-12.031h-7.129l-8.692 9.805-.509.649.095-.882v-9.567zm.265.265h5.035v9.302l-.193 1.783 1.076-1.37 8.612-9.725h6.413l-10.812 11.74 10.892 14.496h-6.307l-8.242-11.395-1.447 1.447v9.938h-5.035zm22.26 26.235l11.952-27.56h.289l11.952 27.56h-6.042l-7.632-19.372 3.789-2.594-9.142 21.969zm8.189-9.593h7.95l1.836 4.399h-11.422z"/>
    <path d="M209.145 104.145l-12.084 27.825h5.433l2.16-5.194h8.612l2.043 5.194h6.333l-12.084-27.825zm.174.265h.114l2.26 5.22-4.054 2.782 1.333 3.392-2.637 6.333h-.967l-.032.086-1.688 4.585h.747l-2.051 4.929h-4.85zm2.438 5.353l9.513 21.942h-5.751l-1.94-4.929h1.868l-1.948-4.664h-1.757l-2.496-6.334zm-.477.458l-2.17 5.221-1.155-2.942zm-2.178 5.91l2.356 5.989h-4.849zm-3.551 6.254h.673l-1.72 4.134h-.477zm.959 0h5.061l1.627 4.134h-8.401zm5.353 0h1.476l1.728 4.134h-1.574zM55.18 138.33c2.756 0 4.955.564 6.599 1.693 1.632 1.105 2.451 2.756 2.451 4.982 0 1.632-.408 2.994-1.224 4.107-.792 1.081-1.887 1.897-3.286 2.451-1.37.527-2.941.792-4.717.792l-.829-2.809c2.186 0 4.108.299 5.804.901 1.707.602 3.047 1.465 4.028 2.594.986 1.105 1.476 2.438 1.476 4.002 0 1.442-.264 2.677-.792 3.683-.504.986-1.2 1.789-2.091 2.414-.864.602-1.85 1.044-2.941 1.333a14.65 14.65 0 0 1-3.419.398h-8.824v-26.5zm.612 10.838c1.034 0 1.789-.313 2.271-.935a3.3 3.3 0 0 0 .758-2.125c0-.912-.313-1.598-.935-2.054-.602-.456-1.418-.684-2.451-.684h-2.809v5.803zm.18 10.812c.769 0 1.465-.096 2.091-.289.625-.216 1.116-.541 1.476-.973.36-.456.541-1.02.541-1.693 0-.768-.216-1.346-.649-1.73-.432-.408-.996-.684-1.693-.829a8.74 8.74 0 0 0-2.125-.252h-2.995v5.777z"/>
    <path d="M47.23 138.065v26.765h8.957a14.67 14.67 0 0 0 3.445-.4h.002l.001-.001c1.118-.292 2.117-.742 2.995-1.351v-.001h.001c.906-.636 1.616-1.458 2.131-2.462h0c.541-1.031.808-2.279.808-3.737 0-1.587-.506-2.968-1.51-4.081l-.001-.001c-.734-.843-1.67-1.534-2.783-2.086.702-.466 1.309-1.018 1.791-1.675v-.001c.835-1.129 1.251-2.531 1.251-4.187 0-2.242-.84-3.948-2.507-5.088h-.001c-1.662-1.147-3.895-1.717-6.678-1.717zm.265.265h7.659c2.756 0 4.902.562 6.519 1.669l.001.001c1.601 1.081 2.393 2.677 2.393 4.849 0 1.611-.4 2.942-1.198 4.028h-.001c-.496.678-1.126 1.238-1.866 1.704l-1.01-.416c-1.699-.607-3.657-.909-5.856-.909h-.178l.906 3.074h.099c1.791 0 3.392-.268 4.77-.803h.002c.464-.184.885-.408 1.283-.652 1.161.549 2.115 1.243 2.862 2.094l.001.001c.965 1.081 1.444 2.377 1.444 3.922 0 1.426-.262 2.629-.779 3.604v.001h-.001c-.496.967-1.177 1.754-2.048 2.366-.851.591-1.821 1.028-2.915 1.314a14.57 14.57 0 0 1-3.393.392h-8.692zm4.956 4.77v6.069h3.313c1.057 0 1.866-.329 2.374-.986a3.43 3.43 0 0 0 .784-2.207c0-.941-.331-1.677-.988-2.16l-.001-.001c-.631-.477-1.479-.71-2.528-.71zm.265.265h2.677c1.012 0 1.799.224 2.369.657l.002.002c.591.432.882 1.065.882 1.948 0 .766-.24 1.439-.726 2.043l-.001.002-.001.001c-.453.588-1.158.885-2.165.885h-3.047zm1.598 6.174c2.096.017 3.949.302 5.565.88l.001.001c.291.103.556.223.827.342a8.42 8.42 0 0 1-1.084.527c-1.325.511-2.862.766-4.585.776zm-1.863 4.399v6.042h3.471c.779 0 1.489-.097 2.128-.294h.002l.002-.001c.644-.223 1.158-.559 1.534-1.012l.003-.003c.379-.482.57-1.079.57-1.776 0-.792-.228-1.412-.692-1.826-.453-.427-1.041-.713-1.754-.861h-.001a8.86 8.86 0 0 0-2.152-.255zm.265.265h2.862a8.61 8.61 0 0 1 2.093.248l.005.001c.678.14 1.216.405 1.63.795l.002.002.002.001c.4.355.604.888.604 1.63 0 .649-.171 1.179-.511 1.609-.342.411-.811.721-1.415.93-.61.187-1.293.281-2.048.281h-3.206zm16.244-2.623a13.14 13.14 0 0 1 1.044-5.194 13.64 13.64 0 0 1 2.888-4.319 14.06 14.06 0 0 1 4.32-2.994c1.617-.723 3.392-1.081 5.273-1.081 1.85 0 3.604.36 5.221 1.081s3.074 1.717 4.32 2.994c1.272 1.248 2.258 2.703 2.942 4.319.721 1.632 1.081 3.366 1.081 5.194 0 1.874-.36 3.631-1.081 5.273a13.43 13.43 0 0 1-2.942 4.32c-1.248 1.224-2.703 2.186-4.32 2.888s-3.365 1.044-5.221 1.044c-1.874 0-3.63-.347-5.273-1.044a13.64 13.64 0 0 1-4.32-2.888c-1.224-1.248-2.186-2.703-2.888-4.32s-1.044-3.392-1.044-5.273zm5.406 0a8.92 8.92 0 0 0 .612 3.313c.432 1.01 1.02 1.911 1.765 2.703a8.54 8.54 0 0 0 2.631 1.802c1.01.432 2.101.649 3.286.649 1.129 0 2.173-.216 3.127-.649.986-.432 1.836-1.034 2.557-1.802a8.97 8.97 0 0 0 1.693-2.703 8.94 8.94 0 0 0 .612-3.312c0-1.2-.216-2.319-.649-3.339a8.13 8.13 0 0 0-1.73-2.703 7.5 7.5 0 0 0-2.557-1.836c-.983-.432-2.054-.649-3.207-.649s-2.221.216-3.207.649a7.86 7.86 0 0 0-2.594 1.836c-.745.768-1.322 1.669-1.73 2.703s-.612 2.149-.612 3.339z"/>
    <path d="M82.475 137.8a13.14 13.14 0 0 0-5.327 1.092 14.05 14.05 0 0 0-4.373 3.021c-1.238 1.261-2.207 2.729-2.915 4.373-.702 1.651-1.055 3.392-1.055 5.247 0 1.889.352 3.657 1.055 5.3a14.1 14.1 0 0 0 2.915 4.372l.002.002c1.261 1.238 2.73 2.207 4.373 2.915 1.651.705 3.418 1.055 5.3 1.055 1.866 0 3.63-.352 5.273-1.055a14.1 14.1 0 0 0 4.373-2.915 13.78 13.78 0 0 0 2.995-4.373v-.002c.729-1.651 1.092-3.418 1.092-5.3a12.93 12.93 0 0 0-1.092-5.247v-.002c-.702-1.648-1.699-3.101-2.968-4.373a14.08 14.08 0 0 0-4.372-3.021c-1.651-.729-3.418-1.092-5.273-1.092zm0 .265c1.831 0 3.551.355 5.168 1.071s3.047 1.701 4.293 2.968v.001l.001.001c1.261 1.238 2.237 2.65 2.915 4.293h.001v.001a12.63 12.63 0 0 1 1.071 5.141c0 1.858-.358 3.578-1.071 5.194v.001l-.001.001a13.46 13.46 0 0 1-2.915 4.293c-1.238 1.214-2.677 2.165-4.293 2.862a13.04 13.04 0 0 1-5.168 1.034c-1.858 0-3.604-.345-5.221-1.034a13.84 13.84 0 0 1-4.293-2.862c-1.214-1.238-2.162-2.65-2.862-4.293-.689-1.617-1.033-3.339-1.033-5.221 0-1.81.344-3.524 1.033-5.141a13.81 13.81 0 0 1 2.862-4.293c1.238-1.261 2.677-2.247 4.293-2.968 1.617-.713 3.339-1.071 5.194-1.071zm.036 4.77c-1.169 0-2.258.219-3.26.66a8.05 8.05 0 0 0-2.637 1.866c-.758.782-1.344 1.696-1.757 2.756-.416 1.049-.623 2.184-.623 3.392 0 1.192.207 2.316.623 3.366l.002.004a9.13 9.13 0 0 0 1.791 2.73l.003.003c.779.779 1.672 1.391 2.677 1.828h.001c1.026.44 2.139.66 3.339.66 1.145 0 2.21-.219 3.18-.66 1.002-.44 1.868-1.049 2.602-1.831l.001-.001v-.001a9.21 9.21 0 0 0 1.717-2.729v-.001h.001c.413-1.049.623-2.17.623-3.366 0-1.216-.219-2.351-.66-3.392a8.08 8.08 0 0 0-1.754-2.729l-.001-.001c-.731-.806-1.601-1.431-2.602-1.868s-2.091-.66-3.26-.66zm0 .265a7.77 7.77 0 0 1 3.153.636 7.33 7.33 0 0 1 2.512 1.805l.003.003c.731.755 1.298 1.64 1.701 2.65l.001.002c.424 1.015.639 2.115.639 3.313 0 1.161-.201 2.25-.604 3.259-.403.994-.959 1.882-1.667 2.65-.708.755-1.545 1.344-2.512 1.77h-.001l-.001.001c-.943.424-1.969.636-3.074.636-1.161 0-2.234-.213-3.233-.636l-.001-.001a8.44 8.44 0 0 1-2.586-1.77 9.18 9.18 0 0 1-1.738-2.65v-.002c-.403-1.018-.602-2.104-.602-3.26 0-1.187.201-2.284.604-3.312.403-1.018.97-1.903 1.701-2.65l.002-.002c.734-.779 1.582-1.381 2.549-1.807s2.017-.636 3.153-.636zm23.549 11.925c0 .84.252 1.646.758 2.414s1.166 1.394 1.982 1.874a5.42 5.42 0 0 0 2.73.721c1.081 0 2.04-.24 2.888-.721.84-.48 1.5-1.105 1.982-1.874.504-.768.758-1.574.758-2.414v-16.721h5.141v16.827c0 1.945-.48 3.684-1.442 5.194-.962 1.489-2.258 2.677-3.895 3.524-1.632.84-3.445 1.261-5.433 1.261-1.969 0-3.763-.421-5.406-1.261-1.609-.864-2.888-2.041-3.843-3.524-.962-1.513-1.442-3.233-1.442-5.194v-16.827h5.22z"/>
    <path d="M100.76 138.065v16.96c0 1.966.488 3.737 1.463 5.247h.001v.001c.973 1.508 2.276 2.703 3.895 3.577l.002.001c1.654.851 3.472 1.275 5.459 1.275 2.011 0 3.843-.424 5.512-1.275h.002c1.651-.874 2.968-2.067 3.948-3.577h.001c.975-1.534 1.463-3.286 1.463-5.247v-16.96H117.1v16.854c0 .814-.243 1.59-.734 2.34l-.001.001v.002c-.469.75-1.11 1.357-1.934 1.828s-1.754.702-2.809.702a5.33 5.33 0 0 1-2.677-.702h-.001c-.8-.472-1.444-1.081-1.937-1.831s-.734-1.526-.734-2.34v-16.854zm.265.265h4.956v16.589c0 .867.261 1.699.779 2.486s1.192 1.426 2.025 1.916h.001l.001.001c.861.49 1.797.739 2.809.739 1.1 0 2.086-.246 2.942-.739s1.537-1.132 2.027-1.919c.517-.787.776-1.619.776-2.486v-16.589h4.876v16.695c0 1.924-.474 3.631-1.42 5.114-.949 1.471-2.226 2.629-3.843 3.498-1.614.829-3.392 1.245-5.379 1.245-1.95 0-3.737-.416-5.353-1.245l-.001-.001c-1.59-.856-2.862-2.014-3.816-3.498h-.001c-.946-1.492-1.42-3.207-1.42-5.114zm27.56 0h5.22v21.465h12.455v5.035h-17.702z"/>
    <path d="M128.585 138.065v26.765h17.967v-5.3h-12.455v-21.465zm.265.265h4.955v21.465h12.455v4.77h-17.437zm22.79 26.5v-26.5h7.923c2.677 0 4.929.398 6.811 1.19s3.365 1.85 4.505 3.18c1.153 1.322 1.993 2.809 2.523 4.426a15.85 15.85 0 0 1 .792 4.929c0 1.969-.36 3.737-1.081 5.327-.697 1.561-1.656 2.915-2.888 4.028-1.224 1.105-2.642 1.958-4.24 2.557-1.609.578-3.312.864-5.114.864zm5.221-5.035h3.101c1.322 0 2.523-.168 3.604-.504 1.081-.36 2.006-.877 2.782-1.55.792-.673 1.394-1.513 1.802-2.523.432-1.034.649-2.21.649-3.524 0-1.73-.289-3.127-.864-4.214-.551-1.105-1.248-1.958-2.091-2.557-.816-.602-1.656-1.01-2.523-1.224-.864-.24-1.598-.36-2.197-.36h-4.24z"/>
    <path d="M151.64 138.065v26.765h9.354c1.815 0 3.524-.292 5.168-.872h.002a13.38 13.38 0 0 0 4.293-2.584l.001-.001a12.32 12.32 0 0 0 2.915-4.081v-.001c.729-1.603 1.092-3.392 1.092-5.38 0-1.672-.268-3.339-.8-4.982a12.59 12.59 0 0 0-2.547-4.478l-.001-.002c-1.145-1.338-2.677-2.406-4.558-3.207-1.895-.8-4.187-1.2-6.863-1.2zm.265.265h7.791c2.65 0 4.903.395 6.757 1.179s3.339 1.831 4.452 3.127l.001.001c1.142 1.309 1.972 2.756 2.496 4.373.525 1.622.787 3.259.787 4.903 0 1.953-.358 3.71-1.068 5.273h-.001v.001a11.92 11.92 0 0 1-2.862 4.002c-1.211 1.092-2.613 1.937-4.214 2.531-1.595.57-3.286.856-5.061.856h-9.089zm4.956 4.743v16.722h3.233c1.333 0 2.547-.17 3.631-.511l.001-.001h.002c1.094-.366 2.035-.89 2.809-1.577h.001c.808-.686 1.42-1.545 1.836-2.571.44-1.052.66-2.247.66-3.577 0-1.744-.289-3.18-.88-4.267l-.001-.001c-.559-1.118-1.269-1.99-2.131-2.605l-.002-.001c-.827-.609-1.683-1.026-2.568-1.246-.872-.242-1.614-.366-2.231-.366zm.265.265h4.108c.583 0 1.306.117 2.162.355h.004c.845.211 1.672.612 2.475 1.203v.001h.001c.822.586 1.503 1.42 2.048 2.51v.002l.001.002c.562 1.055.851 2.438.851 4.161 0 1.306-.214 2.464-.639 3.472v.002c-.4.991-.988 1.813-1.765 2.47l-.002.002c-.753.66-1.662 1.166-2.729 1.521-1.066.331-2.253.498-3.552.498h-2.968zm22.339-5.008h18.1v5.035h-12.853v5.644h11.395v5.035h-11.395v5.724h13.356v5.035h-18.603z"/>
    <path d="M179.465 138.065v26.765h18.868v-5.3h-13.356v-5.459h11.395v-5.3h-11.395v-5.38h12.852v-5.3zm.265.265h17.834v4.77h-12.853v5.91h11.395v4.77h-11.395v5.989h13.356v4.77H179.73zm31.8 0c1.656 0 3.127.216 4.426.649 1.296.408 2.377 1.01 3.233 1.802.888.768 1.561 1.707 2.017 2.809.456 1.081.684 2.305.684 3.683a10.76 10.76 0 0 1-.504 3.233 7.87 7.87 0 0 1-1.585 2.942c-.721.888-1.68 1.609-2.888 2.162-1.2.527-2.703.792-4.478.792h-3.737v8.427h-5.221v-26.5zm.901 13.038c.792 0 1.452-.132 1.982-.398s.935-.602 1.224-1.01c.313-.408.527-.829.649-1.261.144-.456.216-.877.216-1.261 0-.289-.048-.649-.144-1.081-.072-.456-.24-.912-.504-1.37s-.673-.84-1.224-1.153c-.527-.313-1.248-.469-2.162-.469h-3.737v8.003zm4.903 3.233l6.546 10.229h-6.095l-6.704-10.097z"/>
    <path d="M203.315 138.065v26.765h5.486v-8.427h3.286l5.591 8.427h6.413l-6.254-9.752c.795-.477 1.505-1.012 2.041-1.675.755-.901 1.293-1.903 1.611-2.994a11.04 11.04 0 0 0 .511-3.286c0-1.383-.231-2.626-.694-3.737h0c-.464-1.124-1.15-2.078-2.051-2.862-.88-.806-1.98-1.415-3.286-1.828-1.312-.437-2.809-.655-4.478-.655zm.265.265h7.897c1.646 0 3.101.215 4.399.641h.001l.001.001c1.283.403 2.345.994 3.18 1.773l.001.002.002.001c.874.755 1.532 1.675 1.982 2.756l.001.001c.448 1.063.673 2.268.673 3.631 0 1.068-.166 2.133-.498 3.207v.003c-.307 1.063-.827 2.03-1.558 2.915l-.002.002c-.517.639-1.206 1.158-1.98 1.622l-.331-.519-6.546.151 1.097 1.651h-3.365v8.427h-4.956zm4.956 4.77v8.268h3.843c.808 0 1.489-.134 2.041-.411.543-.273.97-.623 1.272-1.049.318-.419.543-.851.668-1.298v-.001c.147-.466.223-.898.223-1.298 0-.302-.05-.67-.147-1.105-.075-.472-.249-.943-.519-1.41-.278-.48-.705-.88-1.275-1.2-.556-.329-1.301-.488-2.229-.488zm.265.265h3.604c.898 0 1.595.155 2.093.451l.002.001c.535.302.925.67 1.177 1.105a3.84 3.84 0 0 1 .488 1.322l.002.008a5.04 5.04 0 0 1 .141 1.052c0 .368-.069.774-.21 1.222l-.002.004c-.115.413-.323.819-.625 1.216l-.003.004c-.273.387-.662.71-1.177.967-.504.252-1.145.382-1.921.382h-3.577zm8.401 11.236l.247.387c-.213.119-.392.261-.625.368-1.18.519-2.651.782-4.426.782h-.197l-.927-1.399zm.39.607l5.989 9.355h-5.777l-5.433-8.162h.021c1.791 0 3.286-.265 4.532-.803l.002-.001c.243-.112.435-.262.657-.387z"/>
  </g>
</svg>