<?xml version="1.0" encoding="UTF-8"?>
<svg width="70.4mm" height="181mm" version="1.1" viewBox="0 0 70.4 181" xmlns="http://www.w3.org/2000/svg" xmlns:cc="http://creativecommons.org/ns#" xmlns:dc="http://purl.org/dc/elements/1.1/" xmlns:rdf="http://www.w3.org/1999/02/22-rdf-syntax-ns#">
 <metadata>
  <rdf:RDF>
   <cc:Work rdf:about="">
    <dc:format>image/svg+xml</dc:format>
    <dc:type rdf:resource="http://purl.org/dc/dcmitype/StillImage"/>
    <dc:title/>
   </cc:Work>
  </rdf:RDF>
 </metadata>
 <g transform="translate(-68.1 -48.6)">
  <g stroke="#fff" stroke-width="2.27">
   <path transform="scale(.265)" d="m259 310-1.9e-4 -126 45.6 0.208c25.1 0.114 84.3 0.413 132 0.664l86 0.456-39.5 120c-21.7 66.1-39.5 120-39.6 120-0.062 0.0942-38.9 2.1-86.3 4.45-47.4 2.35-88.8 4.47-92 4.69l-5.81 0.411z" fill="#f5f5f5"/>
   <path transform="scale(.265)" d="m336 522-77.2-28.7-0.01-28-0.01-28h2.6c1.43 0 41.5-1.95 89.1-4.33 47.6-2.38 87.7-4.25 89.2-4.15l2.67 0.186-13.9 60.9c-7.66 33.5-14.2 60.9-14.6 60.9-0.379-0.0256-35.4-12.9-77.8-28.7z" fill="#e6e5e6"/>
   <path transform="scale(.265)" d="m259 568c0-40 0.224-72.6 0.498-72.4 0.274 0.168 22 8.28 48.3 18s48.1 18 48.4 18.3c0.314 0.296-13.4 23.2-30.4 50.9s-31.1 50.4-31.1 50.5c-0.232 0.263-33.6 7.49-34.6 7.49-0.828 0-0.957-9.83-0.957-72.7z" fill="#dededd"/>
   <path transform="scale(.265)" d="m297 632c0-0.413 60.1-98.4 61-99.4 0.332-0.381 54.8 19.4 55.5 20.2 0.105 0.123-3.28 13-7.52 28.7-4.96 18.3-8.07 28.7-8.71 29-0.548 0.296-22.8 5.2-49.5 10.9s-49 10.5-49.6 10.7c-0.639 0.179-1.16 0.13-1.16-0.11z" fill="#c2c2c2"/>
   <path transform="scale(.265)" d="m313 714c-29.6-5.21-53.8-9.49-53.9-9.52-0.0913-0.0235-0.166-14.1-0.166-31.2v-31.2l3.48-0.726c1.92-0.399 33.1-7.12 69.2-14.9 36.1-7.81 65.8-14.1 66-13.9 0.34 0.34-29.8 110-30.4 111-0.241 0.215-24.6-3.87-54.2-9.08z" fill="#a1a1a1"/>
   <path transform="scale(.265)" d="m259 785c-0.0171-43 0.193-78.2 0.467-78.2 0.959 0.0125 107 18.5 107 18.7 0.116 0.143-98.9 127-106 136l-1.6 1.99z" fill="#d4d4d4"/>
   <path transform="scale(.265)" d="m266 857c0-0.129 23.1-29.9 51.3-66.1l51.3-65.8 13.2-48c7.26-26.4 17.6-64.4 23.1-84.4 5.43-20.1 9.96-36.6 10.1-36.7s6.22 22.4 13.6 50.1l13.4 50.3-8.87 34.1c-6.34 24.4-9.23 34.4-10.1 35.3-2.61 2.46-156 131-157 131-0.184 0-0.335-0.106-0.335-0.235z" fill="#818080"/>
   <path transform="scale(.265)" d="m417 545c0.212-0.913 6.25-27.3 13.4-58.7l13-57.1 38-116c20.9-63.6 38-115 38.1-115 0.0865 0.248-8.17 54.4-18.4 120l-18.5 120-32.7 53.8c-18 29.6-32.8 53.9-33 54.1s-0.17-0.415 0.0416-1.33z" fill="#828181"/>
   <path transform="scale(.265)" d="m429 603c-7.36-27.5-13.3-50.1-13.2-50.2 0.62-0.62 56.5-15.2 56.7-14.7 0.137 0.341-26.4 101-30 114-0.0889 0.318-6.18-21.9-13.5-49.4z" fill="#999998"/>
   <path transform="scale(.265)" d="m417 551c0-0.238 14.6-24.4 32.4-53.7 23.8-39.2 32.4-52.8 32.5-51.6 0.3 2.83-8.23 89.6-8.86 90.2-0.332 0.305-12.7 3.77-27.5 7.69-14.8 3.92-27.3 7.28-27.7 7.46-0.458 0.176-0.832 0.124-0.832-0.114z" fill="#999998"/>
   <path transform="scale(.265)" d="m439 638c-10.7-39.4-22.7-84.9-22.5-85.2 0.872-0.676 54.9-14.5 55.2-14.1 0.284 0.284-7.65 31.4-17 66.5-1.82 6.87-3.15 12.7-2.96 13.1 0.194 0.314 0.115 0.671-0.176 0.793-0.714 0.301-2.92 8.46-2.48 9.17 0.193 0.312 0.105 0.667-0.194 0.789s-1.84 5.08-3.42 11c-1.58 5.93-2.93 10.8-2.99 10.8-0.0672 0-1.69-5.75-3.6-12.8z" fill="#878787"/>
   <path transform="scale(.265)" d="m421 544c6.62-11.2 42.3-69.7 51.1-83.9 5.24-8.4 8.97-13.8 9.1-13.1 0.463 2.41-7.9 87.1-8.68 87.9-0.166 0.166-48.4 13.4-53.1 14.6l-1.86 0.462z" fill="#979797"/>
  </g>
 </g>
</svg>
