<svg width="42.71mm" height="54.17mm" version="1.1" viewBox="0 0 42.71 54.17" xmlns="http://www.w3.org/2000/svg">
 <g transform="matrix(.9841 0 0 .8531 -198.8 -207.7)">
  <path d="m202 307 21.4-48.1 22-15.4h-43.4z" style="fill:#f9eac5"/>
  <path d="m202 307v-63.5h43.4l-26.9 11.8-16.5 51.7" style="fill:#f7e3b1"/>
 </g>
 <path d="m16.24 10.07 4.822 3.071" style="fill:none"/>
 <path d="m18.71 11.57c-1.29-0.8208-2.329-1.506-2.31-1.523 0.01902-0.01685 0.312-0.136 0.6511-0.2648 0.3391-0.1288 4.519-1.719 9.288-3.533 4.77-1.814 9.762-3.713 11.09-4.219 1.333-0.5062 2.936-1.117 3.563-1.357 0.6268-0.24 1.151-0.4265 1.165-0.4144 0.02579 0.02236-21.01 12.8-21.07 12.8-0.01873 0-1.089-0.6716-2.379-1.492z" style="fill:#fadf9f"/>
</svg>
