<?xml version="1.0" encoding="UTF-8" standalone="no"?>
<svg
   xmlns:dc="http://purl.org/dc/elements/1.1/"
   xmlns:cc="http://creativecommons.org/ns#"
   xmlns:rdf="http://www.w3.org/1999/02/22-rdf-syntax-ns#"
   xmlns:svg="http://www.w3.org/2000/svg"
   xmlns="http://www.w3.org/2000/svg"
   xmlns:sodipodi="http://sodipodi.sourceforge.net/DTD/sodipodi-0.dtd"
   xmlns:inkscape="http://www.inkscape.org/namespaces/inkscape"
   id="Lager_1"
   data-name="Lager 1"
   viewBox="0 0 844.65262 622.99771"
   version="1.1"
   sodipodi:docname="logo.svg"
   width="844.65259"
   height="622.99768"
   inkscape:version="1.0.1 (c497b03c, 2020-09-10)">
  <metadata
     id="metadata917">
    <rdf:RDF>
      <cc:Work
         rdf:about="">
        <dc:format>image/svg+xml</dc:format>
        <dc:type
           rdf:resource="http://purl.org/dc/dcmitype/StillImage" />
        <dc:title>BB_LOGGA_SVG</dc:title>
      </cc:Work>
    </rdf:RDF>
  </metadata>
  <sodipodi:namedview
     pagecolor="#ffffff"
     bordercolor="#666666"
     borderopacity="1"
     objecttolerance="10"
     gridtolerance="10"
     guidetolerance="10"
     inkscape:pageopacity="0"
     inkscape:pageshadow="2"
     inkscape:window-width="1589"
     inkscape:window-height="936"
     id="namedview915"
     showgrid="false"
     inkscape:zoom="0.82267439"
     inkscape:cx="432.735"
     inkscape:cy="336.965"
     inkscape:window-x="0"
     inkscape:window-y="23"
     inkscape:window-maximized="0"
     inkscape:current-layer="Lager_1" />
  <defs
     id="defs896">
    <style
       id="style894">
      .cls-1, .cls-3 {
        fill: #37806a;
      }

      .cls-2 {
        fill: #f7c554;
      }

      .cls-3 {
        font-size: 135.96px;
        font-family: JosefinSans-Bold, Josefin Sans;
        font-weight: 700;
      }

      .cls-4 {
        letter-spacing: -0.02em;
      }

      .cls-5 {
        letter-spacing: -0.05em;
      }
    </style>
  </defs>
  <title
     id="title898">BB_LOGGA_SVG</title>
  <path
     class="cls-1"
     d="M 82.900002,0 H 378.64 c 37.75,0 60.27,42.07 39.33,73.49 L 71.400002,593.41 c -21.34,32 -71.23999959,16.92 -71.25999959,-21.55 L 2.4125453e-6,82.92 A 82.9,82.9 0 0 1 82.900002,0 Z"
     id="path900" />
  <circle
     class="cls-2"
     cx="281.85999"
     cy="239.76999"
     r="128.28"
     id="circle902" />
  <g
     aria-label="BACKA"
     id="text910"
     style="font-weight:700;font-size:135.96px;font-family:JosefinSans-Bold, 'Josefin Sans';fill:#37806a"
     class="cls-3">
    <g
       id="g930"
       style="opacity:1">
      <path
         style="color:#000000;font-style:normal;font-variant:normal;font-weight:normal;font-stretch:normal;font-size:medium;line-height:normal;font-family:JosefinSans-Bold, 'Josefin Sans';font-variant-ligatures:normal;font-variant-position:normal;font-variant-caps:normal;font-variant-numeric:normal;font-variant-alternates:normal;font-variant-east-asian:normal;font-feature-settings:normal;font-variation-settings:normal;text-indent:0;text-align:start;text-decoration:none;text-decoration-line:none;text-decoration-style:solid;text-decoration-color:#000000;letter-spacing:-0.02em;word-spacing:normal;text-transform:none;writing-mode:lr-tb;direction:ltr;text-orientation:mixed;dominant-baseline:auto;baseline-shift:baseline;text-anchor:start;white-space:normal;shape-padding:0;shape-margin:0;inline-size:0;clip-rule:nonzero;display:inline;overflow:visible;visibility:visible;isolation:auto;mix-blend-mode:normal;color-interpolation:sRGB;color-interpolation-filters:linearRGB;solid-color:#000000;solid-opacity:1;vector-effect:none;fill:#37806a;fill-opacity:1;fill-rule:nonzero;stroke:none;stroke-width:1;stroke-linecap:butt;stroke-linejoin:miter;stroke-miterlimit:4;stroke-dasharray:none;stroke-dashoffset:0;stroke-opacity:1;color-rendering:auto;image-rendering:auto;shape-rendering:auto;text-rendering:auto;enable-background:accumulate;stop-color:#000000;stop-opacity:1"
         d="m 422.03356,397.12344 c 10.4236,0 18.71716,2.13004 24.88068,6.39012 6.16352,4.16944 9.24528,10.4236 9.24528,18.76248 0,6.16352 -1.54088,11.33 -4.62264,15.49944 -2.99112,4.0788 -7.11524,7.16056 -12.37236,9.24528 -5.16648,1.99408 -11.1034,2.99112 -17.81076,2.99112 L 418.22668,439.407 c 8.24824,0 15.54476,1.133 21.88956,3.399 6.43544,2.266 11.51128,5.52904 15.22752,9.78912 3.71624,4.16944 5.57436,9.19996 5.57436,15.09156 0,5.4384 -0.99704,10.06104 -2.99112,13.86792 -1.90344,3.71624 -4.532,6.75268 -7.88568,9.10932 -3.26304,2.266 -6.97928,3.94284 -11.14872,5.03052 -4.16944,0.99704 -8.47484,1.49556 -12.9162,1.49556 H 392.6662 V 397.12344 Z m 2.31132,40.92396 c 3.89752,0 6.75268,-1.17832 8.56548,-3.53496 1.90344,-2.35664 2.85516,-5.03052 2.85516,-8.02164 0,-3.44432 -1.17832,-6.02756 -3.53496,-7.74972 -2.266,-1.72216 -5.34776,-2.58324 -9.24528,-2.58324 H 412.3804 v 21.88956 z m 0.6798,40.788 c 2.90048,0 5.52904,-0.36256 7.88568,-1.08768 2.35664,-0.81576 4.21476,-2.0394 5.57436,-3.67092 1.3596,-1.72216 2.0394,-3.8522 2.0394,-6.39012 0,-2.90048 -0.81576,-5.07584 -2.44728,-6.52608 -1.63152,-1.54088 -3.76156,-2.58324 -6.39012,-3.12708 -2.53792,-0.63448 -5.2118,-0.95172 -8.02164,-0.95172 H 412.3804 v 21.7536 z"
         id="path932" />
      <path
         style="color:#000000;font-style:normal;font-variant:normal;font-weight:normal;font-stretch:normal;font-size:medium;line-height:normal;font-family:JosefinSans-Bold, 'Josefin Sans';font-variant-ligatures:normal;font-variant-position:normal;font-variant-caps:normal;font-variant-numeric:normal;font-variant-alternates:normal;font-variant-east-asian:normal;font-feature-settings:normal;font-variation-settings:normal;text-indent:0;text-align:start;text-decoration:none;text-decoration-line:none;text-decoration-style:solid;text-decoration-color:#000000;letter-spacing:-0.02em;word-spacing:normal;text-transform:none;writing-mode:lr-tb;direction:ltr;text-orientation:mixed;dominant-baseline:auto;baseline-shift:baseline;text-anchor:start;white-space:normal;shape-padding:0;shape-margin:0;inline-size:0;clip-rule:nonzero;display:inline;overflow:visible;visibility:visible;isolation:auto;mix-blend-mode:normal;color-interpolation:sRGB;color-interpolation-filters:linearRGB;solid-color:#000000;solid-opacity:1;vector-effect:none;fill-opacity:1;fill-rule:nonzero;stroke:none;stroke-width:1;stroke-linecap:butt;stroke-linejoin:miter;stroke-miterlimit:4;stroke-dasharray:none;stroke-dashoffset:0;stroke-opacity:1;color-rendering:auto;image-rendering:auto;shape-rendering:auto;text-rendering:auto;enable-background:accumulate;stop-color:#000000;stop-opacity:1"
         d="m 392.16602,396.62305 v 101.0664 h 33.81054 c 4.47878,0 8.82471,-0.50143 13.03321,-1.50781 l 0.004,-0.002 0.006,-0.002 c 4.22068,-1.10104 7.99244,-2.80198 11.30664,-5.10351 h 0.002 v -0.002 c 3.41724,-2.40131 6.10297,-5.50283 8.04102,-9.28516 v -0.002 c 2.03894,-3.89327 3.04883,-8.59889 3.04883,-14.09766 0,-5.99477 -1.90566,-11.1659 -5.69727,-15.42188 l -0.004,-0.004 c -2.77266,-3.1772 -6.30082,-5.79042 -10.53907,-7.86719 2.6465,-1.75743 4.93733,-3.83475 6.76172,-6.32226 v -0.002 c 3.1511,-4.26391 4.72071,-9.54872 4.72071,-15.79492 0,-8.46044 -3.1717,-14.91768 -9.46094,-19.17383 l -0.004,-0.002 c -6.27159,-4.33341 -14.67235,-6.47656 -25.16211,-6.47656 z m 1,1 h 28.86718 c 10.35549,0 18.54259,2.11761 24.59766,6.30273 h 0.002 l 0.002,0.002 c 6.03538,4.08277 9.02539,10.13197 9.02539,18.34766 0,6.08019 -1.51363,11.12839 -4.52539,15.20313 l -0.002,0.002 c -1.87442,2.55602 -4.25107,4.6673 -7.03906,6.42773 -1.22482,-0.55824 -2.46952,-1.10068 -3.80859,-1.57226 -6.40943,-2.28908 -13.76457,-3.42969 -22.0586,-3.42969 h -0.66797 l 3.42188,11.60547 h 0.37305 c 6.75691,0 12.75594,-1.00514 17.99023,-3.02539 h 0.004 0.002 c 1.75146,-0.69455 3.33555,-1.54292 4.84375,-2.45899 4.38314,2.06657 7.97905,4.69316 10.77344,7.89649 l 0.002,0.002 0.002,0.002 c 3.63841,4.08212 5.44727,8.9733 5.44727,14.75977 0,5.37729 -0.98492,9.91458 -2.93359,13.63477 l -0.002,0.002 v 0.002 c -1.86867,3.64836 -4.43958,6.6166 -7.72851,8.92774 -3.21107,2.22965 -6.86947,3.88286 -10.98633,4.95703 -6.2e-4,1.6e-4 -10e-4,-1.6e-4 -0.002,0 -4.12737,0.98616 -8.38854,1.47851 -12.78906,1.47851 h -32.81054 z m 18.71484,18.03515 v 22.88868 h 12.46484 c 3.99473,-10e-6 7.0364,-1.23518 8.95508,-3.72461 1.96652,-2.43626 2.96484,-5.23635 2.96484,-8.33204 0,-3.5545 -1.25291,-6.33051 -3.73242,-8.14648 l -0.004,-0.002 c -2.37561,-1.804 -5.57563,-2.6836 -9.54492,-2.6836 z m 1,1 h 10.10352 c 3.82387,0 6.7873,0.84187 8.94335,2.48047 l 0.004,0.004 0.004,0.002 c 2.22843,1.62847 3.33007,4.01542 3.33007,7.3457 0,2.88506 -0.90567,5.43279 -2.74414,7.70899 l -0.004,0.004 -0.004,0.004 c -1.70721,2.21938 -4.37122,3.33984 -8.16797,3.33985 h -11.46484 z m 6.0293,23.29883 c 7.90516,0.0645 14.94229,1.14359 21.03711,3.32031 h 0.002 c 1.09944,0.38713 2.10348,0.84201 3.12109,1.28711 -1.28058,0.73373 -2.62786,1.41244 -4.08984,1.99219 -4.99871,1.9287 -10.76478,2.88809 -17.26172,2.92578 z m -7.0293,16.625 v 22.75391 h 13.14453 c 2.94215,0 5.6195,-0.3673 8.03125,-1.10938 l 0.01,-0.004 0.008,-0.002 c 2.42592,-0.83974 4.3706,-2.11503 5.79492,-3.82422 l 0.004,-0.004 0.004,-0.006 c 1.43362,-1.81592 2.14649,-4.07201 2.14649,-6.69922 0,-2.99239 -0.86024,-5.33628 -2.61328,-6.89648 -1.70343,-1.60556 -3.92013,-2.68549 -6.60938,-3.24414 -2.57774,-0.64373 -5.29012,-0.96485 -8.13476,-0.96485 z m 1,1 h 10.78516 c 2.7722,0 5.40459,0.31355 7.90039,0.9375 l 0.01,0.002 0.01,0.002 c 2.55691,0.52901 4.59302,1.53099 6.14844,3 l 0.004,0.006 0.006,0.006 c 1.50781,1.34027 2.2793,3.34561 2.2793,6.15234 0,2.44586 -0.64506,4.44681 -1.92774,6.07422 -1.29275,1.54875 -3.06178,2.71909 -5.34179,3.50976 -2.29921,0.7063 -4.87351,1.06446 -7.72852,1.06446 h -12.14453 z"
         id="path934" />
    </g>
    <g
       id="g936"
       style="opacity:1">
      <path
         style="color:#000000;font-style:normal;font-variant:normal;font-weight:normal;font-stretch:normal;font-size:medium;line-height:normal;font-family:JosefinSans-Bold, 'Josefin Sans';font-variant-ligatures:normal;font-variant-position:normal;font-variant-caps:normal;font-variant-numeric:normal;font-variant-alternates:normal;font-variant-east-asian:normal;font-feature-settings:normal;font-variation-settings:normal;text-indent:0;text-align:start;text-decoration:none;text-decoration-line:none;text-decoration-style:solid;text-decoration-color:#000000;letter-spacing:-0.05em;word-spacing:normal;text-transform:none;writing-mode:lr-tb;direction:ltr;text-orientation:mixed;dominant-baseline:auto;baseline-shift:baseline;text-anchor:start;white-space:normal;shape-padding:0;shape-margin:0;inline-size:0;clip-rule:nonzero;display:inline;overflow:visible;visibility:visible;isolation:auto;mix-blend-mode:normal;color-interpolation:sRGB;color-interpolation-filters:linearRGB;solid-color:#000000;solid-opacity:1;vector-effect:none;fill:#37806a;fill-opacity:1;fill-rule:nonzero;stroke:none;stroke-width:1;stroke-linecap:butt;stroke-linejoin:miter;stroke-miterlimit:4;stroke-dasharray:none;stroke-dashoffset:0;stroke-opacity:1;color-rendering:auto;image-rendering:auto;shape-rendering:auto;text-rendering:auto;enable-background:accumulate;stop-color:#000000;stop-opacity:1"
         d="m 465.94152,497.19 45.13872,-104.0094 h 1.08768 L 557.30664,497.19 h -22.84128 l -28.82352,-73.14648 14.2758,-9.78912 -34.53384,82.9356 z m 30.86292,-36.16536 h 30.04716 l 6.93396,16.58712 h -43.09932 z"
         id="path938" />
      <path
         style="color:#000000;font-style:normal;font-variant:normal;font-weight:normal;font-stretch:normal;font-size:medium;line-height:normal;font-family:JosefinSans-Bold, 'Josefin Sans';font-variant-ligatures:normal;font-variant-position:normal;font-variant-caps:normal;font-variant-numeric:normal;font-variant-alternates:normal;font-variant-east-asian:normal;font-feature-settings:normal;font-variation-settings:normal;text-indent:0;text-align:start;text-decoration:none;text-decoration-line:none;text-decoration-style:solid;text-decoration-color:#000000;letter-spacing:-0.05em;word-spacing:normal;text-transform:none;writing-mode:lr-tb;direction:ltr;text-orientation:mixed;dominant-baseline:auto;baseline-shift:baseline;text-anchor:start;white-space:normal;shape-padding:0;shape-margin:0;inline-size:0;clip-rule:nonzero;display:inline;overflow:visible;visibility:visible;isolation:auto;mix-blend-mode:normal;color-interpolation:sRGB;color-interpolation-filters:linearRGB;solid-color:#000000;solid-opacity:1;vector-effect:none;fill-opacity:1;fill-rule:nonzero;stroke:none;stroke-width:1;stroke-linecap:butt;stroke-linejoin:miter;stroke-miterlimit:4;stroke-dasharray:none;stroke-dashoffset:0;stroke-opacity:1;color-rendering:auto;image-rendering:auto;shape-rendering:auto;text-rendering:auto;enable-background:accumulate;stop-color:#000000;stop-opacity:1"
         d="m 510.75195,392.67969 -45.57226,105.00976 h 0.76172 19.77539 l 8.15234,-19.57812 h 32.54102 l 7.71484,19.57812 h 23.94336 L 512.49609,392.67969 Z m 0.65625,1 h 0.43164 l 8.53125,19.6582 -15.33984,10.51758 5.03125,12.76758 -9.95312,23.90234 h -3.6543 l -0.11914,0.32617 -6.36719,17.25977 h 2.81836 l -7.73633,18.57812 h -18.34766 z m 9.20313,20.21093 35.93359,82.79883 h -21.73828 l -7.32031,-18.57812 h 7.05078 l -7.35352,-17.58594 h -6.62695 l -9.41602,-23.89258 z m -1.80274,1.73047 -8.19336,19.67579 -4.36132,-11.06641 z m -8.2207,22.33789 8.89258,22.56641 h -18.28906 z m -13.43555,23.56641 h 2.54102 l -6.49024,15.58594 h -1.79882 z m 3.62305,0 H 519.875 l 6.14062,15.58594 h -31.73046 z m 20.17383,0 h 5.57031 l 6.51563,15.58594 h -5.94336 z"
         id="path940" />
    </g>
    <g
       id="g942"
       style="opacity:1">
      <path
         style="color:#000000;font-style:normal;font-variant:normal;font-weight:normal;font-stretch:normal;font-size:medium;line-height:normal;font-family:JosefinSans-Bold, 'Josefin Sans';font-variant-ligatures:normal;font-variant-position:normal;font-variant-caps:normal;font-variant-numeric:normal;font-variant-alternates:normal;font-variant-east-asian:normal;font-feature-settings:normal;font-variation-settings:normal;text-indent:0;text-align:start;text-decoration:none;text-decoration-line:none;text-decoration-style:solid;text-decoration-color:#000000;letter-spacing:normal;word-spacing:normal;text-transform:none;writing-mode:lr-tb;direction:ltr;text-orientation:mixed;dominant-baseline:auto;baseline-shift:baseline;text-anchor:start;white-space:normal;shape-padding:0;shape-margin:0;inline-size:0;clip-rule:nonzero;display:inline;overflow:visible;visibility:visible;isolation:auto;mix-blend-mode:normal;color-interpolation:sRGB;color-interpolation-filters:linearRGB;solid-color:#000000;solid-opacity:1;vector-effect:none;fill:#37806a;fill-opacity:1;fill-rule:nonzero;stroke:none;stroke-width:1;stroke-linecap:butt;stroke-linejoin:miter;stroke-miterlimit:4;stroke-dasharray:none;stroke-dashoffset:0;stroke-opacity:1;color-rendering:auto;image-rendering:auto;shape-rendering:auto;text-rendering:auto;enable-background:accumulate;stop-color:#000000;stop-opacity:1"
         d="m 640.10614,488.89644 c -1.08768,0.9064 -3.12708,2.13004 -6.1182,3.67092 -2.90048,1.54088 -6.48076,2.90048 -10.74084,4.0788 -4.26008,1.17832 -8.97336,1.72216 -14.13984,1.63152 -7.88568,-0.18128 -14.9556,-1.5862 -21.20976,-4.21476 -6.16352,-2.7192 -11.42064,-6.39012 -15.77136,-11.01276 -4.26008,-4.62264 -7.52312,-9.92508 -9.78912,-15.90732 -2.26601,-5.98224 -3.39901,-12.37236 -3.39901,-19.17036 0,-7.61376 1.133,-14.59304 3.39901,-20.93784 2.35664,-6.3448 5.665,-11.82852 9.92508,-16.45116 4.35072,-4.62264 9.5172,-8.20292 15.49944,-10.74084 5.98224,-2.53792 12.59896,-3.80688 19.85016,-3.80688 6.70736,0 12.64428,0.9064 17.81076,2.7192 5.16648,1.8128 9.38124,3.76156 12.64428,5.84628 l -7.74972,18.62652 c -2.266,-1.72216 -5.30244,-3.48964 -9.10932,-5.30244 -3.71624,-1.90344 -8.02164,-2.85516 -12.9162,-2.85516 -3.80688,0 -7.4778,0.81576 -11.01276,2.44728 -3.44432,1.54088 -6.52608,3.76156 -9.24528,6.66204 -2.62856,2.90048 -4.71328,6.29948 -6.25416,10.197 -1.54088,3.80688 -2.31132,7.97632 -2.31132,12.50832 0,4.80392 0.6798,9.19996 2.0394,13.18812 1.45024,3.98816 3.48964,7.43248 6.1182,10.33296 2.62856,2.80984 5.75564,4.9852 9.38124,6.52608 3.71624,1.54088 7.88568,2.31132 12.50832,2.31132 5.34776,0 9.92508,-0.86108 13.73196,-2.58324 3.80688,-1.72216 6.70736,-3.53496 8.70144,-5.4384 z"
         id="path944" />
      <path
         style="color:#000000;font-style:normal;font-variant:normal;font-weight:normal;font-stretch:normal;font-size:medium;line-height:normal;font-family:JosefinSans-Bold, 'Josefin Sans';font-variant-ligatures:normal;font-variant-position:normal;font-variant-caps:normal;font-variant-numeric:normal;font-variant-alternates:normal;font-variant-east-asian:normal;font-feature-settings:normal;font-variation-settings:normal;text-indent:0;text-align:start;text-decoration:none;text-decoration-line:none;text-decoration-style:solid;text-decoration-color:#000000;letter-spacing:normal;word-spacing:normal;text-transform:none;writing-mode:lr-tb;direction:ltr;text-orientation:mixed;dominant-baseline:auto;baseline-shift:baseline;text-anchor:start;white-space:normal;shape-padding:0;shape-margin:0;inline-size:0;clip-rule:nonzero;display:inline;overflow:visible;visibility:visible;isolation:auto;mix-blend-mode:normal;color-interpolation:sRGB;color-interpolation-filters:linearRGB;solid-color:#000000;solid-opacity:1;vector-effect:none;fill-opacity:1;fill-rule:nonzero;stroke:none;stroke-width:1;stroke-linecap:butt;stroke-linejoin:miter;stroke-miterlimit:4;stroke-dasharray:none;stroke-dashoffset:0;stroke-opacity:1;color-rendering:auto;image-rendering:auto;shape-rendering:auto;text-rendering:auto;enable-background:accumulate;stop-color:#000000;stop-opacity:1"
         d="m 607.61133,395.53516 c -7.30954,0 -13.99582,1.28137 -20.04492,3.84765 -6.0426,2.56353 -11.27016,6.18475 -15.66797,10.85742 l -0.002,0.002 -0.002,0.002 c -4.3062,4.67268 -7.64831,10.21736 -10.02539,16.61719 l -0.002,0.002 -0.002,0.004 c -2.28731,6.40446 -3.42773,13.4421 -3.42773,21.10547 0,6.85355 1.14341,13.30674 3.43164,19.34765 2.28766,6.03941 5.58569,11.39917 9.88867,16.06836 l 0.002,0.002 0.002,0.002 c 4.39795,4.67282 9.71409,8.38305 15.93359,11.12695 l 0.004,0.002 0.004,0.002 c 6.31958,2.65605 13.45443,4.07142 21.39258,4.2539 h 0.002 c 5.20688,0.0914 9.96989,-0.45539 14.2832,-1.64843 4.28351,-1.1848 7.89344,-2.55462 10.83594,-4.11719 3.00466,-1.54786 5.05518,-2.76897 6.20898,-3.73047 l 0.29492,-0.24609 -0.16015,-0.34766 -8.45117,-18.31055 -0.50586,0.48243 c -1.93361,1.84571 -4.78878,3.63854 -8.5625,5.3457 -3.72678,1.68592 -8.23131,2.53906 -13.5254,2.53906 -4.56546,0 -8.66499,-0.75977 -12.3125,-2.27148 l -0.004,-0.002 c -3.56056,-1.51387 -6.62395,-3.64502 -9.20313,-6.40039 l -0.002,-0.002 c -0.001,-10e-4 -0.003,-0.003 -0.004,-0.004 -2.57784,-2.84616 -4.58063,-6.2259 -6.00976,-10.15234 -4e-4,-10e-4 4e-4,-0.003 0,-0.004 -1.33902,-3.9292 -2.01172,-8.2681 -2.01172,-13.02343 0,-4.47534 0.75845,-8.5774 2.27344,-12.32032 l 0.002,-0.002 v -0.002 c 1.51966,-3.84384 3.5705,-7.18646 6.1543,-10.03907 l 0.004,-0.004 c 6.1e-4,-6.7e-4 10e-4,-10e-4 0.002,-0.002 2.67593,-2.85281 5.69823,-5.02895 9.07812,-6.54101 l 0.004,-0.002 0.002,-0.002 c 3.47295,-1.6029 7.06728,-2.40039 10.80274,-2.40039 4.82974,0 9.05248,0.93795 12.68945,2.80078 l 0.006,0.002 0.006,0.004 c 3.78616,1.80294 6.79559,3.55637 9.02148,5.24805 l 0.51563,0.39258 8.16015,-19.61133 -0.35351,-0.22656 c -3.30853,-2.11378 -7.5561,-4.07475 -12.74805,-5.89649 -5.23027,-1.83518 -11.22416,-2.74804 -17.97656,-2.74804 z m 0,1 c 6.66231,0 12.54379,0.90098 17.64648,2.6914 4.97178,1.74449 9.00079,3.61923 12.17383,5.59961 l -7.3457,17.65235 c -2.244,-1.63785 -5.08294,-3.2985 -8.65039,-4.99805 l -0.008,-0.002 c -3.7939,-1.94165 -8.18039,-2.90821 -13.13671,-2.90821 -3.87831,0 -7.62569,0.83205 -11.22266,2.49219 -3.50407,1.56851 -6.64082,3.83184 -9.40039,6.77539 l -0.002,0.002 -0.004,0.004 c -2.67075,2.94703 -4.78663,6.40113 -6.34766,10.34961 -1.5657,3.86978 -2.3457,8.1043 -2.3457,12.69141 0,4.85109 0.68507,9.30341 2.06445,13.34961 l 0.002,0.004 0.002,0.006 c 1.47009,4.04275 3.54434,7.54698 6.21875,10.49805 l 0.002,0.002 0.002,0.004 c 2.67575,2.86029 5.86452,5.07787 9.55078,6.64453 h 0.002 l 0.002,0.002 c 3.784,1.56898 8.02298,2.34961 12.70117,2.34961 5.40144,0 10.05052,-0.87051 13.9375,-2.62891 3.56391,-1.61224 6.27497,-3.31778 8.30079,-5.12109 l 7.71289,16.70898 c -1.0682,0.84358 -2.88692,1.96714 -5.70703,3.41993 l -0.004,0.002 h -0.002 c -2.85755,1.51807 -6.40642,2.8679 -10.64063,4.03906 -4.20573,1.16329 -8.86967,1.70286 -13.99414,1.61328 -7.82987,-0.17999 -14.83272,-1.57294 -21.01953,-4.17187 l -0.008,-0.004 c -6.1022,-2.69334 -11.29684,-6.3221 -15.59766,-10.89062 l -0.002,-0.002 c -6.3e-4,-6.6e-4 -10e-4,-0.001 -0.002,-0.002 -4.21534,-4.57513 -7.44186,-9.81887 -9.68554,-15.74219 -2.24379,-5.92357 -3.36719,-12.24974 -3.36719,-18.99218 0,-7.56188 1.12579,-14.48004 3.36914,-20.76368 l 0.002,-0.002 c 4.2e-4,-0.001 -4.1e-4,-0.003 0,-0.004 2.33552,-6.2858 5.60712,-11.70684 9.81836,-16.27734 4.30363,-4.57261 9.4082,-8.11073 15.33008,-10.62305 5.91538,-2.50955 12.46143,-3.76757 19.6543,-3.76757 z"
         id="path946" />
    </g>
    <g
       id="g948"
       style="opacity:1">
      <path
         style="color:#000000;font-style:normal;font-variant:normal;font-weight:normal;font-stretch:normal;font-size:medium;line-height:normal;font-family:JosefinSans-Bold, 'Josefin Sans';font-variant-ligatures:normal;font-variant-position:normal;font-variant-caps:normal;font-variant-numeric:normal;font-variant-alternates:normal;font-variant-east-asian:normal;font-feature-settings:normal;font-variation-settings:normal;text-indent:0;text-align:start;text-decoration:none;text-decoration-line:none;text-decoration-style:solid;text-decoration-color:#000000;letter-spacing:normal;word-spacing:normal;text-transform:none;writing-mode:lr-tb;direction:ltr;text-orientation:mixed;dominant-baseline:auto;baseline-shift:baseline;text-anchor:start;white-space:normal;shape-padding:0;shape-margin:0;inline-size:0;clip-rule:nonzero;display:inline;overflow:visible;visibility:visible;isolation:auto;mix-blend-mode:normal;color-interpolation:sRGB;color-interpolation-filters:linearRGB;solid-color:#000000;solid-opacity:1;vector-effect:none;fill:#37806a;fill-opacity:1;fill-rule:nonzero;stroke:none;stroke-width:1;stroke-linecap:butt;stroke-linejoin:miter;stroke-miterlimit:4;stroke-dasharray:none;stroke-dashoffset:0;stroke-opacity:1;color-rendering:auto;image-rendering:auto;shape-rendering:auto;text-rendering:auto;enable-background:accumulate;stop-color:#000000;stop-opacity:1"
         d="m 679.84258,432.74496 -0.54384,5.03052 2.99112,-3.80688 32.6304,-36.84516 h 25.56048 l -41.33184,44.8668 41.4678,55.19976 h -25.01664 l -30.86292,-42.69144 -4.89456,4.89456 V 497.19 H 659.85645 V 397.12344 h 19.98613 z"
         id="path950" />
      <path
         style="color:#000000;font-style:normal;font-variant:normal;font-weight:normal;font-stretch:normal;font-size:medium;line-height:normal;font-family:JosefinSans-Bold, 'Josefin Sans';font-variant-ligatures:normal;font-variant-position:normal;font-variant-caps:normal;font-variant-numeric:normal;font-variant-alternates:normal;font-variant-east-asian:normal;font-feature-settings:normal;font-variation-settings:normal;text-indent:0;text-align:start;text-decoration:none;text-decoration-line:none;text-decoration-style:solid;text-decoration-color:#000000;letter-spacing:normal;word-spacing:normal;text-transform:none;writing-mode:lr-tb;direction:ltr;text-orientation:mixed;dominant-baseline:auto;baseline-shift:baseline;text-anchor:start;white-space:normal;shape-padding:0;shape-margin:0;inline-size:0;clip-rule:nonzero;display:inline;overflow:visible;visibility:visible;isolation:auto;mix-blend-mode:normal;color-interpolation:sRGB;color-interpolation-filters:linearRGB;solid-color:#000000;solid-opacity:1;vector-effect:none;fill-opacity:1;fill-rule:nonzero;stroke:none;stroke-width:1;stroke-linecap:butt;stroke-linejoin:miter;stroke-miterlimit:4;stroke-dasharray:none;stroke-dashoffset:0;stroke-opacity:1;color-rendering:auto;image-rendering:auto;shape-rendering:auto;text-rendering:auto;enable-background:accumulate;stop-color:#000000;stop-opacity:1"
         d="m 659.35742,396.62305 v 101.0664 h 20.98438 v -38.08984 l 4.33398,-4.33399 30.66797,42.42383 h 26.27344 l -41.81836,-55.66601 41.82226,-45.40039 h -26.92578 l -32.78906,37.02539 -1.92383,2.44922 0.35938,-3.32618 v -0.0273 -36.12109 z m 1,1 h 18.98438 v 35.10351 l -0.72852,6.73047 4.06055,-5.16797 32.4707,-36.66601 h 24.19727 l -40.8418,44.33398 41.11523,54.73242 h -23.75976 l -31.05664,-42.95898 -5.45703,5.45508 v 37.5039 h -18.98438 z"
         id="path952" />
    </g>
    <g
       id="g954"
       style="opacity:1">
      <path
         style="color:#000000;font-style:normal;font-variant:normal;font-weight:normal;font-stretch:normal;font-size:medium;line-height:normal;font-family:JosefinSans-Bold, 'Josefin Sans';font-variant-ligatures:normal;font-variant-position:normal;font-variant-caps:normal;font-variant-numeric:normal;font-variant-alternates:normal;font-variant-east-asian:normal;font-feature-settings:normal;font-variation-settings:normal;text-indent:0;text-align:start;text-decoration:none;text-decoration-line:none;text-decoration-style:solid;text-decoration-color:#000000;letter-spacing:normal;word-spacing:normal;text-transform:none;writing-mode:lr-tb;direction:ltr;text-orientation:mixed;dominant-baseline:auto;baseline-shift:baseline;text-anchor:start;white-space:normal;shape-padding:0;shape-margin:0;inline-size:0;clip-rule:nonzero;display:inline;overflow:visible;visibility:visible;isolation:auto;mix-blend-mode:normal;color-interpolation:sRGB;color-interpolation-filters:linearRGB;solid-color:#000000;solid-opacity:1;vector-effect:none;fill:#37806a;fill-opacity:1;fill-rule:nonzero;stroke:none;stroke-width:1;stroke-linecap:butt;stroke-linejoin:miter;stroke-miterlimit:4;stroke-dasharray:none;stroke-dashoffset:0;stroke-opacity:1;color-rendering:auto;image-rendering:auto;shape-rendering:auto;text-rendering:auto;enable-background:accumulate;stop-color:#000000;stop-opacity:1"
         d="m 744.16866,497.19 45.13872,-104.0094 h 1.08768 L 835.53378,497.19 H 812.6925 l -28.82352,-73.14648 14.2758,-9.78912 -34.53384,82.9356 z m 30.86292,-36.16536 h 30.04716 l 6.93396,16.58712 h -43.09932 z"
         id="path956" />
      <path
         style="color:#000000;font-style:normal;font-variant:normal;font-weight:normal;font-stretch:normal;font-size:medium;line-height:normal;font-family:JosefinSans-Bold, 'Josefin Sans';font-variant-ligatures:normal;font-variant-position:normal;font-variant-caps:normal;font-variant-numeric:normal;font-variant-alternates:normal;font-variant-east-asian:normal;font-feature-settings:normal;font-variation-settings:normal;text-indent:0;text-align:start;text-decoration:none;text-decoration-line:none;text-decoration-style:solid;text-decoration-color:#000000;letter-spacing:normal;word-spacing:normal;text-transform:none;writing-mode:lr-tb;direction:ltr;text-orientation:mixed;dominant-baseline:auto;baseline-shift:baseline;text-anchor:start;white-space:normal;shape-padding:0;shape-margin:0;inline-size:0;clip-rule:nonzero;display:inline;overflow:visible;visibility:visible;isolation:auto;mix-blend-mode:normal;color-interpolation:sRGB;color-interpolation-filters:linearRGB;solid-color:#000000;solid-opacity:1;vector-effect:none;fill-opacity:1;fill-rule:nonzero;stroke:none;stroke-width:1;stroke-linecap:butt;stroke-linejoin:miter;stroke-miterlimit:4;stroke-dasharray:none;stroke-dashoffset:0;stroke-opacity:1;color-rendering:auto;image-rendering:auto;shape-rendering:auto;text-rendering:auto;enable-background:accumulate;stop-color:#000000;stop-opacity:1"
         d="m 788.97852,392.67969 -45.57227,105.00976 h 0.76172 19.77734 l 8.15235,-19.57812 h 32.53906 l 7.71484,19.57812 h 23.94336 L 790.72266,392.67969 Z m 0.65625,1 h 0.43164 l 8.53125,19.6582 -15.33985,10.51758 5.03125,12.76758 -9.95312,23.90234 h -3.65235 l -0.12109,0.32617 -6.36719,17.25977 h 2.81836 l -7.73633,18.57812 h -18.34765 z m 9.20312,20.21093 35.93359,82.79883 H 813.0332 l -7.32031,-18.57812 h 7.05078 l -7.35156,-17.58594 h -6.62891 l -9.41601,-23.89258 z m -1.80273,1.73047 -8.19336,19.67579 -4.36133,-11.06641 z m -8.21875,22.33985 8.89062,22.56445 h -18.28711 z m -13.4375,23.56445 h 2.54101 l -6.49023,15.58594 h -1.79883 z m 3.625,0 h 19.09765 l 6.14063,15.58594 h -31.72852 z m 20.17187,0 h 5.57031 l 6.51563,15.58594 h -5.94336 z"
         id="path958" />
    </g>
  </g>
  <g
     aria-label="BOULDER"
     id="text912"
     style="font-weight:700;font-size:135.96px;font-family:JosefinSans-Bold, 'Josefin Sans';fill:#37806a"
     class="cls-3">
    <g
       id="g975"
       style="opacity:1">
      <path
         style="color:#000000;font-style:normal;font-variant:normal;font-weight:700;font-stretch:normal;font-size:135.96px;line-height:normal;font-family:JosefinSans-Bold, 'Josefin Sans';font-variant-ligatures:normal;font-variant-position:normal;font-variant-caps:normal;font-variant-numeric:normal;font-variant-alternates:normal;font-variant-east-asian:normal;font-feature-settings:normal;font-variation-settings:normal;text-indent:0;text-align:start;text-decoration:none;text-decoration-line:none;text-decoration-style:solid;text-decoration-color:#000000;letter-spacing:normal;word-spacing:normal;text-transform:none;writing-mode:lr-tb;direction:ltr;text-orientation:mixed;dominant-baseline:auto;baseline-shift:baseline;text-anchor:start;white-space:normal;shape-padding:0;shape-margin:0;inline-size:0;clip-rule:nonzero;display:inline;overflow:visible;visibility:visible;isolation:auto;mix-blend-mode:normal;color-interpolation:sRGB;color-interpolation-filters:linearRGB;solid-color:#000000;solid-opacity:1;vector-effect:none;fill:#37806a;fill-opacity:1;fill-rule:nonzero;stroke:none;stroke-width:1;stroke-linecap:butt;stroke-linejoin:miter;stroke-miterlimit:4;stroke-dasharray:none;stroke-dashoffset:0;stroke-opacity:1;color-rendering:auto;image-rendering:auto;shape-rendering:auto;text-rendering:auto;enable-background:accumulate;stop-color:#000000;stop-opacity:1"
         d="m 208.08357,521.84341 c 10.4236,0 18.71716,2.13004 24.88068,6.39012 6.16352,4.16944 9.24528,10.4236 9.24528,18.76248 0,6.16352 -1.54088,11.33 -4.62264,15.49944 -2.99112,4.0788 -7.11524,7.16056 -12.37236,9.24528 -5.16648,1.99408 -11.1034,2.99112 -17.81076,2.99112 l -3.12709,-10.60488 c 8.24825,0 15.54477,1.133 21.88957,3.399 6.43544,2.266 11.51128,5.52904 15.22752,9.78912 3.71624,4.16944 5.57436,9.19996 5.57436,15.09156 0,5.4384 -0.99704,10.06104 -2.99112,13.86792 -1.90344,3.71624 -4.532,6.75268 -7.88568,9.10932 -3.26304,2.266 -6.97928,3.94284 -11.14872,5.03052 -4.16944,0.99704 -8.47484,1.49556 -12.9162,1.49556 H 178.7162 V 521.84341 Z m 2.31132,40.92396 c 3.89752,0 6.75268,-1.17832 8.56548,-3.53496 1.90344,-2.35664 2.85516,-5.03052 2.85516,-8.02164 0,-3.44432 -1.17832,-6.02756 -3.53496,-7.74972 -2.266,-1.72216 -5.34776,-2.58324 -9.24528,-2.58324 H 198.4304 v 21.88956 z m 0.6798,40.788 c 2.90048,0 5.52904,-0.36256 7.88568,-1.08768 2.35664,-0.81576 4.21476,-2.0394 5.57436,-3.67092 1.3596,-1.72216 2.0394,-3.8522 2.0394,-6.39012 0,-2.90048 -0.81576,-5.07584 -2.44728,-6.52608 -1.63152,-1.54088 -3.76156,-2.58324 -6.39012,-3.12708 -2.53792,-0.63448 -5.2118,-0.95172 -8.02164,-0.95172 H 198.4304 v 21.7536 z"
         id="path977" />
      <path
         style="color:#000000;font-style:normal;font-variant:normal;font-weight:700;font-stretch:normal;font-size:135.96px;line-height:normal;font-family:JosefinSans-Bold, 'Josefin Sans';font-variant-ligatures:normal;font-variant-position:normal;font-variant-caps:normal;font-variant-numeric:normal;font-variant-alternates:normal;font-variant-east-asian:normal;font-feature-settings:normal;font-variation-settings:normal;text-indent:0;text-align:start;text-decoration:none;text-decoration-line:none;text-decoration-style:solid;text-decoration-color:#000000;letter-spacing:normal;word-spacing:normal;text-transform:none;writing-mode:lr-tb;direction:ltr;text-orientation:mixed;dominant-baseline:auto;baseline-shift:baseline;text-anchor:start;white-space:normal;shape-padding:0;shape-margin:0;inline-size:0;clip-rule:nonzero;display:inline;overflow:visible;visibility:visible;isolation:auto;mix-blend-mode:normal;color-interpolation:sRGB;color-interpolation-filters:linearRGB;solid-color:#000000;solid-opacity:1;vector-effect:none;fill-opacity:1;fill-rule:nonzero;stroke:none;stroke-width:1;stroke-linecap:butt;stroke-linejoin:miter;stroke-miterlimit:4;stroke-dasharray:none;stroke-dashoffset:0;stroke-opacity:1;color-rendering:auto;image-rendering:auto;shape-rendering:auto;text-rendering:auto;enable-background:accumulate;stop-color:#000000;stop-opacity:1"
         d="m 178.2168,521.34375 v 101.06641 h 33.81054 c 4.47878,0 8.82276,-0.50339 13.03125,-1.50977 h 0.006 l 0.004,-0.002 c 4.22067,-1.10105 7.99439,-2.80199 11.30859,-5.10352 v -0.002 h 0.002 c 3.41723,-2.4013 6.10296,-5.50478 8.04101,-9.28711 v -0.002 c 2.03894,-3.89327 3.04883,-8.59889 3.04883,-14.09766 0,-5.99477 -1.90566,-11.16395 -5.69727,-15.41992 l -0.004,-0.004 c -2.77264,-3.17717 -6.30087,-5.79042 -10.53906,-7.86719 2.64589,-1.75712 4.93563,-3.83536 6.75976,-6.32226 l 0.002,-0.002 c 3.1507,-4.26377 4.71875,-9.54913 4.71875,-15.79493 0,-8.46043 -3.17169,-14.91768 -9.46093,-19.17382 l -0.004,-0.002 c -6.27159,-4.33341 -14.6704,-6.47656 -25.16016,-6.47656 z m 1,1 h 28.86718 c 10.35549,0 18.54064,2.11566 24.59571,6.30078 l 0.002,0.002 0.002,0.002 c 6.03539,4.08276 9.02539,10.13196 9.02539,18.34765 0,6.08019 -1.51167,11.12839 -4.52343,15.20313 h -0.002 c -1.87435,2.55594 -4.25315,4.66733 -7.04101,6.42773 -1.22444,-0.558 -2.46998,-1.10086 -3.8086,-1.57226 h -0.002 c -6.40902,-2.28867 -13.7614,-3.42774 -22.05469,-3.42774 h -0.66992 l 3.42188,11.60547 h 0.375 c 6.75691,0 12.75594,-1.00514 17.99023,-3.02539 h 0.002 l 0.002,-0.002 c 1.75129,-0.69448 3.33567,-1.54108 4.84375,-2.45703 4.38386,2.06667 7.98066,4.69277 10.77539,7.89648 l 0.002,0.002 0.002,0.002 c 3.63841,4.08211 5.44727,8.97134 5.44727,14.75781 0,5.37729 -0.98688,9.91653 -2.93555,13.63672 v 0.002 l -0.002,0.002 c -1.86867,3.64836 -4.43763,6.61659 -7.72656,8.92773 -3.21088,2.22937 -6.8698,3.88099 -10.98633,4.95508 -6.1e-4,1.6e-4 -0.001,-1.6e-4 -0.002,0 -4.12738,0.98616 -8.38855,1.48047 -12.78907,1.48047 H 179.2168 Z m 18.71289,18.0332 v 22.89063 h 12.46484 c 3.99473,0 7.03835,-1.23518 8.95703,-3.72461 1.96652,-2.43625 2.96485,-5.23635 2.96485,-8.33203 0,-3.55451 -1.25292,-6.33247 -3.73243,-8.14844 l -0.004,-0.002 c -2.37561,-1.804 -5.57563,-2.6836 -9.54492,-2.6836 z m 1,1 h 10.10547 c 3.82387,0 6.78731,0.84383 8.94336,2.48243 l 0.004,0.002 0.004,0.004 c 2.22843,1.62847 3.33008,4.01542 3.33008,7.34571 0,2.88506 -0.90568,5.43083 -2.74414,7.70703 l -0.004,0.006 -0.004,0.004 c -1.70721,2.21938 -4.37317,3.33985 -8.16992,3.33985 H 198.9297 Z m 6.02929,23.29883 c 7.90603,0.0644 14.94372,1.1434 21.03907,3.32031 l 0.002,0.002 c 1.09885,0.38692 2.10203,0.84228 3.11914,1.28711 -1.28052,0.73368 -2.62793,1.41051 -4.08984,1.99023 -4.99832,1.92827 -10.76356,2.89004 -17.25977,2.92773 z m -7.02929,16.62695 v 22.75196 h 13.14453 c 2.94215,0 5.62145,-0.3673 8.0332,-1.10938 l 0.008,-0.002 0.008,-0.004 c 2.42592,-0.83974 4.3706,-2.11308 5.79492,-3.82226 l 0.006,-0.006 0.004,-0.004 c 1.43362,-1.81592 2.14649,-4.07396 2.14649,-6.70117 0,-2.99238 -0.86024,-5.33432 -2.61328,-6.89453 -1.70614,-1.60812 -3.92605,-2.69016 -6.6211,-3.24805 h -0.002 c -2.57434,-0.64183 -5.2826,-0.96094 -8.12305,-0.96094 z m 1,1 h 10.78515 c 2.77221,0 5.4046,0.3116 7.90039,0.93555 l 0.01,0.002 0.01,0.002 c 2.55691,0.52901 4.59301,1.53294 6.14843,3.00195 l 0.006,0.006 0.006,0.004 c 1.50781,1.34027 2.2793,3.34561 2.2793,6.15234 0,2.44622 -0.64663,4.44668 -1.92969,6.07422 -1.29249,1.54883 -3.05826,2.72089 -5.33789,3.51172 -2.3001,0.70701 -4.87595,1.0625 -7.73242,1.0625 h -12.14453 z"
         id="path979" />
    </g>
    <g
       id="g981"
       style="opacity:1">
      <path
         style="color:#000000;font-style:normal;font-variant:normal;font-weight:700;font-stretch:normal;font-size:135.96px;line-height:normal;font-family:JosefinSans-Bold, 'Josefin Sans';font-variant-ligatures:normal;font-variant-position:normal;font-variant-caps:normal;font-variant-numeric:normal;font-variant-alternates:normal;font-variant-east-asian:normal;font-feature-settings:normal;font-variation-settings:normal;text-indent:0;text-align:start;text-decoration:none;text-decoration-line:none;text-decoration-style:solid;text-decoration-color:#000000;letter-spacing:normal;word-spacing:normal;text-transform:none;writing-mode:lr-tb;direction:ltr;text-orientation:mixed;dominant-baseline:auto;baseline-shift:baseline;text-anchor:start;white-space:normal;shape-padding:0;shape-margin:0;inline-size:0;clip-rule:nonzero;display:inline;overflow:visible;visibility:visible;isolation:auto;mix-blend-mode:normal;color-interpolation:sRGB;color-interpolation-filters:linearRGB;solid-color:#000000;solid-opacity:1;vector-effect:none;fill:#37806a;fill-opacity:1;fill-rule:nonzero;stroke:none;stroke-width:1;stroke-linecap:butt;stroke-linejoin:miter;stroke-miterlimit:4;stroke-dasharray:none;stroke-dashoffset:0;stroke-opacity:1;color-rendering:auto;image-rendering:auto;shape-rendering:auto;text-rendering:auto;enable-background:accumulate;stop-color:#000000;stop-opacity:1"
         d="m 260.49402,572.01265 c 0,-6.88864 1.31428,-13.41472 3.94284,-19.57824 2.62856,-6.16352 6.25416,-11.60192 10.8768,-16.3152 4.71328,-4.80392 10.15168,-8.56548 16.3152,-11.28468 6.16352,-2.7192 12.78024,-4.0788 19.85016,-4.0788 6.97929,0 13.55069,1.3596 19.71421,4.0788 6.16352,2.7192 11.60192,6.48076 16.3152,11.28468 4.80392,4.71328 8.52016,10.15168 11.14872,16.3152 2.7192,6.16352 4.0788,12.6896 4.0788,19.57824 0,7.06992 -1.3596,13.68664 -4.0788,19.85016 -2.62856,6.16352 -6.3448,11.60192 -11.14872,16.3152 -4.71328,4.62264 -10.15168,8.24824 -16.3152,10.8768 -6.16352,2.62856 -12.73492,3.94284 -19.71421,3.94284 -7.06992,0 -13.68664,-1.31428 -19.85016,-3.94284 -6.16352,-2.62856 -11.60192,-6.25416 -16.3152,-10.8768 -4.62264,-4.71328 -8.24824,-10.15168 -10.8768,-16.3152 -2.62856,-6.16352 -3.94284,-12.78024 -3.94284,-19.85016 z m 20.394,0 c 0,4.44136 0.77044,8.6108 2.31132,12.50832 1.63152,3.80688 3.8522,7.20588 6.66204,10.197 2.90048,2.90048 6.20884,5.16648 9.92508,6.798 3.80688,1.63152 7.931,2.44728 12.37236,2.44728 4.26009,0 8.20293,-0.81576 11.82853,-2.44728 3.71624,-1.63152 6.93396,-3.89752 9.65316,-6.798 2.7192,-2.99112 4.84924,-6.39012 6.39012,-10.197 1.54088,-3.89752 2.31132,-8.06696 2.31132,-12.50832 0,-4.532 -0.81576,-8.74676 -2.44728,-12.64428 -1.54088,-3.89752 -3.71624,-7.29652 -6.52608,-10.197 -2.7192,-2.99112 -5.93692,-5.30244 -9.65316,-6.93396 -3.71624,-1.63152 -7.74972,-2.44728 -12.10045,-2.44728 -4.35072,0 -8.3842,0.81576 -12.10044,2.44728 -3.71624,1.63152 -6.97928,3.94284 -9.78912,6.93396 -2.80984,2.90048 -4.9852,6.29948 -6.52608,10.197 -1.54088,3.89752 -2.31132,8.11228 -2.31132,12.64428 z"
         id="path983" />
      <path
         style="color:#000000;font-style:normal;font-variant:normal;font-weight:700;font-stretch:normal;font-size:135.96px;line-height:normal;font-family:JosefinSans-Bold, 'Josefin Sans';font-variant-ligatures:normal;font-variant-position:normal;font-variant-caps:normal;font-variant-numeric:normal;font-variant-alternates:normal;font-variant-east-asian:normal;font-feature-settings:normal;font-variation-settings:normal;text-indent:0;text-align:start;text-decoration:none;text-decoration-line:none;text-decoration-style:solid;text-decoration-color:#000000;letter-spacing:normal;word-spacing:normal;text-transform:none;writing-mode:lr-tb;direction:ltr;text-orientation:mixed;dominant-baseline:auto;baseline-shift:baseline;text-anchor:start;white-space:normal;shape-padding:0;shape-margin:0;inline-size:0;clip-rule:nonzero;display:inline;overflow:visible;visibility:visible;isolation:auto;mix-blend-mode:normal;color-interpolation:sRGB;color-interpolation-filters:linearRGB;solid-color:#000000;solid-opacity:1;vector-effect:none;fill-opacity:1;fill-rule:nonzero;stroke:none;stroke-width:1;stroke-linecap:butt;stroke-linejoin:miter;stroke-miterlimit:4;stroke-dasharray:none;stroke-dashoffset:0;stroke-opacity:1;color-rendering:auto;image-rendering:auto;shape-rendering:auto;text-rendering:auto;enable-background:accumulate;stop-color:#000000;stop-opacity:1"
         d="m 311.47852,520.25586 c -7.13403,0 -13.82267,1.3734 -20.05079,4.12109 -6.21994,2.7441 -11.71414,6.54455 -16.4707,11.39258 -4.66576,4.75724 -8.32846,10.25025 -10.98047,16.46875 -2.65493,6.22535 -3.98242,12.8212 -3.98242,19.77344 0,7.13188 1.3268,13.8199 3.98242,20.04687 2.65201,6.21851 6.31471,11.71151 10.98047,16.46875 l 0.004,0.004 0.002,0.004 c 4.75724,4.66575 10.2522,8.32846 16.4707,10.98046 6.22698,2.65563 12.91304,3.98243 20.04493,3.98243 7.04205,0 13.68399,-1.32715 19.91015,-3.98243 6.2185,-2.652 11.71346,-6.31471 16.47071,-10.98046 4.84767,-4.75622 8.60236,-10.25072 11.25585,-16.47071 l 0.002,-0.006 c 2.74603,-6.2265 4.11914,-12.91501 4.11914,-20.04687 0,-6.95232 -1.37385,-13.54865 -4.11914,-19.77344 l -0.002,-0.006 c -2.65221,-6.21697 -6.40573,-11.70827 -11.25,-16.46289 -4.75655,-4.84803 -10.25076,-8.64848 -16.4707,-11.39258 -6.22728,-2.74733 -12.87179,-4.12109 -19.91601,-4.12109 z m 0,1 c 6.91435,0 13.41391,1.34409 19.51367,4.03516 6.10709,2.6943 11.49015,6.41792 16.16015,11.17773 l 0.002,0.004 0.004,0.004 c 4.75869,4.66891 8.43558,10.04958 11.03907,16.1543 l 0.002,0.002 v 0.004 c 2.69143,6.10058 4.03711,12.55215 4.03711,19.375 0,7.00582 -1.34641,13.54951 -4.03711,19.64844 v 0.004 l -0.002,0.002 c -2.60349,6.10472 -6.28038,11.48539 -11.03907,16.15429 -4.66931,4.57953 -10.05162,8.17028 -16.16015,10.77539 -6.10088,2.60185 -12.60302,3.90235 -19.51953,3.90235 -7.00796,0 -13.55424,-1.30085 -19.6543,-3.90235 -6.10854,-2.60511 -11.49084,-6.19586 -16.16016,-10.77539 -4.57623,-4.66769 -8.16377,-10.04882 -10.76758,-16.15429 -2.60149,-6.10007 -3.90234,-12.64635 -3.90234,-19.6543 0,-6.82504 1.30015,-13.27917 3.90234,-19.38086 2.60512,-6.10854 6.19392,-11.49279 10.77344,-16.16211 4.67001,-4.75981 10.05306,-8.48343 16.16016,-11.17773 6.09892,-2.69071 12.64262,-4.03516 19.64844,-4.03516 z m 0.13671,18.03516 c -4.41322,0 -8.51877,0.82789 -12.30078,2.48828 -3.7746,1.65714 -7.09426,4.00919 -9.94726,7.04492 -2.85594,2.94806 -5.06932,6.40466 -6.63281,10.35937 -1.56525,3.95914 -2.34571,8.23946 -2.34571,12.82813 0,4.49918 0.78095,8.73545 2.34571,12.69336 l 0.002,0.006 0.004,0.008 c 1.65379,3.85882 3.90661,7.30872 6.75586,10.3418 l 0.006,0.006 0.006,0.006 c 2.94284,2.94283 6.30587,5.24623 10.07813,6.90234 h 0.002 0.002 c 3.87159,1.65925 8.06578,2.48828 12.56836,2.48828 4.32172,0 8.33842,-0.82838 12.0293,-2.48828 3.775,-1.65732 7.05342,-3.9648 9.81836,-6.91406 l 0.002,-0.004 0.002,-0.002 c 2.7586,-3.03446 4.9222,-6.48622 6.48437,-10.34571 v -0.002 l 0.002,-0.002 c 1.56476,-3.95791 2.34571,-8.19418 2.34571,-12.69336 0,-4.592 -0.82816,-8.87474 -2.48633,-12.83594 -1.56136,-3.94633 -3.76841,-7.39625 -6.61719,-10.33984 l -0.002,-0.002 c -2.76463,-3.04052 -6.04305,-5.39637 -9.82031,-7.05468 -3.78201,-1.66039 -7.88756,-2.48828 -12.30079,-2.48828 z m 0,1 c 4.28823,0 8.24796,0.80164 11.89844,2.40429 3.65436,1.60436 6.811,3.87179 9.48438,6.8125 l 0.006,0.006 0.006,0.006 c 2.76374,2.8529 4.90165,6.19288 6.41992,10.0332 l 0.002,0.004 0.002,0.004 c 1.60487,3.83384 2.40821,7.97917 2.40821,12.45117 0,4.38221 -0.75931,8.48613 -2.27539,12.32226 -1.51959,3.75428 -3.61513,7.0991 -6.29493,10.04688 -2.67265,2.84974 -5.82863,5.07277 -9.48437,6.67773 h -0.002 l -0.004,0.002 c -3.55877,1.60144 -7.42679,2.40234 -11.62305,2.40234 -4.37859,0 -8.42885,-0.80164 -12.16992,-2.4043 l -0.004,-0.002 c -3.6539,-1.60474 -6.90338,-3.82983 -9.75782,-6.68164 -2.76703,-2.94555 -4.9538,-6.28778 -6.5625,-10.03711 l -0.002,-0.006 c -1.5155,-3.83549 -2.27344,-7.93896 -2.27344,-12.32031 0,-4.47533 0.75887,-8.62309 2.27539,-12.45899 1.51827,-3.84032 3.65618,-7.1803 6.41992,-10.0332 l 0.004,-0.004 0.002,-0.002 c 2.76559,-2.94401 5.96927,-5.2134 9.625,-6.81836 3.65048,-1.60265 7.61217,-2.40429 11.90039,-2.40429 z"
         id="path985" />
    </g>
    <g
       id="g987"
       style="opacity:1">
      <path
         style="color:#000000;font-style:normal;font-variant:normal;font-weight:700;font-stretch:normal;font-size:135.96px;line-height:normal;font-family:JosefinSans-Bold, 'Josefin Sans';font-variant-ligatures:normal;font-variant-position:normal;font-variant-caps:normal;font-variant-numeric:normal;font-variant-alternates:normal;font-variant-east-asian:normal;font-feature-settings:normal;font-variation-settings:normal;text-indent:0;text-align:start;text-decoration:none;text-decoration-line:none;text-decoration-style:solid;text-decoration-color:#000000;letter-spacing:normal;word-spacing:normal;text-transform:none;writing-mode:lr-tb;direction:ltr;text-orientation:mixed;dominant-baseline:auto;baseline-shift:baseline;text-anchor:start;white-space:normal;shape-padding:0;shape-margin:0;inline-size:0;clip-rule:nonzero;display:inline;overflow:visible;visibility:visible;isolation:auto;mix-blend-mode:normal;color-interpolation:sRGB;color-interpolation-filters:linearRGB;solid-color:#000000;solid-opacity:1;vector-effect:none;fill:#37806a;fill-opacity:1;fill-rule:nonzero;stroke:none;stroke-width:1;stroke-linecap:butt;stroke-linejoin:miter;stroke-miterlimit:4;stroke-dasharray:none;stroke-dashoffset:0;stroke-opacity:1;color-rendering:auto;image-rendering:auto;shape-rendering:auto;text-rendering:auto;enable-background:accumulate;stop-color:#000000;stop-opacity:1"
         d="m 400.06547,584.92885 c 0,3.1724 0.95172,6.20884 2.85516,9.10932 1.90344,2.90048 4.39604,5.25712 7.4778,7.06992 3.1724,1.8128 6.61672,2.7192 10.33296,2.7192 4.0788,0 7.7044,-0.9064 10.87681,-2.7192 3.1724,-1.8128 5.665,-4.16944 7.4778,-7.06992 1.90344,-2.90048 2.85516,-5.93692 2.85516,-9.10932 v -63.08544 h 19.44228 v 63.49332 c 0,7.34184 -1.8128,13.86792 -5.4384,19.57824 -3.6256,5.61968 -8.52016,10.06104 -14.68368,13.32408 -6.16352,3.1724 -13.00684,4.7586 -20.52997,4.7586 v 0 c -7.43248,0 -14.23048,-1.5862 -20.394,-4.7586 -6.07288,-3.26304 -10.92212,-7.7044 -14.54772,-13.32408 -3.6256,-5.71032 -5.4384,-12.2364 -5.4384,-19.57824 v -63.49332 h 19.7142 z"
         id="path989" />
      <path
         style="color:#000000;font-style:normal;font-variant:normal;font-weight:700;font-stretch:normal;font-size:135.96px;line-height:normal;font-family:JosefinSans-Bold, 'Josefin Sans';font-variant-ligatures:normal;font-variant-position:normal;font-variant-caps:normal;font-variant-numeric:normal;font-variant-alternates:normal;font-variant-east-asian:normal;font-feature-settings:normal;font-variation-settings:normal;text-indent:0;text-align:start;text-decoration:none;text-decoration-line:none;text-decoration-style:solid;text-decoration-color:#000000;letter-spacing:normal;word-spacing:normal;text-transform:none;writing-mode:lr-tb;direction:ltr;text-orientation:mixed;dominant-baseline:auto;baseline-shift:baseline;text-anchor:start;white-space:normal;shape-padding:0;shape-margin:0;inline-size:0;clip-rule:nonzero;display:inline;overflow:visible;visibility:visible;isolation:auto;mix-blend-mode:normal;color-interpolation:sRGB;color-interpolation-filters:linearRGB;solid-color:#000000;solid-opacity:1;vector-effect:none;fill-opacity:1;fill-rule:nonzero;stroke:none;stroke-width:1;stroke-linecap:butt;stroke-linejoin:miter;stroke-miterlimit:4;stroke-dasharray:none;stroke-dashoffset:0;stroke-opacity:1;color-rendering:auto;image-rendering:auto;shape-rendering:auto;text-rendering:auto;enable-background:accumulate;stop-color:#000000;stop-opacity:1"
         d="m 379.85156,521.34375 v 63.99219 c 0,7.42414 1.83805,14.05547 5.51563,19.84765 h 0.002 v 0.002 c 3.67065,5.6895 8.59066,10.19409 14.73242,13.49414 l 0.004,0.002 0.004,0.002 c 6.23623,3.20983 13.11747,4.81446 20.62109,4.81446 7.59341,0 14.52264,-1.60417 20.75976,-4.81446 l 0.002,-0.002 h 0.004 c 6.23259,-3.29961 11.19747,-7.805 14.86914,-13.49609 v -0.002 h 0.002 c 3.67757,-5.79218 5.51562,-12.42351 5.51562,-19.84765 V 521.3438 h -20.4414 v 63.58594 c 0,3.0724 -0.91588,6.00341 -2.77344,8.83398 l -0.004,0.004 -0.002,0.006 c -1.76814,2.82902 -4.19445,5.12423 -7.30273,6.90039 -3.09227,1.767 -6.62419,2.6543 -10.62891,2.65429 -3.63431,0 -6.9831,-0.88383 -10.08203,-2.65429 h -0.002 c -3.0172,-1.77602 -5.44813,-4.07517 -7.30859,-6.91016 -1.85756,-2.83057 -2.77148,-5.76158 -2.77148,-8.83398 v -63.58594 z m 1,1 h 18.71485 v 62.58594 c 0,3.2724 0.98623,6.41242 2.93554,9.38281 1.94514,2.96402 4.49915,5.37748 7.64258,7.22656 l 0.004,0.002 0.002,0.002 c 3.24542,1.85453 6.78254,2.78516 10.58008,2.78515 4.15287,0 7.87245,-0.92655 11.125,-2.78515 3.2352,-1.84868 5.79506,-4.26605 7.65234,-7.23633 1.94666,-2.96858 2.9336,-6.1068 2.9336,-9.37695 v -62.58594 h 18.4414 v 62.99219 c 0,7.25953 -1.78575,13.68208 -5.35937,19.31054 -3.57938,5.54717 -8.4025,9.92437 -14.4961,13.1504 -6.08849,3.13263 -12.84626,4.70117 -20.29687,4.70117 -7.35821,0 -14.06751,-1.56692 -20.15625,-4.69922 l -0.002,-0.002 c -6.00204,-3.22546 -10.78142,-7.60238 -14.36133,-13.1504 l -0.002,-0.002 c -3.57267,-5.62792 -5.35742,-12.05002 -5.35742,-19.30859 z"
         id="path991" />
    </g>
    <g
       id="g993"
       style="opacity:1">
      <path
         style="color:#000000;font-style:normal;font-variant:normal;font-weight:700;font-stretch:normal;font-size:135.96px;line-height:normal;font-family:JosefinSans-Bold, 'Josefin Sans';font-variant-ligatures:normal;font-variant-position:normal;font-variant-caps:normal;font-variant-numeric:normal;font-variant-alternates:normal;font-variant-east-asian:normal;font-feature-settings:normal;font-variation-settings:normal;text-indent:0;text-align:start;text-decoration:none;text-decoration-line:none;text-decoration-style:solid;text-decoration-color:#000000;letter-spacing:normal;word-spacing:normal;text-transform:none;writing-mode:lr-tb;direction:ltr;text-orientation:mixed;dominant-baseline:auto;baseline-shift:baseline;text-anchor:start;white-space:normal;shape-padding:0;shape-margin:0;inline-size:0;clip-rule:nonzero;display:inline;overflow:visible;visibility:visible;isolation:auto;mix-blend-mode:normal;color-interpolation:sRGB;color-interpolation-filters:linearRGB;solid-color:#000000;solid-opacity:1;vector-effect:none;fill:#37806a;fill-opacity:1;fill-rule:nonzero;stroke:none;stroke-width:1;stroke-linecap:butt;stroke-linejoin:miter;stroke-miterlimit:4;stroke-dasharray:none;stroke-dashoffset:0;stroke-opacity:1;color-rendering:auto;image-rendering:auto;shape-rendering:auto;text-rendering:auto;enable-background:accumulate;stop-color:#000000;stop-opacity:1"
         d="m 485.1573,521.84341 h 19.71421 v 81.03216 h 47.04216 v 19.0344 H 485.1573 Z"
         id="path995" />
      <path
         style="color:#000000;font-style:normal;font-variant:normal;font-weight:700;font-stretch:normal;font-size:135.96px;line-height:normal;font-family:JosefinSans-Bold, 'Josefin Sans';font-variant-ligatures:normal;font-variant-position:normal;font-variant-caps:normal;font-variant-numeric:normal;font-variant-alternates:normal;font-variant-east-asian:normal;font-feature-settings:normal;font-variation-settings:normal;text-indent:0;text-align:start;text-decoration:none;text-decoration-line:none;text-decoration-style:solid;text-decoration-color:#000000;letter-spacing:normal;word-spacing:normal;text-transform:none;writing-mode:lr-tb;direction:ltr;text-orientation:mixed;dominant-baseline:auto;baseline-shift:baseline;text-anchor:start;white-space:normal;shape-padding:0;shape-margin:0;inline-size:0;clip-rule:nonzero;display:inline;overflow:visible;visibility:visible;isolation:auto;mix-blend-mode:normal;color-interpolation:sRGB;color-interpolation-filters:linearRGB;solid-color:#000000;solid-opacity:1;vector-effect:none;fill-opacity:1;fill-rule:nonzero;stroke:none;stroke-width:1;stroke-linecap:butt;stroke-linejoin:miter;stroke-miterlimit:4;stroke-dasharray:none;stroke-dashoffset:0;stroke-opacity:1;color-rendering:auto;image-rendering:auto;shape-rendering:auto;text-rendering:auto;enable-background:accumulate;stop-color:#000000;stop-opacity:1"
         d="m 484.6582,521.34375 v 0.5 100.56641 h 67.75586 V 602.375 h -47.04297 v -81.03125 z m 1,1 h 18.71289 V 603.375 h 47.04297 v 18.03516 H 485.6582 Z"
         id="path997" />
    </g>
    <g
       id="g999"
       style="opacity:1">
      <path
         style="color:#000000;font-style:normal;font-variant:normal;font-weight:700;font-stretch:normal;font-size:135.96px;line-height:normal;font-family:JosefinSans-Bold, 'Josefin Sans';font-variant-ligatures:normal;font-variant-position:normal;font-variant-caps:normal;font-variant-numeric:normal;font-variant-alternates:normal;font-variant-east-asian:normal;font-feature-settings:normal;font-variation-settings:normal;text-indent:0;text-align:start;text-decoration:none;text-decoration-line:none;text-decoration-style:solid;text-decoration-color:#000000;letter-spacing:normal;word-spacing:normal;text-transform:none;writing-mode:lr-tb;direction:ltr;text-orientation:mixed;dominant-baseline:auto;baseline-shift:baseline;text-anchor:start;white-space:normal;shape-padding:0;shape-margin:0;inline-size:0;clip-rule:nonzero;display:inline;overflow:visible;visibility:visible;isolation:auto;mix-blend-mode:normal;color-interpolation:sRGB;color-interpolation-filters:linearRGB;solid-color:#000000;solid-opacity:1;vector-effect:none;fill:#37806a;fill-opacity:1;fill-rule:nonzero;stroke:none;stroke-width:1;stroke-linecap:butt;stroke-linejoin:miter;stroke-miterlimit:4;stroke-dasharray:none;stroke-dashoffset:0;stroke-opacity:1;color-rendering:auto;image-rendering:auto;shape-rendering:auto;text-rendering:auto;enable-background:accumulate;stop-color:#000000;stop-opacity:1"
         d="M 572.2567,621.90997 V 521.84341 h 29.9112 c 10.06104,0 18.62652,1.49556 25.69644,4.48668 7.06992,2.99112 12.73492,6.97928 16.995,11.96448 4.35072,4.9852 7.52312,10.55956 9.5172,16.72308 1.99408,6.16352 2.99112,12.37236 2.99112,18.62652 0,7.43248 -1.3596,14.13984 -4.0788,20.12208 -2.62856,5.8916 -6.25416,10.96744 -10.8768,15.22752 -4.62264,4.16944 -9.9704,7.38716 -16.04328,9.65316 -6.07288,2.17536 -12.50832,3.26304 -19.30632,3.26304 z m 19.7142,-19.0344 h 11.69256 c 4.9852,0 9.5172,-0.63448 13.596,-1.90344 4.0788,-1.3596 7.56844,-3.30836 10.46892,-5.84628 2.99112,-2.53792 5.25712,-5.71032 6.798,-9.5172 1.63152,-3.89752 2.44728,-8.33888 2.44728,-13.32408 0,-6.52608 -1.08768,-11.82852 -3.26304,-15.90732 -2.08472,-4.16944 -4.71328,-7.38716 -7.88568,-9.65316 -3.08176,-2.266 -6.25416,-3.80688 -9.5172,-4.62264 -3.26304,-0.9064 -6.02756,-1.3596 -8.29356,-1.3596 H 591.9709 Z"
         id="path1001" />
      <path
         style="color:#000000;font-style:normal;font-variant:normal;font-weight:700;font-stretch:normal;font-size:135.96px;line-height:normal;font-family:JosefinSans-Bold, 'Josefin Sans';font-variant-ligatures:normal;font-variant-position:normal;font-variant-caps:normal;font-variant-numeric:normal;font-variant-alternates:normal;font-variant-east-asian:normal;font-feature-settings:normal;font-variation-settings:normal;text-indent:0;text-align:start;text-decoration:none;text-decoration-line:none;text-decoration-style:solid;text-decoration-color:#000000;letter-spacing:normal;word-spacing:normal;text-transform:none;writing-mode:lr-tb;direction:ltr;text-orientation:mixed;dominant-baseline:auto;baseline-shift:baseline;text-anchor:start;white-space:normal;shape-padding:0;shape-margin:0;inline-size:0;clip-rule:nonzero;display:inline;overflow:visible;visibility:visible;isolation:auto;mix-blend-mode:normal;color-interpolation:sRGB;color-interpolation-filters:linearRGB;solid-color:#000000;solid-opacity:1;vector-effect:none;fill-opacity:1;fill-rule:nonzero;stroke:none;stroke-width:1;stroke-linecap:butt;stroke-linejoin:miter;stroke-miterlimit:4;stroke-dasharray:none;stroke-dashoffset:0;stroke-opacity:1;color-rendering:auto;image-rendering:auto;shape-rendering:auto;text-rendering:auto;enable-background:accumulate;stop-color:#000000;stop-opacity:1"
         d="m 571.75586,521.34375 v 101.06641 h 0.5 34.80664 c 6.85133,0 13.34597,-1.09764 19.47461,-3.29297 h 0.004 l 0.002,-0.002 c 6.12805,-2.28658 11.53307,-5.53779 16.20312,-9.75 l 0.002,-0.002 0.002,-0.002 c 4.67173,-4.30532 8.3395,-9.43948 10.99414,-15.38867 l 0.002,-0.002 c 2.75079,-6.05267 4.1211,-12.83366 4.1211,-20.32617 0,-6.3073 -1.0063,-12.5706 -3.01563,-18.78125 -2.01399,-6.22505 -5.22079,-11.86035 -9.61133,-16.89258 l -0.004,-0.006 c -4.31623,-5.04906 -10.05166,-9.08082 -17.17774,-12.0957 -7.1483,-3.02428 -15.78003,-4.52539 -25.89062,-4.52539 z m 1,1 h 29.41211 c 10.01149,0 18.51042,1.48931 25.50195,4.44727 7.01131,2.96632 12.60518,6.90923 16.8086,11.82812 l 0.002,0.002 0.002,0.002 c 4.30848,4.9368 7.44452,10.44907 9.41797,16.54883 1.97883,6.11639 2.9668,12.27163 2.9668,18.47265 0,7.37151 -1.34628,14.00284 -4.03321,19.91406 l -0.002,0.002 v 0.002 c -2.60239,5.83295 -6.18686,10.85021 -10.75976,15.06445 -4.57403,4.12439 -9.8635,7.30623 -15.87891,9.55078 -6.01542,2.15401 -12.38836,3.23243 -19.13086,3.23243 h -34.30664 z m 18.71484,17.89844 V 603.375 h 0.5 11.69336 c 5.02763,0 9.61017,-0.63966 13.74414,-1.92578 l 0.004,-0.002 h 0.006 c 4.13306,-1.37769 7.68431,-3.36056 10.63867,-5.94532 h 0.002 c 3.04862,-2.58848 5.36221,-5.83035 6.92969,-9.70117 1.66084,-3.96756 2.48633,-8.47588 2.48633,-13.51562 0,-6.57576 -1.09295,-11.95594 -3.31641,-16.13086 l -0.002,-0.004 c -2.11237,-4.22339 -4.79042,-7.51085 -8.03516,-9.83008 l -0.006,-0.004 c -3.1247,-2.29657 -6.35485,-3.86655 -9.68554,-4.69922 -3.2864,-0.91209 -6.0863,-1.375 -8.41602,-1.375 z m 1,1 h 15.54297 c 2.19934,0 4.92588,0.44338 8.16016,1.34179 h 0.006 l 0.006,0.002 c 3.19329,0.79832 6.30677,2.30794 9.34375,4.54101 l 0.002,0.002 0.004,0.002 c 3.09652,2.2118 5.67296,5.35959 7.72851,9.4707 l 0.002,0.006 0.004,0.006 c 2.12325,3.9811 3.20508,9.20135 3.20508,15.67188 0,4.93065 -0.80796,9.30338 -2.41016,13.13086 v 0.002 l -0.002,0.004 c -1.51316,3.7384 -3.72883,6.83673 -6.6582,9.32226 l -0.002,0.002 -0.004,0.004 c -2.84392,2.48843 -6.26762,4.40298 -10.28711,5.74414 -5.9e-4,1.8e-4 -0.001,-1.8e-4 -0.002,0 -4.02318,1.25143 -8.50326,1.88086 -13.44532,1.88086 H 592.4707 Z"
         id="path1003" />
    </g>
    <g
       id="g1005"
       style="opacity:1">
      <path
         style="color:#000000;font-style:normal;font-variant:normal;font-weight:700;font-stretch:normal;font-size:135.96px;line-height:normal;font-family:JosefinSans-Bold, 'Josefin Sans';font-variant-ligatures:normal;font-variant-position:normal;font-variant-caps:normal;font-variant-numeric:normal;font-variant-alternates:normal;font-variant-east-asian:normal;font-feature-settings:normal;font-variation-settings:normal;text-indent:0;text-align:start;text-decoration:none;text-decoration-line:none;text-decoration-style:solid;text-decoration-color:#000000;letter-spacing:normal;word-spacing:normal;text-transform:none;writing-mode:lr-tb;direction:ltr;text-orientation:mixed;dominant-baseline:auto;baseline-shift:baseline;text-anchor:start;white-space:normal;shape-padding:0;shape-margin:0;inline-size:0;clip-rule:nonzero;display:inline;overflow:visible;visibility:visible;isolation:auto;mix-blend-mode:normal;color-interpolation:sRGB;color-interpolation-filters:linearRGB;solid-color:#000000;solid-opacity:1;vector-effect:none;fill:#37806a;fill-opacity:1;fill-rule:nonzero;stroke:none;stroke-width:1;stroke-linecap:butt;stroke-linejoin:miter;stroke-miterlimit:4;stroke-dasharray:none;stroke-dashoffset:0;stroke-opacity:1;color-rendering:auto;image-rendering:auto;shape-rendering:auto;text-rendering:auto;enable-background:accumulate;stop-color:#000000;stop-opacity:1"
         d="m 677.14772,521.84341 h 68.25193 v 19.0344 h -48.53773 v 21.34572 h 42.96337 v 19.0344 h -42.96337 v 21.61764 h 50.44117 v 19.0344 h -70.15537 z"
         id="path1007" />
      <path
         style="color:#000000;font-style:normal;font-variant:normal;font-weight:700;font-stretch:normal;font-size:135.96px;line-height:normal;font-family:JosefinSans-Bold, 'Josefin Sans';font-variant-ligatures:normal;font-variant-position:normal;font-variant-caps:normal;font-variant-numeric:normal;font-variant-alternates:normal;font-variant-east-asian:normal;font-feature-settings:normal;font-variation-settings:normal;text-indent:0;text-align:start;text-decoration:none;text-decoration-line:none;text-decoration-style:solid;text-decoration-color:#000000;letter-spacing:normal;word-spacing:normal;text-transform:none;writing-mode:lr-tb;direction:ltr;text-orientation:mixed;dominant-baseline:auto;baseline-shift:baseline;text-anchor:start;white-space:normal;shape-padding:0;shape-margin:0;inline-size:0;clip-rule:nonzero;display:inline;overflow:visible;visibility:visible;isolation:auto;mix-blend-mode:normal;color-interpolation:sRGB;color-interpolation-filters:linearRGB;solid-color:#000000;solid-opacity:1;vector-effect:none;fill-opacity:1;fill-rule:nonzero;stroke:none;stroke-width:1;stroke-linecap:butt;stroke-linejoin:miter;stroke-miterlimit:4;stroke-dasharray:none;stroke-dashoffset:0;stroke-opacity:1;color-rendering:auto;image-rendering:auto;shape-rendering:auto;text-rendering:auto;enable-background:accumulate;stop-color:#000000;stop-opacity:1"
         d="m 676.64844,521.34375 v 0.5 100.56641 h 71.15429 V 602.375 h -50.4414 v -20.61719 h 42.96484 v -20.03515 h -42.96484 v -20.34571 h 48.53906 v -20.0332 z m 1,1 h 67.25195 v 18.0332 h -48.53906 v 22.34571 h 42.96484 v 18.03515 H 696.36133 V 603.375 h 50.4414 v 18.03516 h -69.15429 z"
         id="path1009" />
    </g>
    <g
       id="g1011"
       style="opacity:1">
      <path
         style="color:#000000;font-style:normal;font-variant:normal;font-weight:700;font-stretch:normal;font-size:135.96px;line-height:normal;font-family:JosefinSans-Bold, 'Josefin Sans';font-variant-ligatures:normal;font-variant-position:normal;font-variant-caps:normal;font-variant-numeric:normal;font-variant-alternates:normal;font-variant-east-asian:normal;font-feature-settings:normal;font-variation-settings:normal;text-indent:0;text-align:start;text-decoration:none;text-decoration-line:none;text-decoration-style:solid;text-decoration-color:#000000;letter-spacing:normal;word-spacing:normal;text-transform:none;writing-mode:lr-tb;direction:ltr;text-orientation:mixed;dominant-baseline:auto;baseline-shift:baseline;text-anchor:start;white-space:normal;shape-padding:0;shape-margin:0;inline-size:0;clip-rule:nonzero;display:inline;overflow:visible;visibility:visible;isolation:auto;mix-blend-mode:normal;color-interpolation:sRGB;color-interpolation-filters:linearRGB;solid-color:#000000;solid-opacity:1;vector-effect:none;fill:#37806a;fill-opacity:1;fill-rule:nonzero;stroke:none;stroke-width:1;stroke-linecap:butt;stroke-linejoin:miter;stroke-miterlimit:4;stroke-dasharray:none;stroke-dashoffset:0;stroke-opacity:1;color-rendering:auto;image-rendering:auto;shape-rendering:auto;text-rendering:auto;enable-background:accumulate;stop-color:#000000;stop-opacity:1"
         d="m 798.01832,521.84341 c 6.25416,0 11.82852,0.81576 16.72308,2.44728 4.89456,1.54088 8.97336,3.80688 12.2364,6.798 3.35368,2.90048 5.8916,6.43544 7.61376,10.60488 1.72216,4.0788 2.58324,8.70144 2.58324,13.86792 0,4.0788 -0.63448,8.1576 -1.90344,12.2364 -1.17832,4.0788 -3.1724,7.79504 -5.98224,11.14872 -2.7192,3.35368 -6.3448,6.07288 -10.8768,8.1576 -4.532,1.99408 -10.15168,2.99112 -16.85904,2.99112 h -14.13984 v 31.81464 h -19.7142 V 521.84341 Z m 3.399,49.21752 c 2.99112,0 5.48372,-0.49852 7.4778,-1.49556 1.99408,-0.99704 3.53496,-2.266 4.62264,-3.80688 1.17832,-1.54088 1.99408,-3.12708 2.44728,-4.7586 0.54384,-1.72216 0.81576,-3.30836 0.81576,-4.7586 0,-1.08768 -0.18128,-2.44728 -0.54384,-4.0788 -0.27192,-1.72216 -0.9064,-3.44432 -1.90344,-5.16648 -0.99704,-1.72216 -2.53792,-3.1724 -4.62264,-4.35072 -1.99408,-1.17832 -4.71328,-1.76748 -8.1576,-1.76748 h -14.13984 v 30.18312 z m 18.49056,12.2364 24.74472,38.61264 h -22.97724 l -25.28856,-38.0688 z"
         id="path1013" />
      <path
         style="color:#000000;font-style:normal;font-variant:normal;font-weight:700;font-stretch:normal;font-size:135.96px;line-height:normal;font-family:JosefinSans-Bold, 'Josefin Sans';font-variant-ligatures:normal;font-variant-position:normal;font-variant-caps:normal;font-variant-numeric:normal;font-variant-alternates:normal;font-variant-east-asian:normal;font-feature-settings:normal;font-variation-settings:normal;text-indent:0;text-align:start;text-decoration:none;text-decoration-line:none;text-decoration-style:solid;text-decoration-color:#000000;letter-spacing:normal;word-spacing:normal;text-transform:none;writing-mode:lr-tb;direction:ltr;text-orientation:mixed;dominant-baseline:auto;baseline-shift:baseline;text-anchor:start;white-space:normal;shape-padding:0;shape-margin:0;inline-size:0;clip-rule:nonzero;display:inline;overflow:visible;visibility:visible;isolation:auto;mix-blend-mode:normal;color-interpolation:sRGB;color-interpolation-filters:linearRGB;solid-color:#000000;solid-opacity:1;vector-effect:none;fill-opacity:1;fill-rule:nonzero;stroke:none;stroke-width:1;stroke-linecap:butt;stroke-linejoin:miter;stroke-miterlimit:4;stroke-dasharray:none;stroke-dashoffset:0;stroke-opacity:1;color-rendering:auto;image-rendering:auto;shape-rendering:auto;text-rendering:auto;enable-background:accumulate;stop-color:#000000;stop-opacity:1"
         d="m 767.19922,521.34375 v 101.06641 h 20.71484 V 590.5957 h 12.36133 l 21.13281,31.81446 h 24.15821 l -23.59766,-36.82422 c 2.99565,-1.79833 5.67869,-3.82317 7.70313,-6.31836 2.84949,-3.40101 4.8782,-7.1788 6.07617,-11.32031 1.283,-4.12395 1.92578,-8.25607 1.92578,-12.38672 0,-5.22133 -0.86999,-9.91052 -2.6211,-14.0586 V 541.5 c -1.74952,-4.23502 -4.33536,-7.83589 -7.74414,-10.78516 -3.32212,-3.04315 -7.46888,-5.34234 -12.41797,-6.90039 -4.95296,-1.6497 -10.57925,-2.4707 -16.87304,-2.4707 z m 1,1 h 29.81836 c 6.21068,0 11.73245,0.81056 16.5664,2.42187 h 0.004 l 0.004,0.002 c 4.83652,1.52261 8.84606,3.75358 12.04882,6.68945 l 0.004,0.006 0.006,0.004 c 3.29605,2.85063 5.78446,6.31656 7.47852,10.41797 l 0.002,0.002 v 0.002 c 1.69273,4.00911 2.54297,8.56095 2.54297,13.67188 0,4.02695 -0.62595,8.05423 -1.88086,12.08789 v 0.006 l -0.002,0.004 c -1.15905,4.0121 -3.11692,7.66323 -5.88477,10.9668 l -0.004,0.004 -0.002,0.002 c -1.95151,2.40686 -4.55132,4.36934 -7.46875,6.11719 l -1.25391,-1.95703 -0.28125,0.006 -24.42773,0.56445 4.14063,6.23437 h -12.69532 v 31.81446 h -18.71484 z m 18.71484,18.0332 v 31.1836 h 14.50391 c 3.04667,0 5.61765,-0.50707 7.70117,-1.54883 2.05089,-1.02545 3.65966,-2.34503 4.80078,-3.95899 1.20327,-1.57561 2.04923,-3.21184 2.52149,-4.90234 v -0.004 c 0.55512,-1.75903 0.83984,-3.39272 0.83984,-4.90429 0,-1.1395 -0.1894,-2.52648 -0.55469,-4.17383 -0.28395,-1.78454 -0.94054,-3.55976 -1.96094,-5.32227 -1.04756,-1.80943 -2.66206,-3.32058 -4.80664,-4.5332 -2.10208,-1.24047 -4.90766,-1.83594 -8.40625,-1.83594 z m 1,1 h 13.63867 c 3.38731,0 6.01877,0.58504 7.9043,1.69922 l 0.004,0.002 0.004,0.002 c 2.02361,1.14378 3.48945,2.53183 4.43555,4.16601 0.97071,1.67668 1.58056,3.33961 1.8418,4.99414 l 0.004,0.0156 0.002,0.0156 c 0.35745,1.60856 0.5332,2.93858 0.5332,3.97071 0,1.38774 -0.26127,2.92369 -0.79297,4.60742 l -0.002,0.008 -0.004,0.008 c -0.43415,1.56296 -1.21594,3.09204 -2.36133,4.58985 l -0.006,0.008 -0.006,0.008 c -1.03397,1.46478 -2.50305,2.67926 -4.4375,3.64649 -1.90464,0.95232 -4.31835,1.44336 -7.25391,1.44336 h -13.50391 z m 31.72461,42.42578 0.93164,1.45508 c -0.80536,0.45001 -1.48401,0.98576 -2.35937,1.38867 -5.4e-4,2.4e-4 -0.001,-2.3e-4 -0.002,0 -4.4485,1.957 -9.99923,2.94922 -16.65625,2.94922 h -0.74414 l -3.5039,-5.27539 z m 1.4668,2.29102 22.63281,35.31641 h -21.79492 l -20.4707,-30.81446 h 0.0801 c 6.75691,0 12.44532,-1.0025 17.06055,-3.0332 l 0.004,-0.002 0.004,-0.002 c 0.91847,-0.42249 1.63791,-0.98995 2.48438,-1.46484 z"
         id="path1015" />
    </g>
  </g>
</svg>
