<?xml version="1.0" encoding="UTF-8" standalone="no"?>
<svg
   xmlns:dc="http://purl.org/dc/elements/1.1/"
   xmlns:cc="http://creativecommons.org/ns#"
   xmlns:rdf="http://www.w3.org/1999/02/22-rdf-syntax-ns#"
   xmlns:svg="http://www.w3.org/2000/svg"
   xmlns="http://www.w3.org/2000/svg"
   xmlns:sodipodi="http://sodipodi.sourceforge.net/DTD/sodipodi-0.dtd"
   xmlns:inkscape="http://www.inkscape.org/namespaces/inkscape"
   width="250.03091mm"
   height="125.02406mm"
   viewBox="0 0 250.03091 125.02406"
   version="1.1"
   id="svg3098"
   inkscape:version="1.0.1 (c497b03c, 2020-09-10)"
   sodipodi:docname="tram.svg">
  <defs
     id="defs3092" />
  <sodipodi:namedview
     id="base"
     pagecolor="#ffffff"
     bordercolor="#666666"
     borderopacity="1.0"
     inkscape:pageopacity="0.0"
     inkscape:pageshadow="2"
     inkscape:zoom="0.87032998"
     inkscape:cx="230.26154"
     inkscape:cy="262.61757"
     inkscape:document-units="mm"
     inkscape:current-layer="layer1"
     inkscape:document-rotation="0"
     showgrid="false"
     inkscape:window-width="1252"
     inkscape:window-height="943"
     inkscape:window-x="0"
     inkscape:window-y="23"
     inkscape:window-maximized="0" />
  <metadata
     id="metadata3095">
    <rdf:RDF>
      <cc:Work
         rdf:about="">
        <dc:format>image/svg+xml</dc:format>
        <dc:type
           rdf:resource="http://purl.org/dc/dcmitype/StillImage" />
        <dc:title></dc:title>
      </cc:Work>
    </rdf:RDF>
  </metadata>
  <g
     inkscape:label="Layer 1"
     inkscape:groupmode="layer"
     id="layer1"
     transform="translate(21.695833,-82.552319)">
    <path
       style="fill:#ffffff;fill-opacity:1;stroke-width:0.264583"
       d="m 17.798832,207.29122 c -3.307968,-0.9178 -5.699061,-3.58014 -6.076338,-6.76565 l -0.154535,-1.30482 H 5.2548123 -1.0583338 V 197.23637 195.252 H -11.377084 -21.695833 v -18.93784 -18.93785 l 3.592086,-14.58417 c 1.975648,-8.0213 3.751427,-14.8881 3.946176,-15.25955 0.194749,-0.37146 0.751201,-1.0563 1.236559,-1.52187 1.869428,-1.7932 -1.525865,-1.66706 44.869989,-1.66706 H 22.63995 l 1.44617,-1.47039 c 2.749301,-2.79535 1.86322,-2.60332 13.335063,-2.76294 l 10.036803,-0.13229 -10.23524,-7.12567 c -5.62938,-3.91912 -10.228009,-7.19333 -10.219164,-7.27604 0.0088,-0.0827 4.470392,-3.42459 9.914546,-7.426402 l 9.898458,-7.27605 0.007,-3.47641 c 0.0101,-4.80244 -0.0878,-4.69789 4.509537,-4.8134 3.87867,-0.0974 4.53435,-0.004 5.29411,0.75592 0.4678,0.4678 0.990991,0.925362 0.52243,4.04054 v 3.51811 l 9.93636,7.3609 c 9.815068,7.271042 9.92891,7.366112 9.32656,7.788432 -0.33539,0.23514 -5.004786,3.49536 -10.37643,7.24494 l -9.76663,6.81742 9.76663,0.006 c 11.29566,0.007 10.832725,-0.083 13.46252,2.61021 l 1.57922,1.61731 93.406197,0.006 c 41.78103,0.006 42.08541,0.01 43.26766,0.54559 1.46902,0.66599 2.28407,1.40768 2.92916,2.66549 0.27303,0.53236 2.10692,7.40655 4.0753,15.27597 l 3.57887,14.30802 v 19.05336 19.05372 h -10.45071 -10.45104 v 1.98437 1.98438 h -6.18175 -6.18174 l -0.16167,1.17949 c -0.37498,2.73576 -2.04926,5.02217 -4.59554,6.2757 -1.48628,0.73169 -2.04367,0.86385 -3.6286,0.86036 -2.05258,-0.005 -4.05274,-0.73401 -5.59878,-2.04196 -1.07087,-0.90595 -2.39722,-3.43718 -2.63125,-5.02153 l -0.18634,-1.26149 -6.24997,0.0709 -6.24997,0.0709 -0.18034,1.26167 c -0.38204,2.67282 -2.34278,5.19582 -4.9259,6.33846 -1.58753,0.70224 -4.21059,0.75088 -6.0708,0.11256 -2.69189,-0.9237 -4.91949,-3.62284 -5.32404,-6.45102 l -0.18047,-1.26167 -45.80161,-0.0669 -45.801607,-0.0669 -0.169505,1.27779 c -0.877652,6.61607 -9.216594,9.39322 -14.020787,4.66939 -1.168696,-1.14915 -2.190535,-3.16909 -2.438013,-4.8194 l -0.1689,-1.12629 h -6.175676 -6.175677 l -0.1612,0.99219 c -0.31092,1.91373 -1.026295,3.38403 -2.303634,4.73463 -2.121686,2.24337 -5.205042,3.13875 -8.070729,2.34365 z m 9.347417,-17.43672 0.899584,-0.89958 v -25.96877 c 0,-28.66442 0.09755,-27.04674 -1.681978,-27.89119 -1.226611,-0.58206 -11.598013,-0.63951 -12.956815,-0.0718 -1.891059,0.79014 -1.765374,-1.19153 -1.765374,27.8345 v 26.09723 l 0.899584,0.89958 0.899583,0.89958 h 6.402916 6.402917 z m 20.499798,0.44819 c 1.639559,-0.96851 1.566492,0.31465 1.566042,-27.50214 -2.65e-4,-23.61384 -0.03227,-25.42377 -0.463021,-26.28605 -0.83979,-1.68108 -1.569842,-1.85121 -7.945588,-1.85168 -4.268732,-2.6e-4 -5.848604,0.0906 -6.530864,0.37562 -1.828673,0.76407 -1.728867,-0.84932 -1.728867,27.94771 v 25.96877 l 0.899584,0.89958 0.899583,0.89958 h 6.26949 c 5.434441,0 6.371267,-0.0601 7.033641,-0.45139 z m 125.255533,-0.1222 c 1.51405,-1.19095 1.46011,-0.16746 1.4439,-27.3976 -0.0111,-18.71658 -0.095,-25.30638 -0.33073,-25.97903 -0.17369,-0.49569 -0.65159,-1.15053 -1.06199,-1.45521 -0.69273,-0.51425 -1.14778,-0.55985 -6.35,-0.6363 -3.0821,-0.0453 -6.01113,-0.006 -6.50897,0.0866 -0.50726,0.0947 -1.2342,0.52121 -1.65365,0.97023 l -0.74848,0.80125 v 26.19223 26.19223 l 0.89958,0.89958 0.89959,0.89958 h 6.34077 c 6.10384,0 6.36803,-0.0214 7.06998,-0.57359 z m 20.93216,-0.32599 0.89959,-0.89958 v -26.18453 c 0,-25.63343 -0.011,-26.19845 -0.5202,-26.84586 -0.94106,-1.19636 -1.60698,-1.29671 -8.03145,-1.21036 l -5.99133,0.0805 -0.86445,0.86493 -0.86445,0.86493 -0.0704,25.85798 c -0.0531,19.4826 0.007,26.0451 0.2435,26.61689 0.17264,0.41739 0.68058,0.98249 1.12873,1.25578 0.73564,0.44859 1.41532,0.49698 6.99286,0.49787 l 6.17802,0.001 0.89958,-0.89958 z M 3.3337494,156.517 4.2333328,155.61741 v -9.31219 c 0,-8.30241 -0.048948,-9.39507 -0.4513951,-10.07635 -0.8002878,-1.35478 -1.6752734,-1.56656 -6.4677577,-1.56547 -3.8164058,8e-4 -4.4248816,0.0615 -5.1686483,0.51501 -0.4636553,0.28271 -0.9645941,0.7412 -1.1131974,1.01887 -0.4707461,0.8796 -4.2615453,16.39902 -4.2605123,17.44241 0.0012,1.23714 0.778755,2.55648 1.914822,3.24915 0.797988,0.48654 1.342915,0.52584 7.304918,0.52675 l 6.4426041,9.9e-4 z m 77.7448806,0.59422 c 1.44109,-0.65661 1.453099,-0.74297 1.509207,-10.85327 0.05646,-10.17376 0.05773,-10.164 -1.443787,-11.07954 -0.798628,-0.48696 -1.416685,-0.51407 -11.739848,-0.51501 -6.552046,-5.3e-4 -11.171483,0.10343 -11.585657,0.2609 -0.378848,0.14404 -0.981913,0.57814 -1.340141,0.96468 l -0.651322,0.70279 v 9.51282 9.51282 l 0.899584,0.89959 0.899583,0.89958 h 11.391093 c 8.044677,0 11.587977,-0.0897 12.061288,-0.30536 z m 34.22234,-0.10757 c 1.33666,-0.93624 1.38028,-1.2831 1.38028,-10.97634 0,-8.04046 -0.0497,-9.11835 -0.4514,-9.79844 -0.93106,-1.57616 -1.0578,-1.5904 -13.42563,-1.50858 l -11.248654,0.0744 -0.864764,0.86467 -0.864762,0.86467 -0.07728,9.0572 c -0.0425,4.98146 -0.0059,9.34323 0.0813,9.69281 0.08722,0.34959 0.521539,0.97466 0.965155,1.38906 l 0.806577,0.75346 h 11.554818 c 10.04247,0 11.63197,-0.054 12.14436,-0.41293 z m 33.86667,0 c 1.33665,-0.93624 1.38027,-1.2831 1.38027,-10.97634 0,-8.04046 -0.0497,-9.11835 -0.45139,-9.79844 -0.93106,-1.57616 -1.0578,-1.5904 -13.42563,-1.50858 l -11.24866,0.0744 -0.86477,0.86467 -0.86476,0.86467 -0.0773,9.0572 c -0.0425,4.98146 -0.006,9.34323 0.0813,9.69281 0.0872,0.34959 0.52153,0.97466 0.96515,1.38906 l 0.80658,0.75346 h 11.55481 c 10.04247,0 11.63198,-0.054 12.14437,-0.41293 z m 68.52071,-0.11481 c 1.18325,-0.72143 1.91362,-2.01122 1.91482,-3.38144 5.3e-4,-0.62208 -0.89812,-4.72974 -1.99704,-9.12813 -1.79393,-7.18014 -2.07817,-8.07815 -2.78252,-8.79081 l -0.78449,-0.79375 -4.46127,-0.0832 c -3.48855,-0.065 -4.66574,0.002 -5.39899,0.30862 -1.81678,0.7591 -1.79977,0.6551 -1.77952,10.88378 0.0149,7.54101 0.0877,9.31398 0.4079,9.93312 0.79625,1.53976 0.99302,1.57961 7.79381,1.57853 5.74485,-7.9e-4 6.2915,-0.0415 7.0873,-0.52675 z m -155.775117,-44.5559 9.79091,-6.71905 -9.80828,-7.308552 c -5.865674,-4.370755 -9.93412,-7.23283 -10.12134,-7.12015 -0.64699,0.38936 -18.588713,13.665022 -19.023389,14.076022 -0.423402,0.40033 0.209079,0.88056 9.36425,7.11006 5.400072,3.6744 9.860759,6.68073 9.912629,6.68073 0.0519,0 4.598766,-2.88393 9.88522,-6.71906 z"
       id="path3743"
       sodipodi:nodetypes="cscccccccccsssscsscsccccccscsssccscccsscccccccccsscsscccsssscccssscccssccccsscsccccccccsccscccscssssscscccccsssccscsccccssscccccsscsscssccssscsscccccsssscscccssscssssscscccscscssssssscccsccssscscssss" />
  </g>
</svg>
