<?xml version="1.0" encoding="UTF-8" standalone="no"?>
<svg
   xmlns:dc="http://purl.org/dc/elements/1.1/"
   xmlns:cc="http://creativecommons.org/ns#"
   xmlns:rdf="http://www.w3.org/1999/02/22-rdf-syntax-ns#"
   xmlns:svg="http://www.w3.org/2000/svg"
   xmlns="http://www.w3.org/2000/svg"
   xmlns:sodipodi="http://sodipodi.sourceforge.net/DTD/sodipodi-0.dtd"
   xmlns:inkscape="http://www.inkscape.org/namespaces/inkscape"
   width="70.36586mm"
   height="180.64816mm"
   viewBox="0 0 70.36586 180.64816"
   version="1.1"
   id="svg3246"
   inkscape:version="1.0.1 (c497b03c, 2020-09-10)"
   sodipodi:docname="wall.svg">
  <defs
     id="defs3240" />
  <sodipodi:namedview
     id="base"
     pagecolor="#ffffff"
     bordercolor="#666666"
     borderopacity="1.0"
     inkscape:pageopacity="0.0"
     inkscape:pageshadow="2"
     inkscape:zoom="0.87885424"
     inkscape:cx="-87.687679"
     inkscape:cy="394.94739"
     inkscape:document-units="mm"
     inkscape:current-layer="layer1"
     inkscape:document-rotation="0"
     showgrid="false"
     inkscape:window-width="1792"
     inkscape:window-height="1075"
     inkscape:window-x="0"
     inkscape:window-y="23"
     inkscape:window-maximized="1"
     inkscape:snap-nodes="true"
     inkscape:snap-others="false"
     inkscape:snap-smooth-nodes="true"
     inkscape:snap-intersection-paths="true" />
  <metadata
     id="metadata3243">
    <rdf:RDF>
      <cc:Work
         rdf:about="">
        <dc:format>image/svg+xml</dc:format>
        <dc:type
           rdf:resource="http://purl.org/dc/dcmitype/StillImage" />
        <dc:title></dc:title>
      </cc:Work>
    </rdf:RDF>
  </metadata>
  <g
     inkscape:label="Wall"
     inkscape:groupmode="layer"
     id="layer1"
     style="display:inline"
     transform="translate(-68.12869,-48.575444)">
    <g
       id="g3982">
      <path
         style="fill:#f5f5f5;fill-opacity:1;stroke:#ffffff;stroke-width:2.26772;stroke-miterlimit:4;stroke-dasharray:none;stroke-opacity:1"
         d="m 258.62932,310.40702 -1.9e-4,-125.67575 45.63708,0.2079 c 25.10039,0.11435 84.33201,0.41306 131.62581,0.66381 l 85.98873,0.45591 -39.46991,120.14949 c -21.70845,66.08221 -39.52065,120.22654 -39.58267,120.32072 -0.062,0.0942 -38.91835,2.09742 -86.34739,4.45164 -47.42903,2.35423 -88.84836,4.46528 -92.04294,4.69122 l -5.80833,0.41081 z"
         id="path3942"
         transform="scale(0.26458333)" />
      <path
         style="fill:#e6e5e6;fill-opacity:1;stroke:#ffffff;stroke-width:2.26772;stroke-miterlimit:4;stroke-dasharray:none;stroke-opacity:1"
         d="m 335.80685,522.06591 -77.15832,-28.66331 -0.01,-28.04594 -0.01,-28.04595 h 2.59528 c 1.42741,0 41.52979,-1.95063 89.1164,-4.33475 47.58662,-2.38411 87.72158,-4.25108 89.18881,-4.14881 l 2.66768,0.18595 -13.92694,60.9045 c -7.65983,33.49748 -14.23714,60.8836 -14.61626,60.85806 -0.37912,-0.0256 -35.41055,-12.94493 -77.84763,-28.70975 z"
         id="path3944"
         transform="scale(0.26458333)" />
      <path
         style="fill:#dededd;fill-opacity:1;stroke:#ffffff;stroke-width:2.26772;stroke-miterlimit:4;stroke-dasharray:none;stroke-opacity:1"
         d="m 258.62951,567.71007 c 0,-39.99946 0.22403,-72.58901 0.49786,-72.42122 0.27382,0.16779 22.00527,8.2803 48.29212,18.02781 26.28685,9.74751 48.05129,17.96509 48.36541,18.26129 0.31413,0.29619 -13.38462,23.1929 -30.44166,50.88157 -17.05704,27.68867 -31.07071,50.40863 -31.1415,50.4888 -0.23183,0.26258 -33.63316,7.48804 -34.61516,7.48804 -0.82773,0 -0.95707,-9.82814 -0.95707,-72.72629 z"
         id="path3946"
         transform="scale(0.26458333)" />
      <path
         style="fill:#c2c2c2;fill-opacity:1;stroke:#ffffff;stroke-width:2.26772;stroke-miterlimit:4;stroke-dasharray:none;stroke-opacity:1"
         d="m 297.13045,632.124 c 0,-0.41309 60.14092,-98.37421 60.99911,-99.359 0.33238,-0.38141 54.8396,19.42762 55.46634,20.1576 0.10522,0.12256 -3.27949,13.03768 -7.52161,28.70026 -4.96402,18.32798 -8.06779,28.66924 -8.70864,29.01563 -0.54764,0.29602 -22.80185,5.20275 -49.45379,10.90386 -26.65194,5.70111 -48.98083,10.51238 -49.61975,10.69171 -0.63891,0.17933 -1.16166,0.1298 -1.16166,-0.11006 z"
         id="path3948"
         transform="scale(0.26458333)" />
      <path
         style="fill:#a1a1a1;fill-opacity:1;stroke:#ffffff;stroke-width:2.26772;stroke-miterlimit:4;stroke-dasharray:none;stroke-opacity:1"
         d="m 312.72997,714.38621 c -29.57271,-5.21117 -53.84324,-9.49408 -53.93451,-9.5176 -0.0913,-0.0235 -0.16595,-14.06114 -0.16595,-31.19472 v -31.15197 l 3.485,-0.72597 c 1.91675,-0.39928 33.05675,-7.11758 69.20001,-14.92956 36.14325,-7.81198 65.83235,-14.08626 65.97576,-13.94285 0.33982,0.33981 -29.78076,110.03544 -30.35443,110.5473 -0.24053,0.21462 -24.63318,-3.87347 -54.20588,-9.08463 z"
         id="path3950"
         transform="scale(0.26458333)" />
      <path
         style="fill:#d4d4d4;fill-opacity:1;stroke:#ffffff;stroke-width:2.26772;stroke-miterlimit:4;stroke-dasharray:none;stroke-opacity:1"
         d="m 258.66068,784.98084 c -0.0171,-42.98995 0.19286,-78.16064 0.46669,-78.15708 0.9588,0.0125 106.56306,18.5469 106.7104,18.72858 0.11633,0.14345 -98.85989,127.30933 -105.54119,135.60062 l -1.60473,1.99142 z"
         id="path3952"
         transform="scale(0.26458333)" />
      <path
         style="fill:#818080;fill-opacity:1;stroke:#ffffff;stroke-width:2.26772;stroke-miterlimit:4;stroke-dasharray:none;stroke-opacity:1"
         d="m 265.93141,857.26716 c 0,-0.12917 23.0818,-29.8551 51.29288,-66.05763 l 51.29288,-65.82278 13.19226,-47.95162 c 7.25574,-26.37339 17.63659,-64.36266 23.06855,-84.4206 5.43196,-20.05795 9.96037,-36.55306 10.06312,-36.65581 0.10275,-0.10275 6.22463,22.43193 13.60417,50.07707 l 13.41736,50.2639 -8.87053,34.06597 c -6.34105,24.35187 -9.23081,34.40551 -10.13397,35.2567 -2.61292,2.46255 -156.27218,131.47964 -156.59216,131.47964 -0.18401,0 -0.33456,-0.10567 -0.33456,-0.23484 z"
         id="path3954"
         transform="scale(0.26458333)" />
      <path
         style="fill:#828181;fill-opacity:1;stroke:#ffffff;stroke-width:2.26772;stroke-miterlimit:4;stroke-dasharray:none;stroke-opacity:1"
         d="m 417.47873,544.84782 c 0.21205,-0.91274 6.24776,-27.34894 13.41268,-58.74712 l 13.02712,-57.0876 37.95997,-115.62168 c 20.87799,-63.59192 38.03075,-115.41883 38.11727,-115.17091 0.0865,0.24792 -8.17264,54.3711 -18.35366,120.27374 l -18.51095,119.82298 -32.675,53.76315 c -17.97125,29.56974 -32.82979,53.91251 -33.01899,54.09506 -0.1892,0.18255 -0.1705,-0.41488 0.0416,-1.32762 z"
         id="path3956"
         transform="scale(0.26458333)" />
      <path
         style="fill:#999998;fill-opacity:1;stroke:#ffffff;stroke-width:2.26772;stroke-miterlimit:4;stroke-dasharray:none;stroke-opacity:1"
         d="m 429.40092,603.19944 c -7.3602,-27.50539 -13.28692,-50.10505 -13.1705,-50.22148 0.61981,-0.6198 56.50871,-15.15298 56.67544,-14.7377 0.13685,0.34084 -26.35388,101.48148 -29.96123,114.39088 -0.0889,0.31795 -6.18352,-21.92631 -13.54371,-49.4317 z"
         id="path3958"
         transform="scale(0.26458333)" />
      <path
         style="fill:#999998;fill-opacity:1;stroke:#ffffff;stroke-width:2.26772;stroke-miterlimit:4;stroke-dasharray:none;stroke-opacity:1"
         d="m 417.27993,550.53108 c 0,-0.23819 14.56232,-24.38258 32.36071,-53.6542 23.81997,-39.17487 32.40658,-52.78828 32.53452,-51.58103 0.29968,2.82761 -8.22926,89.62077 -8.86407,90.20363 -0.33169,0.30455 -12.69999,3.76502 -27.4851,7.68992 -14.78512,3.92491 -27.25644,7.27987 -27.71404,7.45548 -0.45761,0.17559 -0.83202,0.12439 -0.83202,-0.1138 z"
         id="path3960"
         transform="scale(0.26458333)" />
      <path
         style="fill:#878787;fill-opacity:1;stroke:#ffffff;stroke-width:2.26772;stroke-miterlimit:4;stroke-dasharray:none;stroke-opacity:1"
         d="m 439.25805,638.27898 c -10.73918,-39.42475 -22.74823,-84.94423 -22.46759,-85.16188 0.87197,-0.67624 54.88674,-14.49993 55.2475,-14.13917 0.2842,0.28421 -7.65157,31.38843 -16.96116,66.47919 -1.82148,6.86572 -3.15313,12.7398 -2.95924,13.05353 0.1939,0.31373 0.11492,0.67061 -0.17551,0.79307 -0.71431,0.30119 -2.91769,8.45543 -2.47731,9.16799 0.19257,0.31157 0.10523,0.66669 -0.19408,0.78915 -0.29931,0.12246 -1.83642,5.07675 -3.4158,11.00955 -1.57939,5.9328 -2.9266,10.7869 -2.99382,10.7869 -0.0672,0 -1.68856,-5.75025 -3.60299,-12.77833 z"
         id="path3962"
         transform="scale(0.26458333)" />
      <path
         style="fill:#979797;fill-opacity:1;stroke:#ffffff;stroke-width:2.26772;stroke-miterlimit:4;stroke-dasharray:none;stroke-opacity:1"
         d="m 421.3469,544.43091 c 6.61569,-11.21289 42.25668,-69.74876 51.09646,-83.91955 5.23806,-8.397 8.96729,-13.76511 9.09651,-13.09414 0.46339,2.40619 -7.9046,87.09938 -8.6826,87.87738 -0.16643,0.16642 -48.41545,13.39317 -53.12383,14.5631 l -1.86126,0.46248 z"
         id="path3964"
         transform="scale(0.26458333)" />
    </g>
  </g>
</svg>
