<?xml version="1.0" encoding="UTF-8" standalone="no"?>
<svg
   xmlns:dc="http://purl.org/dc/elements/1.1/"
   xmlns:cc="http://creativecommons.org/ns#"
   xmlns:rdf="http://www.w3.org/1999/02/22-rdf-syntax-ns#"
   xmlns:svg="http://www.w3.org/2000/svg"
   xmlns="http://www.w3.org/2000/svg"
   xmlns:sodipodi="http://sodipodi.sourceforge.net/DTD/sodipodi-0.dtd"
   xmlns:inkscape="http://www.inkscape.org/namespaces/inkscape"
   width="42.708843mm"
   height="54.169388mm"
   version="1.1"
   viewBox="0 0 42.708844 54.169388"
   id="svg839"
   sodipodi:docname="wall-top-left.svg"
   inkscape:version="1.0.1 (c497b03c, 2020-09-10)">
  <metadata
     id="metadata845">
    <rdf:RDF>
      <cc:Work
         rdf:about="">
        <dc:format>image/svg+xml</dc:format>
        <dc:type
           rdf:resource="http://purl.org/dc/dcmitype/StillImage" />
      </cc:Work>
    </rdf:RDF>
  </metadata>
  <defs
     id="defs843" />
  <sodipodi:namedview
     pagecolor="#ffffff"
     bordercolor="#666666"
     borderopacity="1"
     objecttolerance="10"
     gridtolerance="10"
     guidetolerance="10"
     inkscape:pageopacity="0"
     inkscape:pageshadow="2"
     inkscape:window-width="1599"
     inkscape:window-height="1005"
     id="namedview841"
     showgrid="false"
     inkscape:zoom="3.0625"
     inkscape:cx="26.69453"
     inkscape:cy="116.66528"
     inkscape:window-x="0"
     inkscape:window-y="23"
     inkscape:window-maximized="0"
     inkscape:current-layer="svg839" />
  <g
     transform="matrix(0.98407474,0,0,0.85306123,-198.7831,-207.72041)"
     id="g837"
     style="stroke:none">
    <path
       d="m 202,307 21.4,-48.1 22,-15.4 H 202 Z"
       style="fill:#f9eac5;stroke:none"
       id="path833" />
    <path
       d="m 202,307 v -63.5 h 43.4 L 218.5,255.3 202,307"
       style="fill:#f7e3b1;stroke:none"
       id="path835" />
  </g>
  <path
     style="fill:none;stroke:none;stroke-width:0.00916229;stroke-linecap:butt;stroke-linejoin:miter;stroke-miterlimit:4;stroke-dasharray:none;stroke-opacity:1"
     d="m 16.237236,10.066122 4.821966,3.071021"
     id="path847" />
  <path
     style="fill:#fadf9f;fill-opacity:1;stroke:none;stroke-width:0.00299176;stroke-miterlimit:4;stroke-dasharray:none"
     d="m 18.705298,11.573633 c -1.289531,-0.820833 -2.329036,-1.50621 -2.310011,-1.523063 0.01902,-0.01685 0.311998,-0.1360036 0.651054,-0.2647826 0.339055,-0.1287789 4.518822,-1.7185926 9.288372,-3.53292 4.769549,-1.8143273 9.762273,-3.7129511 11.094939,-4.2191642 1.332669,-0.506213 2.935854,-1.11678566 3.562637,-1.35682829 0.62678,-0.2400426 1.151035,-0.42652902 1.165011,-0.41441427 0.02579,0.0223561 -21.010762,12.80359336 -21.073347,12.80359336 -0.01873,0 -1.089126,-0.67159 -2.378655,-1.492421 z"
     id="path849" />
</svg>
